<svg xmlns="http://www.w3.org/2000/svg" width="24" height="24" viewBox="0 0 24 24" fill="none">
  <path d="M22 4.72727V8.36364C22 8.55652 21.919 8.74151 21.7747 8.8779C21.6304 9.01429 21.4348 9.09091 21.2308 9.09091C21.0268 9.09091 20.8311 9.01429 20.6868 8.8779C20.5426 8.74151 20.4615 8.55652 20.4615 8.36364V5.45455H17.3846C17.1806 5.45455 16.9849 5.37792 16.8407 5.24153C16.6964 5.10514 16.6154 4.92016 16.6154 4.72727C16.6154 4.53439 16.6964 4.3494 16.8407 4.21301C16.9849 4.07662 17.1806 4 17.3846 4H21.2308C21.4348 4 21.6304 4.07662 21.7747 4.21301C21.919 4.3494 22 4.53439 22 4.72727ZM6.61538 18.5455H3.53846V15.6364C3.53846 15.4435 3.45742 15.2585 3.31316 15.1221C3.1689 14.9857 2.97324 14.9091 2.76923 14.9091C2.56522 14.9091 2.36956 14.9857 2.2253 15.1221C2.08104 15.2585 2 15.4435 2 15.6364V19.2727C2 19.4656 2.08104 19.6506 2.2253 19.787C2.36956 19.9234 2.56522 20 2.76923 20H6.61538C6.8194 20 7.01505 19.9234 7.15931 19.787C7.30357 19.6506 7.38462 19.4656 7.38462 19.2727C7.38462 19.0798 7.30357 18.8949 7.15931 18.7585C7.01505 18.6221 6.8194 18.5455 6.61538 18.5455ZM21.2308 14.9091C21.0268 14.9091 20.8311 14.9857 20.6868 15.1221C20.5426 15.2585 20.4615 15.4435 20.4615 15.6364V18.5455H17.3846C17.1806 18.5455 16.9849 18.6221 16.8407 18.7585C16.6964 18.8949 16.6154 19.0798 16.6154 19.2727C16.6154 19.4656 16.6964 19.6506 16.8407 19.787C16.9849 19.9234 17.1806 20 17.3846 20H21.2308C21.4348 20 21.6304 19.9234 21.7747 19.787C21.919 19.6506 22 19.4656 22 19.2727V15.6364C22 15.4435 21.919 15.2585 21.7747 15.1221C21.6304 14.9857 21.4348 14.9091 21.2308 14.9091ZM2.76923 9.09091C2.97324 9.09091 3.1689 9.01429 3.31316 8.8779C3.45742 8.74151 3.53846 8.55652 3.53846 8.36364V5.45455H6.61538C6.8194 5.45455 7.01505 5.37792 7.15931 5.24153C7.30357 5.10514 7.38462 4.92016 7.38462 4.72727C7.38462 4.53439 7.30357 4.3494 7.15931 4.21301C7.01505 4.07662 6.8194 4 6.61538 4H2.76923C2.56522 4 2.36956 4.07662 2.2253 4.21301C2.08104 4.3494 2 4.53439 2 4.72727V8.36364C2 8.55652 2.08104 8.74151 2.2253 8.8779C2.36956 9.01429 2.56522 9.09091 2.76923 9.09091ZM7.38462 7.63636C7.1806 7.63636 6.98495 7.71299 6.84069 7.84938C6.69643 7.98577 6.61538 8.17075 6.61538 8.36364V15.6364C6.61538 15.8292 6.69643 16.0142 6.84069 16.1506C6.98495 16.287 7.1806 16.3636 7.38462 16.3636C7.58863 16.3636 7.78428 16.287 7.92854 16.1506C8.0728 16.0142 8.15385 15.8292 8.15385 15.6364V8.36364C8.15385 8.17075 8.0728 7.98577 7.92854 7.84938C7.78428 7.71299 7.58863 7.63636 7.38462 7.63636ZM17.3846 15.6364V8.36364C17.3846 8.17075 17.3036 7.98577 17.1593 7.84938C17.0151 7.71299 16.8194 7.63636 16.6154 7.63636C16.4114 7.63636 16.2157 7.71299 16.0715 7.84938C15.9272 7.98577 15.8462 8.17075 15.8462 8.36364V15.6364C15.8462 15.8292 15.9272 16.0142 16.0715 16.1506C16.2157 16.287 16.4114 16.3636 16.6154 16.3636C16.8194 16.3636 17.0151 16.287 17.1593 16.1506C17.3036 16.0142 17.3846 15.8292 17.3846 15.6364ZM13.5385 7.63636C13.3344 7.63636 13.1388 7.71299 12.9945 7.84938C12.8503 7.98577 12.7692 8.17075 12.7692 8.36364V15.6364C12.7692 15.8292 12.8503 16.0142 12.9945 16.1506C13.1388 16.287 13.3344 16.3636 13.5385 16.3636C13.7425 16.3636 13.9381 16.287 14.0824 16.1506C14.2266 16.0142 14.3077 15.8292 14.3077 15.6364V8.36364C14.3077 8.17075 14.2266 7.98577 14.0824 7.84938C13.9381 7.71299 13.7425 7.63636 13.5385 7.63636ZM10.4615 7.63636C10.2575 7.63636 10.0619 7.71299 9.91761 7.84938C9.77335 7.98577 9.69231 8.17075 9.69231 8.36364V15.6364C9.69231 15.8292 9.77335 16.0142 9.91761 16.1506C10.0619 16.287 10.2575 16.3636 10.4615 16.3636C10.6656 16.3636 10.8612 16.287 11.0055 16.1506C11.1497 16.0142 11.2308 15.8292 11.2308 15.6364V8.36364C11.2308 8.17075 11.1497 7.98577 11.0055 7.84938C10.8612 7.71299 10.6656 7.63636 10.4615 7.63636Z" fill="black"/>
</svg>