<svg xmlns="http://www.w3.org/2000/svg" width="24" height="24" viewBox="0 0 24 24" fill="none">
  <path d="M21.1212 15.5559C20.3075 14.1562 19.8753 12.1472 19.8753 9.75C19.8753 7.66142 19.0456 5.65838 17.5687 4.18153C16.0919 2.70469 14.0889 1.875 12.0003 1.875C9.91169 1.875 7.90865 2.70469 6.4318 4.18153C4.95496 5.65838 4.12527 7.66142 4.12527 9.75C4.12527 12.1481 3.69496 14.1562 2.88121 15.5559C2.71516 15.8414 2.62714 16.1656 2.62599 16.4958C2.62484 16.8261 2.71059 17.1509 2.87465 17.4375C3.03766 17.7243 3.27427 17.9624 3.56004 18.1272C3.84581 18.292 4.17039 18.3775 4.50027 18.375H7.89215C7.98517 19.4003 8.45822 20.3537 9.21836 21.048C9.9785 21.7423 10.9708 22.1273 12.0003 22.1273C13.0298 22.1273 14.022 21.7423 14.7822 21.048C15.5423 20.3537 16.0154 19.4003 16.1084 18.375H19.5003C19.8297 18.377 20.1537 18.2913 20.4389 18.1265C20.7241 17.9617 20.9603 17.7239 21.1231 17.4375C21.2878 17.1513 21.3744 16.8267 21.3741 16.4965C21.3738 16.1662 21.2865 15.8418 21.1212 15.5559ZM12.0003 19.875C11.568 19.8751 11.149 19.7258 10.8142 19.4525C10.4793 19.1791 10.2492 18.7985 10.1628 18.375H13.8378C13.7513 18.7985 13.5212 19.1791 13.1864 19.4525C12.8515 19.7258 12.4325 19.8751 12.0003 19.875ZM5.12465 16.125C5.95433 14.4375 6.37527 12.2944 6.37527 9.75C6.37527 8.25816 6.9679 6.82742 8.02279 5.77252C9.07769 4.71763 10.5084 4.125 12.0003 4.125C13.4921 4.125 14.9229 4.71763 15.9777 5.77252C17.0326 6.82742 17.6253 8.25816 17.6253 9.75C17.6253 12.2934 18.0453 14.4375 18.875 16.125H5.12465Z" fill="black"/>
</svg>