<svg width="24" height="24" viewBox="0 0 24 24" fill="none" xmlns="http://www.w3.org/2000/svg">
<g clip-path="url(#clip0_4210_20586)">
<path d="M20.5802 15.7102C20.1102 14.7802 19.8702 13.7402 19.8702 12.7102V10.0602C19.8702 9.69024 19.8402 9.32023 19.7902 8.96023C19.7302 8.55023 19.3502 8.25023 18.9402 8.32023C18.5302 8.38023 18.2402 8.76023 18.3002 9.17023C18.3402 9.47023 18.3602 9.77024 18.3602 10.0602V12.7102C18.3602 13.9802 18.6602 15.2502 19.2502 16.4502V16.5802C19.2502 16.9502 18.9402 17.2602 18.5602 17.2602H5.44023C5.06023 17.2602 4.75023 16.9602 4.75023 16.5802V16.3902C5.34023 15.2502 5.64023 13.9802 5.64023 12.7102V10.0602C5.64023 6.58024 8.49023 3.75023 12.0002 3.75023C12.9302 3.75023 13.8302 3.95023 14.6702 4.33023C15.0502 4.50023 15.4902 4.33023 15.6602 3.96023C15.8302 3.58023 15.6602 3.14023 15.2902 2.96023C14.2502 2.48023 13.1402 2.24023 11.9902 2.24023C7.66023 2.24023 4.13023 5.74023 4.13023 10.0502V12.7002C4.13023 13.7402 3.88023 14.7802 3.41023 15.7102C3.30023 15.9402 3.24023 16.1902 3.24023 16.4402V16.5702C3.24023 17.7702 4.22023 18.7502 5.43023 18.7502H8.07023C8.42023 20.6002 10.0402 22.0002 11.9902 22.0002C13.9402 22.0002 15.5602 20.6002 15.9102 18.7502H18.5502C19.7602 18.7502 20.7402 17.7702 20.7402 16.5702V16.4402C20.7402 16.1902 20.6802 15.9402 20.5702 15.7102H20.5802ZM12.0002 20.5002C10.8802 20.5002 9.95023 19.7602 9.63023 18.7502H14.3702C14.0502 19.7602 13.1102 20.5002 12.0002 20.5002Z" fill="black"/>
<path d="M19.5 7C20.8807 7 22 5.88071 22 4.5C22 3.11929 20.8807 2 19.5 2C18.1193 2 17 3.11929 17 4.5C17 5.88071 18.1193 7 19.5 7Z" fill="#FF9141"/>
</g>
<defs>
<clipPath id="clip0_4210_20586">
<rect width="24" height="24" fill="white"/>
</clipPath>
</defs>
</svg>
