<svg width="18" height="23" viewBox="0 0 18 23" fill="none" xmlns="http://www.w3.org/2000/svg">
<path d="M11.6 11.3559L17.24 11.3559L17.24 13.6959L15.86 13.6959L15.86 15.3459L14.48 15.3459L14.48 17.0559L13.1 17.0559L13.1 18.8259L11.72 18.8259L11.72 20.5059L10.19 20.5059L10.19 22.0059L7.58 22.0059L7.58 20.5059L6.02 20.5059L6.02 18.8259L4.64 18.8259L4.64 17.0559L3.26 17.0559L3.26 15.3459L1.88 15.3459L1.88 13.6959L0.499999 13.6959L0.5 11.3559L6.17 11.3559L6.17 1.3659L7.34 1.3659L7.34 0.0458979L10.46 0.045898L10.46 1.3659L11.6 1.3659L11.6 11.3559Z" fill="white"/>
<path d="M11.6 11.3559L9.6 11.3559L9.6 13.3559L11.6 13.3559L11.6 11.3559ZM17.24 11.3559L19.24 11.3559L19.24 9.3559L17.24 9.3559L17.24 11.3559ZM17.24 13.6959L17.24 15.6959L19.24 15.6959L19.24 13.6959L17.24 13.6959ZM15.86 13.6959L15.86 11.6959L13.86 11.6959L13.86 13.6959L15.86 13.6959ZM15.86 15.3459L15.86 17.3459L17.86 17.3459L17.86 15.3459L15.86 15.3459ZM14.48 15.3459L14.48 13.3459L12.48 13.3459L12.48 15.3459L14.48 15.3459ZM14.48 17.0559L14.48 19.0559L16.48 19.0559L16.48 17.0559L14.48 17.0559ZM13.1 17.0559L13.1 15.0559L11.1 15.0559L11.1 17.0559L13.1 17.0559ZM13.1 18.8259L13.1 20.8259L15.1 20.8259L15.1 18.8259L13.1 18.8259ZM11.72 18.8259L11.72 16.8259L9.72 16.8259L9.72 18.8259L11.72 18.8259ZM11.72 20.5059L11.72 22.5059L13.72 22.5059L13.72 20.5059L11.72 20.5059ZM10.19 20.5059L10.19 18.5059L8.19 18.5059L8.19 20.5059L10.19 20.5059ZM10.19 22.0059L10.19 24.0059L12.19 24.0059L12.19 22.0059L10.19 22.0059ZM7.58 22.0059L5.58 22.0059L5.58 24.0059L7.58 24.0059L7.58 22.0059ZM7.58 20.5059L9.58 20.5059L9.58 18.5059L7.58 18.5059L7.58 20.5059ZM6.02 20.5059L4.02 20.5059L4.02 22.5059L6.02 22.5059L6.02 20.5059ZM6.02 18.8259L8.02 18.8259L8.02 16.8259L6.02 16.8259L6.02 18.8259ZM4.64 18.8259L2.64 18.8259L2.64 20.8259L4.64 20.8259L4.64 18.8259ZM4.64 17.0559L6.64 17.0559L6.64 15.0559L4.64 15.0559L4.64 17.0559ZM3.26 17.0559L1.26 17.0559L1.26 19.0559L3.26 19.0559L3.26 17.0559ZM3.26 15.3459L5.26 15.3459L5.26 13.3459L3.26 13.3459L3.26 15.3459ZM1.88 15.3459L-0.12 15.3459L-0.12 17.3459L1.88 17.3459L1.88 15.3459ZM1.88 13.6959L3.88 13.6959L3.88 11.6959L1.88 11.6959L1.88 13.6959ZM0.499999 13.6959L-1.5 13.6959L-1.5 15.6959L0.499999 15.6959L0.499999 13.6959ZM0.499999 11.3559L0.5 9.3559L-1.5 9.3559L-1.5 11.3559L0.499999 11.3559ZM6.17 11.3559L6.17 13.3559L8.17 13.3559L8.17 11.3559L6.17 11.3559ZM6.17 1.3659L6.17 -0.634102L4.17 -0.634102L4.17 1.3659L6.17 1.3659ZM7.34 1.3659L7.34 3.3659L9.34 3.3659L9.34 1.3659L7.34 1.3659ZM7.34 0.0458979L7.34 -1.9541L5.34 -1.9541L5.34 0.0458978L7.34 0.0458979ZM10.46 0.045898L12.46 0.0458981L12.46 -1.9541L10.46 -1.9541L10.46 0.045898ZM10.46 1.3659L8.46 1.3659L8.46 3.3659L10.46 3.3659L10.46 1.3659ZM11.6 1.3659L13.6 1.3659L13.6 -0.634102L11.6 -0.634102L11.6 1.3659ZM11.6 13.3559L17.24 13.3559L17.24 9.3559L11.6 9.3559L11.6 13.3559ZM15.24 11.3559L15.24 13.6959L19.24 13.6959L19.24 11.3559L15.24 11.3559ZM17.24 11.6959L15.86 11.6959L15.86 15.6959L17.24 15.6959L17.24 11.6959ZM13.86 13.6959L13.86 15.3459L17.86 15.3459L17.86 13.6959L13.86 13.6959ZM15.86 13.3459L14.48 13.3459L14.48 17.3459L15.86 17.3459L15.86 13.3459ZM12.48 15.3459L12.48 17.0559L16.48 17.0559L16.48 15.3459L12.48 15.3459ZM14.48 15.0559L13.1 15.0559L13.1 19.0559L14.48 19.0559L14.48 15.0559ZM11.1 17.0559L11.1 18.8259L15.1 18.8259L15.1 17.0559L11.1 17.0559ZM13.1 16.8259L11.72 16.8259L11.72 20.8259L13.1 20.8259L13.1 16.8259ZM9.72 18.8259L9.72 20.5059L13.72 20.5059L13.72 18.8259L9.72 18.8259ZM11.72 18.5059L10.19 18.5059L10.19 22.5059L11.72 22.5059L11.72 18.5059ZM8.19 20.5059L8.19 22.0059L12.19 22.0059L12.19 20.5059L8.19 20.5059ZM10.19 20.0059L7.58 20.0059L7.58 24.0059L10.19 24.0059L10.19 20.0059ZM9.58 22.0059L9.58 20.5059L5.58 20.5059L5.58 22.0059L9.58 22.0059ZM7.58 18.5059L6.02 18.5059L6.02 22.5059L7.58 22.5059L7.58 18.5059ZM8.02 20.5059L8.02 18.8259L4.02 18.8259L4.02 20.5059L8.02 20.5059ZM6.02 16.8259L4.64 16.8259L4.64 20.8259L6.02 20.8259L6.02 16.8259ZM6.64 18.8259L6.64 17.0559L2.64 17.0559L2.64 18.8259L6.64 18.8259ZM4.64 15.0559L3.26 15.0559L3.26 19.0559L4.64 19.0559L4.64 15.0559ZM5.26 17.0559L5.26 15.3459L1.26 15.3459L1.26 17.0559L5.26 17.0559ZM3.26 13.3459L1.88 13.3459L1.88 17.3459L3.26 17.3459L3.26 13.3459ZM3.88 15.3459L3.88 13.6959L-0.12 13.6959L-0.12 15.3459L3.88 15.3459ZM1.88 11.6959L0.499999 11.6959L0.499999 15.6959L1.88 15.6959L1.88 11.6959ZM2.5 13.6959L2.5 11.3559L-1.5 11.3559L-1.5 13.6959L2.5 13.6959ZM0.499999 13.3559L6.17 13.3559L6.17 9.3559L0.5 9.3559L0.499999 13.3559ZM8.17 11.3559L8.17 1.3659L4.17 1.3659L4.17 11.3559L8.17 11.3559ZM6.17 3.3659L7.34 3.3659L7.34 -0.634102L6.17 -0.634102L6.17 3.3659ZM9.34 1.3659L9.34 0.0458979L5.34 0.0458978L5.34 1.3659L9.34 1.3659ZM7.34 2.0459L10.46 2.0459L10.46 -1.9541L7.34 -1.9541L7.34 2.0459ZM8.46 0.0458979L8.46 1.3659L12.46 1.3659L12.46 0.0458981L8.46 0.0458979ZM10.46 3.3659L11.6 3.3659L11.6 -0.634102L10.46 -0.634102L10.46 3.3659ZM9.6 1.3659L9.6 11.3559L13.6 11.3559L13.6 1.3659L9.6 1.3659Z" fill="url(#paint0_linear_5068_27646)"/>
<defs>
<linearGradient id="paint0_linear_5068_27646" x1="20.5" y1="-0.664805" x2="-6.19149" y2="21.5639" gradientUnits="userSpaceOnUse">
<stop stop-color="#FFAC6F"/>
<stop offset="0.516428" stop-color="#FF9141"/>
<stop offset="0.878472" stop-color="#FF6B6B"/>
<stop offset="1" stop-color="#FF9AB3"/>
</linearGradient>
</defs>
</svg>
