<svg width="18" height="18" viewBox="0 0 18 18" fill="none" xmlns="http://www.w3.org/2000/svg">
<path d="M14 2H13.75V0.75C13.75 0.34 13.41 0 13 0C12.59 0 12.25 0.34 12.25 0.75V2H5.75V0.75C5.75 0.34 5.41 0 5 0C4.59 0 4.25 0.34 4.25 0.75V2H4C1.93 2 0.25 3.73 0.25 5.85V14.15C0.25 16.27 1.93 18 4 18H14C16.07 18 17.75 16.27 17.75 14.15V5.85C17.75 3.73 16.07 2 14 2ZM4 3.5H14C15.24 3.5 16.25 4.55 16.25 5.85V6.01H1.75V5.85C1.75 4.55 2.76 3.5 4 3.5ZM14 16.5H4C2.76 16.5 1.75 15.45 1.75 14.15V7.51H16.25V14.15C16.25 15.45 15.24 16.5 14 16.5Z" fill="#96A2AC"/>
</svg>
