<svg width="22" height="22" viewBox="0 0 22 22" fill="currentColor" xmlns="http://www.w3.org/2000/svg">
<g clip-path="url(#clip0_2237_15830)">
<path d="M1.83337 17.4163C1.83337 19.2497 2.75004 20.1663 4.58337 20.1663H17.4167C19.25 20.1663 20.1667 19.2497 20.1667 17.4163V10.083H1.83337V17.4163ZM9.16671 13.7497H12.8334C13.3375 13.7497 13.75 14.1622 13.75 14.6663C13.75 15.1705 13.3375 15.583 12.8334 15.583H9.16671C8.66254 15.583 8.25004 15.1705 8.25004 14.6663C8.25004 14.1622 8.66254 13.7497 9.16671 13.7497Z" fill="currnet"/>
<path d="M17.4167 2.75H16.5V3.66667C16.5 4.58333 15.5834 5.5 14.6667 5.5C13.75 5.5 12.8334 4.58333 12.8334 3.66667V2.75H9.16671V3.66667C9.16671 4.58333 8.25004 5.5 7.33337 5.5C6.41671 5.5 5.50004 4.58333 5.50004 3.66667V2.75H4.58337C2.75004 2.75 1.83337 3.66667 1.83337 5.5V8.25H20.1667V5.5C20.1667 3.66667 19.25 2.75 17.4167 2.75Z" fill="currnet"/>
<path d="M7.33341 4.58317C7.83758 4.58317 8.25008 4.17067 8.25008 3.6665V1.83317C8.25008 1.329 7.83758 0.916504 7.33341 0.916504C6.82925 0.916504 6.41675 1.329 6.41675 1.83317V3.6665C6.41675 4.17067 6.82925 4.58317 7.33341 4.58317Z" fill="white"/>
<path d="M14.6667 4.58317C15.1708 4.58317 15.5833 4.17067 15.5833 3.6665V1.83317C15.5833 1.329 15.1708 0.916504 14.6667 0.916504C14.1625 0.916504 13.75 1.329 13.75 1.83317V3.6665C13.75 4.17067 14.1625 4.58317 14.6667 4.58317Z" fill="white"/>
</g>
<defs>
<clipPath id="clip0_2237_15830">
<rect width="22" height="22" fill="white"/>
</clipPath>
</defs>
</svg>
