<svg width="44" height="44" viewBox="0 0 44 44" fill="none" xmlns="http://www.w3.org/2000/svg">
<path d="M21.5591 40.4276C18.1412 40.4121 14.7542 39.4532 11.7693 37.6592C8.93911 35.958 6.48006 33.4525 4.65511 30.4212C2.76829 27.2817 1.80941 24.003 1.79395 20.6778C1.80941 17.2908 2.78375 13.9038 4.59324 10.888C6.40273 7.85674 8.87725 5.35129 11.7384 3.6346C14.8316 1.77871 18.234 0.788903 21.5591 0.773438C24.6987 0.788903 27.8692 1.79418 31.2716 3.83565C34.2101 5.59874 36.6073 8.0114 38.4013 10.9808C40.3036 14.1668 41.278 17.43 41.3089 20.6778C41.2934 24.436 40.4119 27.8694 38.7725 30.6068C37.1177 33.3752 34.5658 35.8342 31.4108 37.7211C28.4878 39.4687 25.1008 40.4121 21.5901 40.4276H21.5591Z" fill="url(#paint0_radial_6_2)"/>
<path d="M21.5591 40.4276C18.1412 40.4121 14.7542 39.4532 11.7693 37.6592C8.93911 35.958 6.48006 33.4525 4.65511 30.4212C2.76829 27.2817 1.80941 24.003 1.79395 20.6778C1.80941 17.2908 2.78375 13.9038 4.59324 10.888C6.40273 7.85674 8.87725 5.35129 11.7384 3.6346C14.8316 1.77871 18.234 0.788903 21.5591 0.773438C24.6987 0.788903 27.8692 1.79418 31.2716 3.83565C34.2101 5.59874 36.6073 8.0114 38.4013 10.9808C40.3036 14.1668 41.278 17.43 41.3089 20.6778C41.2934 24.436 40.4119 27.8694 38.7725 30.6068C37.1177 33.3752 34.5658 35.8342 31.4108 37.7211C28.4878 39.4687 25.1008 40.4121 21.5901 40.4276H21.5591Z" fill="white"/>
<path d="M21.5746 1.54657C24.9461 1.56204 28.0857 2.81476 30.885 4.50053C33.7152 6.20176 36.0505 8.55255 37.7363 11.3828C39.4221 14.1975 40.5047 17.3216 40.5201 20.6931C40.5047 24.0647 39.7778 27.4053 38.092 30.22C36.3908 33.0503 33.8235 35.3701 30.9933 37.0714C28.194 38.7571 24.9307 39.6541 21.5592 39.6696C18.1876 39.6541 14.9708 38.6953 12.156 37.025C9.32576 35.3237 7.0059 32.8801 5.30467 30.0499C3.61891 27.2506 2.56724 24.0647 2.55177 20.6931C2.56724 17.3216 3.55705 14.1047 5.24281 11.3054C6.94404 8.47522 9.29483 6.01617 12.1251 4.3304C14.9398 2.64464 18.1876 1.59297 21.5592 1.5775M21.5592 0.0309315C18.0948 0.0463972 14.5686 1.0826 11.3518 3.01582C8.38235 4.79438 5.81504 7.39262 3.94369 10.5322C2.05687 13.6717 1.0516 17.1979 1.03613 20.7086C1.0516 24.1884 2.05687 27.6063 4.00555 30.8696C5.89237 34.0091 8.44422 36.6074 11.3827 38.3705C14.4759 40.2264 18.002 41.2162 21.5592 41.2471C25.2245 41.2316 28.7507 40.2573 31.7975 38.4323C35.0762 36.4682 37.7054 33.9163 39.4375 31.0397C41.1542 28.1786 42.0667 24.6214 42.0822 20.7241C42.0667 17.3062 41.046 13.9192 39.0664 10.6095C37.2105 7.53181 34.736 5.02636 31.6737 3.20141C28.1476 1.05167 24.8534 0.0154657 21.5746 0L21.5592 0.0309315Z" fill="#E2E2E2"/>
<path d="M15.4656 12.0322C17.2441 10.7331 19.2856 9.89795 21.5745 9.89795C24.4666 9.89795 27.0958 11.1816 29.0909 13.1612C31.086 15.1408 32.4006 17.7855 32.416 20.6621C32.416 23.5542 31.2252 26.338 29.2455 28.3176C27.2659 30.2972 24.4666 31.318 21.59 31.3335C18.6979 31.3335 15.9914 30.2045 14.0118 28.2248C12.0322 26.2452 10.764 23.5387 10.7485 20.6466C10.7485 19.2547 11.0578 17.9401 11.5837 16.7183" fill="url(#paint1_radial_6_2)"/>
<path d="M21.5747 32.1224C18.4661 32.1069 15.574 30.9315 13.4552 28.7973C11.2591 26.5857 9.97543 23.6317 9.95996 20.6777C9.95996 19.2704 10.2538 17.832 10.8415 16.4401C11.0116 16.0535 11.4601 15.8679 11.8622 16.0226C12.2489 16.1927 12.4345 16.6412 12.2798 17.0278C11.7695 18.2342 11.5065 19.4559 11.5065 20.6623C11.5065 23.2141 12.6201 25.766 14.5378 27.6992C16.3782 29.5396 18.8837 30.5603 21.5747 30.5758C24.3276 30.5758 26.9259 29.5396 28.689 27.7765C30.5448 25.9206 31.612 23.3224 31.6274 20.6623C31.6274 18.1568 30.5139 15.6823 28.5343 13.7027C26.5547 11.7231 24.1111 10.6714 21.5747 10.6559C19.626 10.6559 17.7238 11.321 15.9297 12.6356C15.5895 12.883 15.0946 12.8057 14.8471 12.4654C14.5997 12.1252 14.677 11.6303 15.0173 11.3828C17.0897 9.8672 19.2858 9.10938 21.5747 9.10938C24.5287 9.10938 27.3898 10.3621 29.6324 12.6046C31.9058 14.8781 33.1586 17.7393 33.174 20.6623C33.1586 23.74 31.9213 26.7403 29.787 28.8746C27.7146 30.947 24.7916 32.1069 21.5902 32.1224H21.5747Z" fill="#F0F0F0"/>
<path d="M30.6838 38.3088C29.462 37.783 29.1218 36.9169 28.596 35.6951C28.4877 35.4322 28.2557 35.293 28.0237 35.293C27.7917 35.293 27.5597 35.4322 27.4515 35.6951C26.9257 36.9169 26.5854 37.783 25.3636 38.3088C24.8378 38.5408 24.8378 39.2213 25.3636 39.4533C26.5854 39.9791 26.9257 40.8452 27.4515 42.067C27.5597 42.3299 27.7917 42.4691 28.0237 42.4691C28.2557 42.4691 28.4877 42.3299 28.596 42.067C29.1218 40.8452 29.462 39.9791 30.6838 39.4533C31.2097 39.2213 31.2097 38.5408 30.6838 38.3088Z" fill="#FFE846"/>
<path d="M31.2871 36.8856C30.7303 36.6537 30.5602 36.3753 30.0653 35.1844L30.0189 35.0916C29.6787 34.2719 28.8899 33.7461 28.0238 33.7461C27.1577 33.7461 26.369 34.2719 26.0287 35.0916L25.9823 35.1844C25.4874 36.3753 25.3173 36.6382 24.7606 36.8856C23.9409 37.2259 23.415 38.0146 23.415 38.8807C23.415 39.7468 23.9409 40.5355 24.7606 40.8758C25.3173 41.1078 25.4874 41.3862 25.9823 42.577L26.0287 42.6698C26.369 43.4895 27.1577 44.0153 28.0238 44.0153C28.8899 44.0153 29.6787 43.4895 30.0189 42.6698L30.0653 42.577C30.5602 41.3862 30.7303 41.1232 31.2871 40.8758C32.1068 40.5355 32.6326 39.7468 32.6326 38.8807C32.6326 38.0146 32.1068 37.2259 31.2871 36.8856ZM30.6839 39.4529C29.4621 39.9788 29.1219 40.8449 28.5961 42.0667C28.4878 42.3296 28.2558 42.4688 28.0238 42.4688C27.7918 42.4688 27.5599 42.3296 27.4516 42.0667C26.9258 40.8449 26.5855 39.9788 25.3637 39.4529C24.8379 39.221 24.8379 38.5405 25.3637 38.3085C26.5855 37.7827 26.9258 36.9166 27.4516 35.6948C27.5599 35.4319 27.7918 35.2927 28.0238 35.2927C28.2558 35.2927 28.4878 35.4319 28.5961 35.6948C29.1219 36.9166 29.4621 37.7827 30.6839 38.3085C31.2098 38.5405 31.2098 39.221 30.6839 39.4529Z" fill="white"/>
<path d="M9.58857 5.79962C7.8564 5.07273 7.37697 3.83547 6.65008 2.11878C6.49542 1.7476 6.17064 1.56201 5.84586 1.56201C5.52108 1.56201 5.1963 1.7476 5.04164 2.11878C4.31475 3.85094 3.83531 5.07273 2.10315 5.79962C1.3608 6.1244 1.3608 7.09874 2.10315 7.40806C3.83531 8.13495 4.31475 9.3722 5.04164 11.0889C5.1963 11.4601 5.52108 11.6457 5.84586 11.6457C6.17064 11.6457 6.49542 11.4601 6.65008 11.0889C7.37697 9.35674 7.8564 8.13495 9.58857 7.40806C10.3309 7.08328 10.3309 6.10894 9.58857 5.79962Z" fill="#FFE846"/>
<path d="M10.1919 4.36118C9.14025 3.91267 8.8464 3.30951 8.13497 1.62374L8.07311 1.48455C7.68647 0.572073 6.80492 -0.015625 5.84605 -0.015625C4.88717 -0.015625 4.00562 0.572073 3.61898 1.48455L3.55712 1.62374C2.84569 3.30951 2.55185 3.91267 1.50018 4.36118C0.587698 4.74782 0 5.62937 0 6.58824C0 7.54712 0.587698 8.42866 1.50018 8.81531C2.55185 9.26381 2.84569 9.86698 3.55712 11.5527L3.61898 11.6919C4.00562 12.6044 4.88717 13.1921 5.84605 13.1921C6.80492 13.1921 7.68647 12.6044 8.07311 11.6919L8.13497 11.5527C8.8464 9.86698 9.14025 9.26381 10.1919 8.83077C11.1044 8.44413 11.6921 7.56258 11.6921 6.60371C11.6921 5.64483 11.1044 4.76329 10.1919 4.37664V4.36118ZM5.84605 11.6455C5.52127 11.6455 5.19649 11.4599 5.04183 11.0888C4.31494 9.35661 3.8355 8.13481 2.10334 7.40793C1.36098 7.08315 1.36098 6.1088 2.10334 5.79949C3.8355 5.0726 4.31494 3.83534 5.04183 2.11865C5.19649 1.74747 5.52127 1.56188 5.84605 1.56188C6.17083 1.56188 6.49561 1.74747 6.65026 2.11865C7.37715 3.85081 7.85659 5.0726 9.58875 5.79949C10.3311 6.12427 10.3311 7.09861 9.58875 7.40793C7.85659 8.13481 7.37715 9.37207 6.65026 11.0888C6.49561 11.4599 6.17083 11.6455 5.84605 11.6455Z" fill="white"/>
<path d="M41.3553 30.1274C39.9479 29.5397 39.5612 28.5344 38.9735 27.1271C38.8498 26.8177 38.5869 26.6631 38.324 26.6631C38.0611 26.6631 37.7982 26.8177 37.6744 27.1271C37.0867 28.5344 36.6846 29.5242 35.2927 30.1274C34.6895 30.3903 34.6895 31.1791 35.2927 31.442C36.7001 32.0297 37.0867 33.035 37.6744 34.4423C37.7982 34.7517 38.0611 34.9063 38.324 34.9063C38.5869 34.9063 38.8498 34.7517 38.9735 34.4423C39.5612 33.035 39.9634 32.0452 41.3553 31.442C41.9584 31.1791 41.9584 30.3903 41.3553 30.1274Z" fill="#FFE86E"/>
<path d="M41.9585 28.6888C41.2007 28.364 40.9996 27.9464 40.4429 26.6319L40.3965 26.5236C40.0408 25.673 39.2211 25.1162 38.3241 25.1162C37.427 25.1162 36.6074 25.673 36.2516 26.5236L36.2052 26.6319C35.6485 27.9464 35.432 28.3795 34.6896 28.7043C33.839 29.06 33.2822 29.8797 33.2822 30.7767C33.2822 31.6737 33.839 32.4934 34.6896 32.8491C35.4474 33.1739 35.6485 33.5914 36.2052 34.906L36.2516 35.0143C36.6074 35.8649 37.427 36.4217 38.3241 36.4217C39.2211 36.4217 40.0408 35.8649 40.3965 35.0143L40.4429 34.906C40.9996 33.5914 41.2161 33.1584 41.9585 32.8491C42.8091 32.4934 43.3659 31.6737 43.3659 30.7767C43.3659 29.8797 42.8091 29.06 41.9585 28.7043V28.6888ZM41.3553 31.4262C39.948 32.0139 39.5613 33.0192 38.9736 34.4266C38.8499 34.7359 38.587 34.8906 38.3241 34.8906C38.0611 34.8906 37.7982 34.7359 37.6745 34.4266C37.0868 33.0192 36.6847 32.0294 35.2928 31.4262C34.6896 31.1633 34.6896 30.3746 35.2928 30.1116C36.7002 29.5239 37.0868 28.5187 37.6745 27.1113C37.7982 26.802 38.0611 26.6473 38.3241 26.6473C38.587 26.6473 38.8499 26.802 38.9736 27.1113C39.5613 28.5187 39.9634 29.5085 41.3553 30.1116C41.9585 30.3746 41.9585 31.1633 41.3553 31.4262Z" fill="white"/>
<defs>
<radialGradient id="paint0_radial_6_2" cx="0" cy="0" r="1" gradientUnits="userSpaceOnUse" gradientTransform="translate(21.5591 20.585) scale(16.9195)">
<stop offset="0.73" stop-color="#FAFAFA"/>
<stop offset="1" stop-color="white"/>
</radialGradient>
<radialGradient id="paint1_radial_6_2" cx="0" cy="0" r="1" gradientUnits="userSpaceOnUse" gradientTransform="translate(21.5591 20.6312) scale(15.0172 15.0172)">
<stop offset="0.66" stop-color="white"/>
<stop offset="1" stop-color="#FAFAFA"/>
</radialGradient>
</defs>
</svg>
