<svg width="45" height="44" viewBox="0 0 45 44" fill="none" xmlns="http://www.w3.org/2000/svg">
<path d="M15.7018 29.9939C18.2383 31.5299 19.7138 31.4969 19.7967 28.7551C19.8299 27.9128 19.5978 26.9548 19.2662 26.4924C17.9233 24.5599 15.8676 25.138 15.9836 27.9458C16.0997 30.8527 20.1946 33.1816 22.2504 32.2897C24.4056 31.3482 26.279 28.2927 24.8035 25.4518C23.4275 22.8092 19.7138 25.0554 21.0899 27.4173C22.814 30.3737 27.1577 28.2266 26.9422 24.6755C26.7266 21.1245 25.019 20.8272 22.3333 19.2416C20.3438 18.0689 17.1275 20.5795 18.4207 22.3467C19.7801 24.2131 22.9135 24.4278 23.0296 21.3392C23.1456 18.2506 22.5156 17.9698 20.5925 16.5825C18.802 15.2942 14.6905 17.9038 16.3815 20.0509C17.6581 21.6861 20.0288 20.3813 20.1946 19.1095C20.5593 16.1861 18.8186 14.5344 16.3483 14.3527C14.1599 14.1876 11.8721 15.9548 12.1539 19.8527C12.4357 23.5524 16.5473 24.2296 16.5141 22.1816C16.4644 18.4653 11.0929 19.9023 11.441 24.0644C11.8389 29.0194 17.7078 27.6816 16.3981 25.584C15.1878 23.6515 11.3581 28.3092 14.6241 31.5795C16.6468 33.5945 17.2104 32.174 21.1562 33.1816C23.4772 33.7762 23.3611 35.4443 20.8743 35.6095C19.6309 35.6921 19.1501 33.5614 21.1893 32.8843C23.3943 32.1575 26.5277 32.4879 28.285 31.2822C31.12 29.3332 28.5006 26.2116 27.1577 28.656C25.8148 31.1005 29.4455 31.4473 31.6837 29.8783C32.8773 29.0524 34.0379 26.1786 32.5624 21.3722C32.0816 19.7867 26.4116 23.3377 29.1306 25.5179C32.1976 27.9623 34.1042 20.4308 31.7666 19.0269C29.429 17.623 25.6159 19.4728 27.3898 21.2731C29.1637 23.0734 32.2308 19.9683 29.7771 16.5494C29.0808 15.5749 25.6987 14.4188 25.1351 16.5494C24.8532 17.623 24.8367 19.2581 27.4395 18.8452C30.3076 18.3993 30.9542 16.1365 28.6166 13.1305C26.279 10.1245 23.3943 9.03441 21.4214 12.8167C20.377 14.7987 22.3001 19.3737 24.2067 15.7897C26.1132 12.2056 25.4003 11.0329 23.0296 9.05092C21.7696 7.99387 17.0446 7.68005 17.3762 12.4533C17.6912 16.9623 23.9082 15.3933 23.3446 12.668" stroke="#FACF84" stroke-width="2" stroke-miterlimit="10" stroke-linecap="round"/>
<path d="M11.6732 22.7764C12.3695 25.6503 13.4471 26.6578 15.4531 24.7914C16.0665 24.2133 16.5805 23.371 16.68 22.8094C17.0944 20.4971 15.2376 19.4566 13.3145 21.5211C11.325 23.6683 12.585 28.1938 14.6574 29.0031C16.8623 29.862 20.3439 29.0031 21.3054 25.9806C22.2007 23.1398 17.9897 22.1157 17.2934 24.7584C16.4147 28.0617 21.007 29.5977 23.3778 26.9386C25.7485 24.2794 24.7538 22.859 23.9746 19.853C23.3944 17.6232 19.3491 17.1443 19.001 19.2914C18.6363 21.5707 20.7086 23.9326 22.9633 21.835C25.218 19.7374 25.0025 19.0932 24.6212 16.7479C24.2565 14.5677 19.5149 13.5271 19.1834 16.2359C18.9347 18.2839 21.5375 19.0437 22.5488 18.2674C24.8864 16.4671 24.8201 14.0722 23.212 12.1893C21.7862 10.5211 18.9015 10.1578 16.3484 13.1308C13.9279 15.9386 16.3484 19.3244 17.7742 17.838C20.377 15.1623 15.5692 12.404 12.8503 15.5917C9.61742 19.374 14.7237 22.5782 15.2873 20.1503C15.8013 17.9371 9.7832 18.5317 9.7832 23.1398C9.7832 25.9806 11.1924 25.386 13.2647 28.871C14.4916 30.919 13.215 32.0256 11.3416 30.3905C10.3966 29.5812 11.5737 27.7314 13.4968 28.6893C15.5858 29.7299 17.5586 32.1743 19.6476 32.5542C23.0462 33.1653 23.3944 29.1187 20.7086 29.9115C18.0228 30.7043 20.3439 33.4956 23.0296 33.9746C24.4554 34.2223 27.3235 33.0332 29.6777 28.5737C30.4569 27.1202 23.9249 25.6338 24.3062 29.0857C24.7372 32.9671 31.435 28.9866 30.7885 26.3605C30.1419 23.7344 26.1133 22.347 26.0967 24.8575C26.0801 27.368 30.4569 27.335 31.1366 23.2058C31.3356 22.0166 29.7606 18.829 27.854 19.9521C26.8925 20.5136 25.7154 21.6533 27.854 23.2058C30.1916 24.907 32.264 23.7674 32.7448 20.0016C33.2256 16.2359 31.9656 13.4281 27.8706 14.7163C25.732 15.3935 23.842 19.9686 27.738 18.7794C31.634 17.5902 31.9656 16.2524 31.6837 13.1803C31.5345 11.5452 28.4177 7.99412 25.2678 11.5947C22.2836 14.9971 27.8043 18.2839 29.3295 15.9386" stroke="#FFED5C" stroke-width="2" stroke-miterlimit="10" stroke-linecap="round"/>
<path d="M22.3502 43.174C18.6863 43.1575 15.0556 42.1335 11.8559 40.2176C8.82198 38.4008 6.18596 35.7251 4.22967 32.4878C2.20706 29.135 1.17918 25.6335 1.1626 22.0824C1.17918 18.4653 2.22364 14.8482 4.16335 11.6275C6.10306 8.39025 8.75566 5.71457 11.8227 3.88124C15.1385 1.89926 18.7858 0.8422 22.3502 0.825684C25.7157 0.8422 29.1144 1.91577 32.7617 4.09595C35.9117 5.97884 38.4814 8.55541 40.4045 11.7266C42.4437 15.129 43.4881 18.614 43.5213 22.0824C43.5047 26.096 42.5597 29.7626 40.8024 32.686C39.0285 35.6425 36.293 38.2686 32.9109 40.2836C29.7775 42.15 26.1468 43.1575 22.3834 43.174H22.3502Z" fill="url(#paint0_radial_6_2)"/>
<path d="M22.3502 43.174C18.6863 43.1575 15.0556 42.1335 11.8559 40.2176C8.82198 38.4008 6.18596 35.7251 4.22967 32.4878C2.20706 29.135 1.17918 25.6335 1.1626 22.0824C1.17918 18.4653 2.22364 14.8482 4.16335 11.6275C6.10306 8.39025 8.75566 5.71457 11.8227 3.88124C15.1385 1.89926 18.7858 0.8422 22.3502 0.825684C25.7157 0.8422 29.1144 1.91577 32.7617 4.09595C35.9117 5.97884 38.4814 8.55541 40.4045 11.7266C42.4437 15.129 43.4881 18.614 43.5213 22.0824C43.5047 26.096 42.5597 29.7626 40.8024 32.686C39.0285 35.6425 36.293 38.2686 32.9109 40.2836C29.7775 42.15 26.1468 43.1575 22.3834 43.174H22.3502Z" fill="white"/>
<path d="M22.3501 1.65165C25.9642 1.66817 29.3297 3.00601 32.3305 4.80631C35.3644 6.62312 37.8678 9.13363 39.6749 12.1562C41.4819 15.1622 42.6425 18.4985 42.659 22.0991C42.6425 25.6997 41.8633 29.2673 40.0562 32.2733C38.2325 35.2958 35.4804 37.7733 32.4465 39.5901C29.4458 41.3904 25.9477 42.3484 22.3335 42.3649C18.7193 42.3484 15.2709 41.3243 12.2536 39.5405C9.21971 37.7237 6.73289 35.1141 4.90923 32.0916C3.10215 29.1021 1.97479 25.6997 1.95821 22.0991C1.97479 18.4985 3.03583 15.0631 4.84292 12.0736C6.66658 9.05105 9.18655 6.42493 12.2205 4.62462C15.2378 2.82432 18.7193 1.7012 22.3335 1.68468M22.3335 0.033033C18.6199 0.0495495 14.8399 1.15616 11.3915 3.22072C8.2084 5.12012 5.45633 7.8949 3.4503 11.2477C1.42769 14.5511 0.350075 18.3168 0.333496 22.0661C0.350075 25.7823 1.42769 29.4324 3.51662 32.9174C5.53922 36.2703 8.27472 39.045 11.4247 40.9279C14.7404 42.9099 18.5204 43.967 22.3335 44C26.2627 43.9835 30.0426 42.9429 33.3086 40.994C36.8233 38.8964 39.6417 36.1712 41.4985 33.0991C43.3388 30.0435 44.3169 26.2447 44.3335 22.0826C44.3169 18.4324 43.2227 14.8153 41.1006 11.2808C39.1112 7.99399 36.4586 5.31832 33.176 3.36937C29.4126 1.12312 25.8648 0.0165165 22.3667 0L22.3335 0.033033Z" fill="#E2E2E2"/>
<path d="M15.8016 12.8501C17.7082 11.4627 19.8966 10.5708 22.3502 10.5708C25.4505 10.5708 28.2689 11.9417 30.4075 14.0558C32.5462 16.1699 33.9554 18.9942 33.9719 22.0663C33.9719 25.1549 32.6954 28.1279 30.5733 30.242C28.4512 32.3561 25.4505 33.4462 22.3668 33.4627C19.2666 33.4627 16.3653 32.257 14.2432 30.1429C12.1212 28.0288 10.7617 25.1384 10.7451 22.0498C10.7451 20.5633 11.0767 19.1594 11.6404 17.8546" fill="url(#paint1_radial_6_2)"/>
<path d="M22.3501 34.3046C19.0177 34.2881 15.9175 33.0328 13.6462 30.7536C11.292 28.3917 9.91599 25.237 9.89941 22.0824C9.89941 20.5794 10.2144 19.0433 10.8444 17.5569C11.0268 17.1439 11.5076 16.9457 11.9386 17.1109C12.3531 17.2926 12.552 17.7716 12.3862 18.1845C11.8391 19.4728 11.5573 20.7776 11.5573 22.0659C11.5573 24.7911 12.751 27.5163 14.8067 29.5809C16.7796 31.5463 19.4654 32.6364 22.3501 32.653C25.3011 32.653 28.0863 31.5463 29.9763 29.6635C31.9657 27.6815 33.1097 24.9067 33.1262 22.0659C33.1262 19.3902 31.9326 16.7475 29.8105 14.6334C27.6884 12.5193 25.069 11.3962 22.3501 11.3797C20.2611 11.3797 18.2219 12.0899 16.2988 13.4938C15.9341 13.7581 15.4036 13.6755 15.1383 13.3121C14.873 12.9487 14.9559 12.4202 15.3207 12.156C17.5422 10.5373 19.8964 9.72803 22.3501 9.72803C25.5166 9.72803 28.5837 11.0659 30.9876 13.4608C33.4247 15.8887 34.7675 18.9442 34.7841 22.0659C34.7675 25.3527 33.4412 28.5569 31.1534 30.8361C28.9318 33.0493 25.7984 34.2881 22.3666 34.3046H22.3501Z" fill="#F0F0F0"/>
<path d="M14.3095 15.3771C12.7677 17.9041 12.8009 19.3741 15.5529 19.4567C16.3985 19.4897 17.36 19.2585 17.8242 18.9282C19.7639 17.5903 19.1837 15.5423 16.3653 15.6579C13.4474 15.7735 11.1098 19.8531 12.0051 21.9011C12.9501 24.0483 16.0171 25.9147 18.8687 24.4447C21.5213 23.0738 19.2666 19.3741 16.8958 20.745C13.9282 22.4627 16.0835 26.79 19.6479 26.5753C23.2123 26.3606 23.5107 24.6594 25.1023 21.9837C26.2794 20.0017 23.7594 16.7975 21.9855 18.0858C20.1121 19.4402 19.8966 22.5618 22.9968 22.6774C26.097 22.793 26.3789 22.1654 27.7715 20.2495C29.0646 18.4657 26.4452 14.3696 24.2899 16.0543C22.6486 17.3261 23.9584 19.6879 25.2349 19.8531C28.1694 20.2165 29.8272 18.4822 30.0096 16.0213C30.1754 13.8411 28.4015 11.5618 24.4889 11.8426C20.7752 12.1234 20.0955 16.2195 22.1513 16.1864C25.8815 16.1369 24.4391 10.7855 20.2613 11.1324C15.2877 11.5288 16.6306 17.3756 18.7361 16.0708C20.6758 14.8651 16.0006 11.0498 12.718 14.3035C10.6954 16.3186 12.1211 16.8801 11.1098 20.811C10.513 23.1234 8.83854 23.0077 8.67275 20.5303C8.58986 19.2915 10.7285 18.8125 11.4082 20.8441C12.1377 23.0408 11.8061 26.1624 13.0164 27.9132C14.9727 30.7375 18.1061 28.1279 15.6524 26.79C13.1988 25.4522 12.8506 29.0693 14.4256 31.299C15.2545 32.4882 18.1392 33.6444 22.9636 32.1744C24.5552 31.6954 20.9908 26.0468 18.8024 28.7555C16.3487 31.811 23.9086 33.7104 25.3178 31.3816C26.727 29.0528 24.8702 25.254 23.0631 27.0213C21.256 28.7885 24.3728 31.8441 27.8046 29.3996C28.7828 28.7059 29.9433 25.3366 27.8046 24.775C26.727 24.4942 25.0857 24.4777 25.5002 27.0708C25.9478 29.9282 28.2191 30.5723 31.2364 28.2435C34.2538 25.9147 35.348 23.0408 31.5514 21.0753C29.562 20.0348 24.9697 21.9507 28.5673 23.8501C32.1648 25.7495 33.3419 25.0393 35.3314 22.6774C36.3924 21.4222 36.7074 16.715 31.9162 17.0453C27.3902 17.3591 28.9651 23.5528 31.7006 22.9912" stroke="#AFE075" stroke-width="2" stroke-miterlimit="10" stroke-linecap="round"/>
<path d="M15.0388 16.8303C14.558 17.3588 14.9559 18.6306 15.3704 18.0855C15.7848 17.5405 15.8346 15.9384 15.0388 16.8303Z" stroke="#FA8E7F" stroke-miterlimit="10" stroke-linecap="round"/>
<path d="M29.8933 20.3977C29.5949 19.7371 28.252 19.6049 28.6002 20.216C28.9483 20.8271 30.3907 21.4878 29.8933 20.3977Z" stroke="#FA8E7F" stroke-miterlimit="10" stroke-linecap="round"/>
<path d="M18.9517 30.5721C19.0677 31.2823 20.3277 31.7613 20.1619 31.0841C19.9961 30.407 18.7527 29.3995 18.9517 30.5721Z" stroke="#FA8E7F" stroke-miterlimit="10" stroke-linecap="round"/>
<path d="M21.7368 21.1576C21.8529 21.8678 23.1129 22.3468 22.9471 21.6696C22.7813 20.9924 21.5379 19.9849 21.7368 21.1576Z" stroke="#FA8E7F" stroke-miterlimit="10" stroke-linecap="round"/>
<defs>
<radialGradient id="paint0_radial_6_2" cx="0" cy="0" r="1" gradientUnits="userSpaceOnUse" gradientTransform="translate(22.3337 21.9999) scale(18.1371 18.0691)">
<stop offset="0.73" stop-color="#FAFAFA"/>
<stop offset="1" stop-color="white"/>
</radialGradient>
<radialGradient id="paint1_radial_6_2" cx="0" cy="0" r="1" gradientUnits="userSpaceOnUse" gradientTransform="translate(22.3502 22.0333) scale(16.098 16.0375)">
<stop offset="0.66" stop-color="white"/>
<stop offset="1" stop-color="#FAFAFA"/>
</radialGradient>
</defs>
</svg>
