<svg width="45" height="44" viewBox="0 0 45 44" fill="none" xmlns="http://www.w3.org/2000/svg">
<g clip-path="url(#clip0_3703_11513)">
<path d="M22.3502 43.174C18.6863 43.1575 15.0556 42.1335 11.8559 40.2176C8.82198 38.4008 6.18596 35.7251 4.22967 32.4878C2.20706 29.135 1.17918 25.6335 1.1626 22.0824C1.17918 18.4653 2.22364 14.8482 4.16335 11.6275C6.10306 8.39025 8.75566 5.71457 11.8227 3.88124C15.1385 1.89926 18.7858 0.8422 22.3502 0.825684C25.7157 0.8422 29.1144 1.91577 32.7617 4.09595C35.9117 5.97884 38.4814 8.55541 40.4045 11.7266C42.4437 15.129 43.4881 18.614 43.5213 22.0824C43.5047 26.096 42.5597 29.7626 40.8024 32.686C39.0285 35.6425 36.293 38.2686 32.9109 40.2836C29.7775 42.15 26.1468 43.1575 22.3834 43.174H22.3502Z" fill="white"/>
<path d="M22.3501 1.65165C25.9642 1.66817 29.3297 3.00601 32.3305 4.80631C35.3644 6.62312 37.8678 9.13363 39.6749 12.1562C41.4819 15.1622 42.6425 18.4985 42.659 22.0991C42.6425 25.6997 41.8633 29.2673 40.0562 32.2733C38.2325 35.2958 35.4804 37.7733 32.4465 39.5901C29.4458 41.3904 25.9477 42.3484 22.3335 42.3649C18.7193 42.3484 15.2709 41.3243 12.2536 39.5405C9.21971 37.7237 6.73289 35.1141 4.90923 32.0916C3.10215 29.1021 1.97479 25.6997 1.95821 22.0991C1.97479 18.4985 3.03583 15.0631 4.84292 12.0736C6.66658 9.05105 9.18655 6.42493 12.2205 4.62462C15.2378 2.82432 18.7193 1.7012 22.3335 1.68468M22.3335 0.033033C18.6199 0.0495495 14.8399 1.15616 11.3915 3.22072C8.2084 5.12012 5.45633 7.8949 3.4503 11.2477C1.42769 14.5511 0.350075 18.3168 0.333496 22.0661C0.350075 25.7823 1.42769 29.4324 3.51662 32.9174C5.53922 36.2703 8.27472 39.045 11.4247 40.9279C14.7404 42.9099 18.5204 43.967 22.3335 44C26.2627 43.9835 30.0426 42.9429 33.3086 40.994C36.8233 38.8964 39.6417 36.1712 41.4985 33.0991C43.3388 30.0435 44.3169 26.2447 44.3335 22.0826C44.3169 18.4324 43.2227 14.8153 41.1006 11.2808C39.1112 7.99399 36.4586 5.31832 33.176 3.36937C29.4126 1.12312 25.8648 0.0165165 22.3667 0L22.3335 0.033033Z" fill="#E2E2E2"/>
<path d="M15.8016 12.8501C17.7082 11.4627 19.8966 10.5708 22.3502 10.5708C25.4505 10.5708 28.2689 11.9417 30.4075 14.0558C32.5462 16.1699 33.9554 18.9942 33.9719 22.0663C33.9719 25.1549 32.6954 28.1279 30.5733 30.242C28.4512 32.3561 25.4505 33.4462 22.3668 33.4627C19.2666 33.4627 16.3653 32.257 14.2432 30.1429C12.1212 28.0288 10.7617 25.1384 10.7451 22.0498C10.7451 20.5633 11.0767 19.1594 11.6404 17.8546" fill="white"/>
<path d="M22.3501 34.3046C19.0177 34.2881 15.9175 33.0328 13.6462 30.7536C11.292 28.3917 9.91599 25.237 9.89941 22.0824C9.89941 20.5794 10.2144 19.0433 10.8444 17.5569C11.0268 17.1439 11.5076 16.9457 11.9386 17.1109C12.3531 17.2926 12.552 17.7716 12.3862 18.1845C11.8391 19.4728 11.5573 20.7776 11.5573 22.0659C11.5573 24.7911 12.751 27.5163 14.8067 29.5809C16.7796 31.5463 19.4654 32.6364 22.3501 32.653C25.3011 32.653 28.0863 31.5463 29.9763 29.6635C31.9657 27.6815 33.1097 24.9067 33.1262 22.0659C33.1262 19.3902 31.9326 16.7475 29.8105 14.6334C27.6884 12.5193 25.069 11.3962 22.3501 11.3797C20.2611 11.3797 18.2219 12.0899 16.2988 13.4938C15.9341 13.7581 15.4036 13.6755 15.1383 13.3121C14.873 12.9487 14.9559 12.4202 15.3207 12.156C17.5422 10.5373 19.8964 9.72803 22.3501 9.72803C25.5166 9.72803 28.5837 11.0659 30.9876 13.4608C33.4247 15.8887 34.7675 18.9442 34.7841 22.0659C34.7675 25.3527 33.4412 28.5569 31.1534 30.8361C28.9318 33.0493 25.7984 34.2881 22.3666 34.3046H22.3501Z" fill="#F0F0F0"/>
</g>
<defs>
<clipPath id="clip0_3703_11513">
<rect width="44" height="44" fill="white" transform="translate(0.333496)"/>
</clipPath>
</defs>
</svg>
