<svg width="44" height="44" viewBox="0 0 44 44" fill="none" xmlns="http://www.w3.org/2000/svg">
<g clip-path="url(#clip0_4812_15533)">
<g clip-path="url(#clip1_4812_15533)">
<path d="M21.9999 3.6665C13.8966 3.6665 7.33325 10.2115 7.33325 18.2782C7.33325 25.6848 12.8333 33.0182 17.4899 38.0782C18.7549 39.4532 20.3683 40.1315 21.9999 40.1315C23.6316 40.1315 25.2266 39.4532 26.5099 38.0782C31.1666 33.0365 36.6666 25.7032 36.6666 18.2782C36.6666 10.2115 30.1033 3.6665 21.9999 3.6665ZM21.9999 12.8698C25.0433 12.8698 27.4999 15.3265 27.4999 18.3698C27.4999 21.4132 25.0433 23.8698 21.9999 23.8698C18.9566 23.8698 16.4999 21.4132 16.4999 18.3698C16.4999 15.3265 18.9566 12.8698 21.9999 12.8698Z" fill="#2563EB"/>
</g>
</g>
<defs>
<clipPath id="clip0_4812_15533">
<rect width="44" height="44" fill="white"/>
</clipPath>
<clipPath id="clip1_4812_15533">
<rect width="29.3333" height="36.465" fill="white" transform="translate(7.33325 3.6665)"/>
</clipPath>
</defs>
</svg>
