<svg xmlns="http://www.w3.org/2000/svg" width="21" height="21" viewBox="0 0 21 21" fill="none">
  <path d="M11 2C11.42 2 11.84 2.15 12.18 2.44L18.4 7.89C18.78 8.22 19 8.7 19 9.2V16.25C19 17.22 18.2 18 17.22 18H14.55V12.53C14.55 11.63 13.82 10.9 12.92 10.9H9.05998C8.15998 10.9 7.42998 11.63 7.42998 12.53V18.01H4.75998C3.77998 18.01 2.97998 17.22 2.97998 16.25V9.2C2.97998 8.7 3.19998 8.22 3.57998 7.89L9.79998 2.44C10.14 2.15 10.56 2 10.98 2M10.98 0C10.06 0 9.16998 0.33 8.47998 0.94L2.25998 6.39C1.44998 7.1 0.97998 8.13 0.97998 9.2V16.25C0.97998 18.32 2.66998 20 4.75998 20H7.41998L9.42998 20.01V12.9H12.54V20.01H14.55L17.22 20C19.3 20 20.99 18.32 20.99 16.25V9.2C20.99 8.12 20.52 7.1 19.71 6.39L13.49 0.94C12.8 0.34 11.91 0 10.99 0H10.98Z" fill="#C3C6CC"/>
</svg>