<svg width="25" height="24" viewBox="0 0 25 24" fill="currentColor" xmlns="http://www.w3.org/2000/svg">
<path d="M12.6665 4C13.0865 4 13.5065 4.15 13.8465 4.44L20.0665 9.89C20.4465 10.22 20.6665 10.7 20.6665 11.2V18.25C20.6665 19.22 19.8665 20 18.8865 20H16.2165V14.53C16.2165 13.63 15.4865 12.9 14.5865 12.9H10.7265C9.82648 12.9 9.09648 13.63 9.09648 14.53V20.01H6.42648C5.44648 20.01 4.64648 19.22 4.64648 18.25V11.2C4.64648 10.7 4.86648 10.22 5.24648 9.89L11.4665 4.44C11.8065 4.15 12.2265 4 12.6465 4M12.6465 2C11.7265 2 10.8365 2.33 10.1465 2.94L3.92648 8.39C3.11648 9.1 2.64648 10.13 2.64648 11.2V18.25C2.64648 20.32 4.33648 22 6.42648 22H9.08648L11.0965 22.01V14.9H14.2065V22.01H16.2165L18.8865 22C20.9665 22 22.6565 20.32 22.6565 18.25V11.2C22.6565 10.12 22.1865 9.1 21.3765 8.39L15.1565 2.94C14.4665 2.34 13.5765 2 12.6565 2H12.6465Z" fill="color"/>
</svg>
