<svg width="76" height="76" viewBox="0 0 76 76" fill="current" xmlns="http://www.w3.org/2000/svg">
<g filter="url(#filter0_f_4929_27296)">
<path d="M38 66C53.464 66 66 53.464 66 38C66 22.536 53.464 10 38 10C22.536 10 10 22.536 10 38C10 53.464 22.536 66 38 66Z" fill="#CAD9FA"/>
</g>
<path d="M38 61C53.464 61 66 48.464 66 33C66 17.536 53.464 5 38 5C22.536 5 10 17.536 10 33C10 48.464 22.536 61 38 61Z" fill="white" fill-opacity="0.7"/>
<path d="M52.4 45.7999V34.5999C52.4 31.9499 50.25 29.7999 47.6 29.7999C44.95 29.7999 42.8 31.9499 42.8 34.5999V45.7999H41.2V21.8199C41.2 18.1699 37.3 15.8499 34.1 17.5999L26.93 21.5199C24.87 22.6399 23.59 24.7999 23.59 27.1499V45.7999C22.71 45.7999 21.99 46.5199 21.99 47.3999C21.99 48.2799 22.71 48.9999 23.59 48.9999H52.39C53.27 48.9999 53.99 48.2799 53.99 47.3999C53.99 46.5199 53.27 45.7999 52.39 45.7999H52.4ZM31.6 39.3999C31.6 40.2799 30.88 40.9999 30 40.9999C29.12 40.9999 28.4 40.2799 28.4 39.3999V37.7999C28.4 36.9199 29.12 36.1999 30 36.1999C30.88 36.1999 31.6 36.9199 31.6 37.7999V39.3999ZM31.6 32.9999C31.6 33.8799 30.88 34.5999 30 34.5999C29.12 34.5999 28.4 33.8799 28.4 32.9999V31.3999C28.4 30.5199 29.12 29.7999 30 29.7999C30.88 29.7999 31.6 30.5199 31.6 31.3999V32.9999ZM36.4 39.3999C36.4 40.2799 35.68 40.9999 34.8 40.9999C33.92 40.9999 33.2 40.2799 33.2 39.3999V37.7999C33.2 36.9199 33.92 36.1999 34.8 36.1999C35.68 36.1999 36.4 36.9199 36.4 37.7999V39.3999ZM36.4 32.9999C36.4 33.8799 35.68 34.5999 34.8 34.5999C33.92 34.5999 33.2 33.8799 33.2 32.9999V31.3999C33.2 30.5199 33.92 29.7999 34.8 29.7999C35.68 29.7999 36.4 30.5199 36.4 31.3999V32.9999Z" fill="#2563EB"/>
<path d="M29.9999 29.7998C29.1199 29.7998 28.3999 30.5198 28.3999 31.3998V32.9998C28.3999 33.8798 29.1199 34.5998 29.9999 34.5998C30.8799 34.5998 31.5999 33.8798 31.5999 32.9998V31.3998C31.5999 30.5198 30.8799 29.7998 29.9999 29.7998Z" fill="white"/>
<path d="M34.7999 29.7998C33.9199 29.7998 33.2 30.5198 33.2 31.3998V32.9998C33.2 33.8798 33.9199 34.5998 34.7999 34.5998C35.6799 34.5998 36.4 33.8798 36.4 32.9998V31.3998C36.4 30.5198 35.6799 29.7998 34.7999 29.7998Z" fill="white"/>
<path d="M29.9999 36.2002C29.1199 36.2002 28.3999 36.9202 28.3999 37.8002V39.4002C28.3999 40.2802 29.1199 41.0002 29.9999 41.0002C30.8799 41.0002 31.5999 40.2802 31.5999 39.4002V37.8002C31.5999 36.9202 30.8799 36.2002 29.9999 36.2002Z" fill="white"/>
<path d="M34.7999 36.2002C33.9199 36.2002 33.2 36.9202 33.2 37.8002V39.4002C33.2 40.2802 33.9199 41.0002 34.7999 41.0002C35.6799 41.0002 36.4 40.2802 36.4 39.4002V37.8002C36.4 36.9202 35.6799 36.2002 34.7999 36.2002Z" fill="white"/>
<defs>
<filter id="filter0_f_4929_27296" x="0" y="0" width="76" height="76" filterUnits="userSpaceOnUse" color-interpolation-filters="sRGB">
<feFlood flood-opacity="0" result="BackgroundImageFix"/>
<feBlend mode="normal" in="SourceGraphic" in2="BackgroundImageFix" result="shape"/>
<feGaussianBlur stdDeviation="5" result="effect1_foregroundBlur_4929_27296"/>
</filter>
</defs>
</svg>
