<svg xmlns="http://www.w3.org/2000/svg" width="72" height="73" viewBox="0 0 72 73" fill="currentColor">
  <g filter="url(#filter0_f_4929_28225)">
    <path d="M36 62.6436C50.3594 62.6436 62 51.003 62 36.6436C62 22.2842 50.3594 10.6436 36 10.6436C21.6406 10.6436 10 22.2842 10 36.6436C10 51.003 21.6406 62.6436 36 62.6436Z" fill="current" fill-opacity="0.4"/>
  </g>
  <path d="M36 58.0005C50.3594 58.0005 62 46.3599 62 32.0005C62 17.6411 50.3594 6.00049 36 6.00049C21.6406 6.00049 10 17.6411 10 32.0005C10 46.3599 21.6406 58.0005 36 58.0005Z" fill="white" fill-opacity="0.7"/>
  <path d="M46.91 27.7602H44.73C44.73 27.7602 44.72 27.7602 44.71 27.7602C44.74 27.3402 44.67 26.9202 44.46 26.5402L43 23.8502C42.04 22.0902 40.21 20.9902 38.22 20.9902H33.66C31.58 20.9902 29.71 22.1502 28.78 24.0302L27.5 26.6102C27.35 26.9202 27.28 27.2602 27.28 27.6002H25.1C24.5 27.6002 24.01 28.0902 24.01 28.7002C24.01 29.3102 24.5 29.8002 25.1 29.8002H26.22C25.53 30.7202 25.1 31.8602 25.1 33.1002V35.3002C25.1 37.0302 26.11 38.5202 27.56 39.2402C27.44 39.5502 27.36 39.8902 27.36 40.2502C27.36 41.7702 28.58 43.0002 30.09 43.0002C31.6 43.0002 32.82 41.7702 32.82 40.2502C32.82 40.0602 32.8 39.8802 32.76 39.7002H39.26C39.22 39.8802 39.2 40.0602 39.2 40.2502C39.2 41.7702 40.42 43.0002 41.93 43.0002C43.44 43.0002 44.66 41.7702 44.66 40.2502C44.66 39.8902 44.59 39.5502 44.46 39.2402C45.91 38.5202 46.92 37.0402 46.92 35.3002V33.1002C46.92 31.9302 46.55 30.8502 45.93 29.9602H46.92C47.52 29.9602 48.01 29.4702 48.01 28.8602C48.01 28.2502 47.52 27.7602 46.92 27.7602H46.91ZM30.55 34.2002C29.95 34.2002 29.46 33.7102 29.46 33.1002C29.46 32.4902 29.95 32.0002 30.55 32.0002C31.15 32.0002 31.64 32.4902 31.64 33.1002C31.64 33.7102 31.15 34.2002 30.55 34.2002ZM38.25 36.4002H33.89C33.29 36.4002 32.8 35.9102 32.8 35.3002C32.8 34.6902 33.29 34.2002 33.89 34.2002H38.25C38.85 34.2002 39.34 34.6902 39.34 35.3002C39.34 35.9102 38.85 36.4002 38.25 36.4002ZM41.46 34.2002C40.86 34.2002 40.37 33.7102 40.37 33.1002C40.37 32.4902 40.86 32.0002 41.46 32.0002C42.06 32.0002 42.55 32.4902 42.55 33.1002C42.55 33.7102 42.06 34.2002 41.46 34.2002ZM41.46 27.6002H29.46L30.74 25.0202C31.29 23.9002 32.43 23.2002 33.67 23.2002H38.23C39.43 23.2002 40.53 23.8602 41.1 24.9102L42.56 27.6002H41.47H41.46Z" fill="current"/>
  <defs>
    <filter id="filter0_f_4929_28225" x="0" y="0.643555" width="72" height="72" filterUnits="userSpaceOnUse" color-interpolation-filters="sRGB">
      <feFlood flood-opacity="0" result="BackgroundImageFix"/>
      <feBlend mode="normal" in="SourceGraphic" in2="BackgroundImageFix" result="shape"/>
      <feGaussianBlur stdDeviation="5" result="effect1_foregroundBlur_4929_28225"/>
    </filter>
  </defs>
</svg>