<svg xmlns="http://www.w3.org/2000/svg" width="16" height="16" viewBox="0 0 16 16" fill="none">
  <path d="M8 1C11.86 1 15 4.14 15 8C15 11.86 11.86 15 8 15C4.14 15 1 11.86 1 8C1 4.14 4.14 1 8 1ZM8 0C3.58 0 0 3.58 0 8C0 12.42 3.58 16 8 16C12.42 16 16 12.42 16 8C16 3.58 12.42 0 8 0Z" fill="#747C84"/>
  <path d="M8 3.87988C7.59 3.87988 7.25 4.21988 7.25 4.62988C7.25 5.03988 7.59 5.37988 8 5.37988C8.41 5.37988 8.75 5.03988 8.75 4.62988C8.75 4.21988 8.41 3.87988 8 3.87988Z" fill="#747C84"/>
  <path d="M7.5 7.12988C7.78 7.12988 8 7.34988 8 7.62988V11.6299C8 11.9099 8.22 12.1299 8.5 12.1299" stroke="#747C84" stroke-linecap="round" stroke-linejoin="round"/>
</svg>