<svg xmlns="http://www.w3.org/2000/svg" width="72" height="73" viewBox="0 0 72 73" fill="currentColor">
  <g filter="url(#filter0_f_4929_27296)">
    <path d="M36 62.6436C50.3594 62.6436 62 51.003 62 36.6436C62 22.2842 50.3594 10.6436 36 10.6436C21.6406 10.6436 10 22.2842 10 36.6436C10 51.003 21.6406 62.6436 36 62.6436Z" fill="current" fill-opacity="0.4"/>
  </g>
  <path d="M36 58.0005C50.3594 58.0005 62 46.3599 62 32.0005C62 17.6411 50.3594 6.00049 36 6.00049C21.6406 6.00049 10 17.6411 10 32.0005C10 46.3599 21.6406 58.0005 36 58.0005Z" fill="white" fill-opacity="0.7"/>
  <path d="M46.811 41.6001V33.1988C46.811 31.211 45.1983 29.5983 43.2105 29.5983C41.2227 29.5983 39.6099 31.211 39.6099 33.1988V41.6001H38.4097V23.6123C38.4097 20.8744 35.4843 19.1341 33.0839 20.4468L27.7056 23.3873C26.1603 24.2274 25.2002 25.8477 25.2002 27.6104V41.6001C24.5401 41.6001 24 42.1402 24 42.8003C24 43.4604 24.5401 44.0005 25.2002 44.0005H46.8035C47.4636 44.0005 48.0037 43.4604 48.0037 42.8003C48.0037 42.1402 47.4636 41.6001 46.8035 41.6001H46.811ZM31.2086 36.7994C31.2086 37.4595 30.6685 37.9996 30.0084 37.9996C29.3483 37.9996 28.8082 37.4595 28.8082 36.7994V35.5992C28.8082 34.9391 29.3483 34.399 30.0084 34.399C30.6685 34.399 31.2086 34.9391 31.2086 35.5992V36.7994ZM31.2086 31.9986C31.2086 32.6587 30.6685 33.1988 30.0084 33.1988C29.3483 33.1988 28.8082 32.6587 28.8082 31.9986V30.7984C28.8082 30.1383 29.3483 29.5983 30.0084 29.5983C30.6685 29.5983 31.2086 30.1383 31.2086 30.7984V31.9986ZM34.8092 36.7994C34.8092 37.4595 34.2691 37.9996 33.609 37.9996C32.9489 37.9996 32.4088 37.4595 32.4088 36.7994V35.5992C32.4088 34.9391 32.9489 34.399 33.609 34.399C34.2691 34.399 34.8092 34.9391 34.8092 35.5992V36.7994ZM34.8092 31.9986C34.8092 32.6587 34.2691 33.1988 33.609 33.1988C32.9489 33.1988 32.4088 32.6587 32.4088 31.9986V30.7984C32.4088 30.1383 32.9489 29.5983 33.609 29.5983C34.2691 29.5983 34.8092 30.1383 34.8092 30.7984V31.9986Z" fill="current"/>
  <defs>
    <filter id="filter0_f_4929_27296" x="0" y="0.643555" width="72" height="72" filterUnits="userSpaceOnUse" color-interpolation-filters="sRGB">
      <feFlood flood-opacity="0" result="BackgroundImageFix"/>
      <feBlend mode="normal" in="SourceGraphic" in2="BackgroundImageFix" result="shape"/>
      <feGaussianBlur stdDeviation="5" result="effect1_foregroundBlur_4929_27296"/>
    </filter>
  </defs>
</svg>