<svg xmlns="http://www.w3.org/2000/svg" width="77" height="76" viewBox="0 0 77 76" fill="none">
  <g filter="url(#filter0_f_4929_28173)">
    <path d="M38.5996 66C54.0636 66 66.5996 53.464 66.5996 38C66.5996 22.536 54.0636 10 38.5996 10C23.1356 10 10.5996 22.536 10.5996 38C10.5996 53.464 23.1356 66 38.5996 66Z" fill="#CAD9FA"/>
  </g>
  <path d="M39 61C54.464 61 67 48.464 67 33C67 17.536 54.464 5 39 5C23.536 5 11 17.536 11 33C11 48.464 23.536 61 39 61Z" fill="white" fill-opacity="0.7"/>
  <path d="M39 17C31.82 17 26 22.72 26 29.78C26 36.4 31.08 42.95 35.27 47.37C37.34 49.55 40.66 49.55 42.73 47.37C46.92 42.95 52 36.4 52 29.78C52 22.72 46.18 17 39 17ZM39 35C36.24 35 34 32.76 34 30C34 27.24 36.24 25 39 25C41.76 25 44 27.24 44 30C44 32.76 41.76 35 39 35Z" fill="#2563EB"/>
  <path d="M39 35C41.7614 35 44 32.7614 44 30C44 27.2386 41.7614 25 39 25C36.2386 25 34 27.2386 34 30C34 32.7614 36.2386 35 39 35Z" fill="white"/>
  <defs>
    <filter id="filter0_f_4929_28173" x="0.599609" y="0" width="76" height="76" filterUnits="userSpaceOnUse" color-interpolation-filters="sRGB">
      <feFlood flood-opacity="0" result="BackgroundImageFix"/>
      <feBlend mode="normal" in="SourceGraphic" in2="BackgroundImageFix" result="shape"/>
      <feGaussianBlur stdDeviation="5" result="effect1_foregroundBlur_4929_28173"/>
    </filter>
  </defs>
</svg>