<svg width="40" height="40" viewBox="0 0 55 55" fill="none" xmlns="http://www.w3.org/2000/svg">
<g id="icon" clip-path="url(#clip0_2237_15940)">
<g id="Clip path group">
<mask id="mask0_2237_15940" style="mask-type:luminance" maskUnits="userSpaceOnUse" x="10" y="11" width="56" height="56">
<g id="clippath">
<path id="Vector" d="M52.513 62.1728C65.4817 54.2683 69.5872 37.3472 61.6827 24.3784C53.7782 11.4096 36.8571 7.30419 23.8883 15.2087C10.9195 23.1131 6.8141 40.0343 14.7186 53.0031C22.6231 65.9718 39.5442 70.0773 52.513 62.1728Z" fill="white"/>
</g>
</mask>
<g mask="url(#mask0_2237_15940)">
<g id="Group">
<path id="Vector_2" d="M52.513 62.1728C65.4817 54.2683 69.5872 37.3472 61.6827 24.3784C53.7782 11.4096 36.8571 7.30419 23.8883 15.2087C10.9195 23.1131 6.8141 40.0343 14.7186 53.0031C22.6231 65.9718 39.5442 70.0773 52.513 62.1728Z" fill="white" fill-opacity="0.7"/>
<g id="Group_2" opacity="0.2">
<path id="Vector_3" d="M24.242 50.3744C24.6347 50.9104 24.5085 51.6569 23.9725 52.0496C23.4366 52.4423 22.69 52.3161 22.2973 51.7801L21.5945 50.8078C21.2018 50.2718 21.328 49.5253 21.864 49.1326C22.3999 48.7399 23.1464 48.8661 23.5391 49.4021L24.242 50.3744Z" fill="#E7EEFF"/>
</g>
<g id="Group_3" opacity="0.2">
<path id="Vector_4" d="M24.1457 56.3476C24.5384 56.8835 24.4121 57.6301 23.8762 58.0228C23.3402 58.4155 22.5937 58.2892 22.201 57.7533L21.4982 56.7809C21.1055 56.245 21.2317 55.4984 21.7676 55.1057C22.3036 54.713 23.0501 54.8393 23.4428 55.3752L24.1457 56.3476Z" fill="#E7EEFF"/>
</g>
<g id="Group_4" opacity="0.2">
<path id="Vector_5" d="M27.0507 54.2401C27.4434 54.7761 27.3172 55.5226 26.7812 55.9153C26.2453 56.308 25.4987 56.1818 25.106 55.6459L24.4032 54.6735C24.0105 54.1376 24.1367 53.391 24.6727 52.9983C25.2086 52.6056 25.9552 52.7319 26.3479 53.2678L27.0507 54.2401Z" fill="#E7EEFF"/>
</g>
</g>
</g>
</g>
<g id="Group 1000005101">
<path id="Vector_6" d="M53.3815 49.4049L53.1181 38.3971C53.0557 35.7911 50.8914 33.7295 48.2854 33.7919C45.6794 33.8544 43.6177 36.0186 43.6802 38.6246L43.9436 49.6323L42.3738 49.6683L41.8131 26.1081C41.7284 22.5159 37.8449 20.3314 34.7384 22.1195L27.7907 26.1305C25.7953 27.281 24.5946 29.4335 24.6473 31.7429L25.0869 50.0756C24.2163 50.0932 23.5259 50.8166 23.5531 51.6814C23.5803 52.5461 24.2941 53.2424 25.1589 53.2152L42.4553 52.802L45.5949 52.7301L51.8837 52.5804L53.4535 52.5445C54.3241 52.5268 55.0145 51.8035 54.9873 50.9387C54.9601 50.0739 54.2463 49.3777 53.3815 49.4049ZM32.7958 43.6012C32.8134 44.4718 32.1326 45.1893 31.2619 45.2069C30.3913 45.2245 29.6738 44.5437 29.6562 43.6731L29.6202 42.1033C29.6026 41.2327 30.2834 40.5152 31.1541 40.4976C32.0247 40.4799 32.7422 41.1608 32.7598 42.0314L32.7958 43.6012ZM32.6461 37.3124C32.6637 38.183 31.9829 38.9006 31.1122 38.9182C30.2416 38.9358 29.5241 38.255 29.5065 37.3844L29.4705 35.8146C29.4529 34.9439 30.1337 34.2264 31.0044 34.2088C31.875 34.1912 32.5925 34.872 32.6101 35.7426L32.6461 37.3124ZM37.5147 43.4874C37.5324 44.3581 36.8515 45.0756 35.9809 45.0932C35.1103 45.1108 34.3928 44.43 34.3752 43.5594L34.3392 41.9896C34.3216 41.119 35.0024 40.4014 35.873 40.3838C36.7436 40.3662 37.4612 41.047 37.4788 41.9177L37.5147 43.4874ZM37.365 37.1987C37.3827 38.0693 36.7018 38.7868 35.8312 38.8044C34.9606 38.8221 34.2431 38.1412 34.2255 37.2706L34.1895 35.7008C34.1719 34.8302 34.8527 34.1127 35.7233 34.0951C36.5939 34.0775 37.3115 34.7583 37.3291 35.6289L37.365 37.1987Z" fill="url(#paint0_linear_2237_15940)"/>
<path id="Vector_7" d="M32.6363 37.3184C32.6539 38.189 31.9731 38.9066 31.1025 38.9242C30.2319 38.9418 29.5143 38.261 29.4967 37.3903L29.4608 35.8205C29.4431 34.9499 30.124 34.2324 30.9946 34.2148C31.8652 34.1972 32.5827 34.878 32.6003 35.7486L32.6363 37.3184Z" fill="#E7EEFF"/>
<path id="Vector_8" d="M37.3552 37.2046C37.3728 38.0753 36.692 38.7928 35.8214 38.8104C34.9507 38.828 34.2332 38.1472 34.2156 37.2766L34.1796 35.7068C34.162 34.8362 34.8428 34.1186 35.7135 34.101C36.5841 34.0834 37.3016 34.7642 37.3192 35.6349L37.3552 37.2046Z" fill="#E7EEFF"/>
<path id="Vector_9" d="M32.7858 43.607C32.8035 44.4776 32.1226 45.1951 31.252 45.2127C30.3814 45.2304 29.6639 44.5495 29.6463 43.6789L29.6103 42.1091C29.5927 41.2385 30.2735 40.521 31.1441 40.5034C32.0148 40.4858 32.7323 41.1666 32.7499 42.0372L32.7858 43.607Z" fill="#E7EEFF"/>
<path id="Vector_10" d="M37.5052 43.4932C37.5228 44.3638 36.842 45.0814 35.9714 45.099C35.1008 45.1166 34.3832 44.4358 34.3656 43.5651L34.3297 41.9954C34.312 41.1247 34.9929 40.4072 35.8635 40.3896C36.7341 40.372 37.4516 41.0528 37.4692 41.9234L37.5052 43.4932Z" fill="#E7EEFF"/>
</g>
</g>
<defs>
<linearGradient id="paint0_linear_2237_15940" x1="20.7973" y1="31.0376" x2="53.9984" y2="50.568" gradientUnits="userSpaceOnUse">
<stop stop-color="#DBF7FB"/>
<stop offset="1" stop-color="#2563EB"/>
</linearGradient>
<clipPath id="clip0_2237_15940">
<rect width="55" height="55" fill="white" transform="translate(0.40625 29.521) rotate(-31.3623)"/>
</clipPath>
</defs>
</svg>
