<svg xmlns="http://www.w3.org/2000/svg" width="76" height="76" viewBox="0 0 76 76" fill="none">
  <g filter="url(#filter0_f_4929_28225)">
    <path d="M38 66C53.464 66 66 53.464 66 38C66 22.536 53.464 10 38 10C22.536 10 10 22.536 10 38C10 53.464 22.536 66 38 66Z" fill="#CAD9FA"/>
  </g>
  <path d="M38 61C53.464 61 66 48.464 66 33C66 17.536 53.464 5 38 5C22.536 5 10 17.536 10 33C10 48.464 22.536 61 38 61Z" fill="white" fill-opacity="0.7"/>
  <path d="M52.9497 27.4102H50.0397H50.0197C50.0597 26.8602 49.9597 26.3002 49.6897 25.8002L47.7497 22.2602C46.4697 19.9402 44.0297 18.4902 41.3697 18.4902H35.2897C32.5197 18.4902 30.0197 20.0302 28.7897 22.5002L27.0897 25.9002C26.8797 26.3102 26.7997 26.7602 26.7997 27.2002C26.7997 27.2002 26.7997 27.2002 26.7897 27.2002H23.8797C23.0797 27.2002 22.4297 27.8502 22.4297 28.6502C22.4297 29.4502 23.0797 30.1002 23.8797 30.1002H25.3697C24.4497 31.3202 23.8797 32.8102 23.8797 34.4502V37.3502C23.8797 39.6402 25.2197 41.6002 27.1597 42.5402C26.9897 42.9502 26.8997 43.4002 26.8997 43.8702C26.8997 45.8702 28.5297 47.4902 30.5397 47.4902C32.5497 47.4902 34.1797 45.8602 34.1797 43.8702C34.1797 43.6202 34.1497 43.3802 34.1097 43.1402H42.7797C42.7297 43.3702 42.7097 43.6202 42.7097 43.8702C42.7097 45.8702 44.3397 47.4902 46.3497 47.4902C48.3597 47.4902 49.9897 45.8602 49.9897 43.8702C49.9897 43.4002 49.8897 42.9502 49.7297 42.5402C51.6597 41.6002 53.0097 39.6302 53.0097 37.3502V34.4502C53.0097 32.9102 52.5197 31.4802 51.6897 30.3102H53.0097C53.8097 30.3102 54.4597 29.6602 54.4597 28.8602C54.4597 28.0602 53.8097 27.4102 53.0097 27.4102H52.9497ZM31.3797 23.8102C32.1197 22.3402 33.6297 21.4102 35.2797 21.4102H41.3597C42.9497 21.4102 44.4197 22.2802 45.1897 23.6702L47.1297 27.2102H29.6797L31.3797 23.8102ZM31.2397 43.8802C31.2397 44.2802 30.9097 44.6002 30.5097 44.6002C30.1097 44.6002 29.7797 44.2802 29.7797 43.8802C29.7797 43.4802 30.1097 43.1502 30.5097 43.1502C30.9097 43.1502 31.2397 43.4702 31.2397 43.8802ZM46.2997 44.6002C45.8997 44.6002 45.5697 44.2802 45.5697 43.8802C45.5697 43.4802 45.8997 43.1502 46.2997 43.1502C46.6997 43.1502 47.0297 43.4702 47.0297 43.8802C47.0297 44.2902 46.6997 44.6002 46.2997 44.6002Z" fill="#2563EB"/>
  <path d="M31.1297 35.9C31.9305 35.9 32.5797 35.2508 32.5797 34.45C32.5797 33.6492 31.9305 33 31.1297 33C30.3289 33 29.6797 33.6492 29.6797 34.45C29.6797 35.2508 30.3289 35.9 31.1297 35.9Z" fill="white"/>
  <path d="M45.6707 35.9C46.4715 35.9 47.1207 35.2508 47.1207 34.45C47.1207 33.6492 46.4715 33 45.6707 33C44.8699 33 44.2207 33.6492 44.2207 34.45C44.2207 35.2508 44.8699 35.9 45.6707 35.9Z" fill="white"/>
  <path d="M41.3891 35.9004H35.5691C34.7691 35.9004 34.1191 36.5504 34.1191 37.3504C34.1191 38.1504 34.7691 38.8004 35.5691 38.8004H41.3891C42.1891 38.8004 42.8391 38.1504 42.8391 37.3504C42.8391 36.5504 42.1891 35.9004 41.3891 35.9004Z" fill="white"/>
  <defs>
    <filter id="filter0_f_4929_28225" x="0" y="0" width="76" height="76" filterUnits="userSpaceOnUse" color-interpolation-filters="sRGB">
      <feFlood flood-opacity="0" result="BackgroundImageFix"/>
      <feBlend mode="normal" in="SourceGraphic" in2="BackgroundImageFix" result="shape"/>
      <feGaussianBlur stdDeviation="5" result="effect1_foregroundBlur_4929_28225"/>
    </filter>
  </defs>
</svg>