<svg width="24" height="24" viewBox="0 0 24 24" fill="currentColor" xmlns="http://www.w3.org/2000/svg">
<g clip-path="url(#clip0_586_10697)">
<path d="M12 3.47998C15.52 3.47998 18.38 6.37998 18.38 9.94998C18.38 11.73 16.49 15.35 13.21 19.87C12.93 20.26 12.49 20.48 12 20.48C11.51 20.48 11.08 20.26 10.79 19.87C7.5 15.35 5.62 11.74 5.62 9.94998C5.62 6.37998 8.48 3.47998 12 3.47998ZM12 1.97998C7.65 1.97998 4.12 5.54998 4.12 9.94998C4.12 12.73 7.26 17.56 9.58 20.75C10.18 21.57 11.09 21.98 12 21.98C12.91 21.98 13.82 21.57 14.42 20.75C16.74 17.57 19.88 12.73 19.88 9.94998C19.88 5.54998 16.35 1.97998 12 1.97998Z" fill="current"/>
<path d="M12 8.5C12.83 8.5 13.5 9.17 13.5 10C13.5 10.83 12.83 11.5 12 11.5C11.17 11.5 10.5 10.83 10.5 10C10.5 9.17 11.17 8.5 12 8.5ZM12 7C10.34 7 9 8.34 9 10C9 11.66 10.34 13 12 13C13.66 13 15 11.66 15 10C15 8.34 13.66 7 12 7Z" fill="current"/>
</g>
<defs>
<clipPath id="clip0_586_10697">
<rect width="24" height="24" fill="white"/>
</clipPath>
</defs>
</svg>
