<svg width="24" height="24" viewBox="0 0 24 24" fill="none" xmlns="http://www.w3.org/2000/svg">
<g clip-path="url(#clip0_4233_34626)">
<path d="M12.9 10H11.1C11.1 10 10.84 11.49 10.8 11.8C10.72 12.46 11.34 13 12 13C12.66 13 13.28 12.46 13.2 11.8C13.16 11.49 12.9 10 12.9 10Z" fill="#4A5662"/>
<path d="M20.8299 13.41C21.9099 12.29 22.2799 10.67 21.7799 9.19001C21.2799 7.72001 20.0299 6.65001 18.4999 6.42001L16.6099 6.13001C16.6099 6.13001 16.5299 6.09001 16.5099 6.05001L15.7399 4.40001C15.0499 2.92001 13.6199 2.01001 11.9999 2.01001C10.3799 2.01001 8.93986 2.93001 8.25986 4.40001L7.48986 6.05001C7.48986 6.05001 7.42986 6.12001 7.38986 6.13001L5.49986 6.42001C3.96986 6.66001 2.70986 7.72001 2.21986 9.19001C1.71986 10.67 2.07986 12.29 3.16986 13.41L4.66986 14.96C4.66986 14.96 4.71986 15.05 4.70986 15.1L4.36986 17.17C4.16986 18.38 4.50986 19.6 5.29986 20.53C6.08986 21.46 7.23986 21.99 8.44986 21.99C9.13986 21.99 9.83986 21.81 10.4499 21.46L11.9399 20.63C11.9399 20.63 11.9799 20.62 11.9999 20.62C12.0199 20.62 12.0399 20.62 12.0599 20.63L13.5499 21.46C14.1699 21.8 14.8599 21.99 15.5499 21.99C16.7599 21.99 17.8999 21.46 18.6999 20.53C19.4899 19.61 19.8299 18.38 19.6299 17.17L19.2899 15.1C19.2899 15.05 19.2899 15 19.3299 14.96L20.8299 13.41ZM13.9999 16C14.5499 16 14.9999 16.45 14.9999 17C14.9999 17.55 14.5499 18 13.9999 18H9.99986C9.44986 18 8.99986 17.55 8.99986 17C8.99986 16.45 9.44986 16 9.99986 16H10.9999V14.82C10.4499 14.64 9.94986 14.34 9.55986 13.9C8.98986 13.25 8.71986 12.4 8.81986 11.55C8.85986 11.22 9.06986 10.01 9.13986 9.65001L9.42986 8.00001H14.5899L14.8799 9.65001C14.9399 10.01 15.1499 11.22 15.1999 11.55C15.2999 12.39 15.0299 13.25 14.4599 13.9C14.0699 14.34 13.5699 14.65 13.0199 14.82V16H14.0199H13.9999Z" fill="#4A5662"/>
</g>
<defs>
<clipPath id="clip0_4233_34626">
<rect width="24" height="24" fill="white"/>
</clipPath>
</defs>
</svg>
