<svg width="24" height="24" viewBox="0 0 24 24" fill="none" xmlns="http://www.w3.org/2000/svg">
<g clip-path="url(#clip0_4233_31478)">
<path d="M20.25 4.5H6C4.75736 4.5 3.75 5.50736 3.75 6.75V19.5C3.75 20.7426 4.75736 21.75 6 21.75H20.25C21.4926 21.75 22.5 20.7426 22.5 19.5V6.75C22.5 5.50736 21.4926 4.5 20.25 4.5Z" fill="#F9D3E3"/>
<path d="M20.625 18.375V19.875C20.625 21.12 19.62 22.125 18.375 22.125H4.875C3.93 22.125 3.1125 21.54 2.7825 20.7075C2.6775 20.4525 2.625 19.875 2.625 19.875C2.8575 18.7725 3.0225 19.1175 3.0225 19.1175" fill="#F9D3E3"/>
<path d="M15.8549 3.5625H18.2474C19.4924 3.5625 20.4974 4.5675 20.4974 5.8125V14.535C20.4974 14.7225 20.4749 14.9025 20.4299 15.0825L19.7999 17.61C19.5524 18.615 18.6524 19.3125 17.6174 19.3125H4.25244C2.78994 19.3125 1.71744 17.94 2.06994 16.515L2.42994 15.0825C2.47494 14.9025 2.49744 14.7225 2.49744 14.535V5.8125C2.49744 4.5675 3.50244 3.5625 4.74744 3.5625H5.24994" fill="white"/>
<path d="M15.8549 3.5625H18.2474C19.4924 3.5625 20.4974 4.5675 20.4974 5.8125V14.535C20.4974 14.7225 20.4749 14.9025 20.4299 15.0825L19.7999 17.61C19.5524 18.615 18.6524 19.3125 17.6174 19.3125H4.25244C2.78994 19.3125 1.71744 17.94 2.06994 16.515L2.42994 15.0825C2.47494 14.9025 2.49744 14.7225 2.49744 14.535V5.8125C2.49744 4.5675 3.50244 3.5625 4.74744 3.5625H5.24994" stroke="black" stroke-width="1.5" stroke-miterlimit="10" stroke-linecap="round"/>
<path d="M6.75 9.75C7.16421 9.75 7.5 9.41421 7.5 9C7.5 8.58579 7.16421 8.25 6.75 8.25C6.33579 8.25 6 8.58579 6 9C6 9.41421 6.33579 9.75 6.75 9.75Z" fill="#F9D3E3"/>
<path d="M11.25 9.75C11.6642 9.75 12 9.41421 12 9C12 8.58579 11.6642 8.25 11.25 8.25C10.8358 8.25 10.5 8.58579 10.5 9C10.5 9.41421 10.8358 9.75 11.25 9.75Z" fill="#F9D3E3"/>
<path d="M15.75 9.75C16.1642 9.75 16.5 9.41421 16.5 9C16.5 8.58579 16.1642 8.25 15.75 8.25C15.3358 8.25 15 8.58579 15 9C15 9.41421 15.3358 9.75 15.75 9.75Z" fill="#F9D3E3"/>
<path d="M6.75 12.75C7.16421 12.75 7.5 12.4142 7.5 12C7.5 11.5858 7.16421 11.25 6.75 11.25C6.33579 11.25 6 11.5858 6 12C6 12.4142 6.33579 12.75 6.75 12.75Z" fill="#F9D3E3"/>
<path d="M11.25 12.75C11.6642 12.75 12 12.4142 12 12C12 11.5858 11.6642 11.25 11.25 11.25C10.8358 11.25 10.5 11.5858 10.5 12C10.5 12.4142 10.8358 12.75 11.25 12.75Z" fill="#F9D3E3"/>
<path d="M15.75 12.75C16.1642 12.75 16.5 12.4142 16.5 12C16.5 11.5858 16.1642 11.25 15.75 11.25C15.3358 11.25 15 11.5858 15 12C15 12.4142 15.3358 12.75 15.75 12.75Z" fill="#F92887"/>
<path d="M6.75 15.75C7.16421 15.75 7.5 15.4142 7.5 15C7.5 14.5858 7.16421 14.25 6.75 14.25C6.33579 14.25 6 14.5858 6 15C6 15.4142 6.33579 15.75 6.75 15.75Z" fill="#F9D3E3"/>
<path d="M11.25 15.75C11.6642 15.75 12 15.4142 12 15C12 14.5858 11.6642 14.25 11.25 14.25C10.8358 14.25 10.5 14.5858 10.5 15C10.5 15.4142 10.8358 15.75 11.25 15.75Z" fill="#F9D3E3"/>
<path d="M15.75 15.75C16.1642 15.75 16.5 15.4142 16.5 15C16.5 14.5858 16.1642 14.25 15.75 14.25C15.3358 14.25 15 14.5858 15 15C15 15.4142 15.3358 15.75 15.75 15.75Z" fill="#F9D3E3"/>
<path d="M20.4975 19.3721V19.6871C20.4975 20.9321 19.4925 21.9371 18.2475 21.9371H4.74754C3.74254 21.9371 2.88754 21.2771 2.60254 20.3621" stroke="black" stroke-width="1.5" stroke-miterlimit="10" stroke-linecap="round"/>
<path d="M14.8724 5.8125C14.3174 5.8125 13.8749 4.9725 13.8749 3.9375C13.8749 2.9025 14.3249 2.0625 14.8724 2.0625C15.3524 2.0625 15.7574 2.7075 15.8549 3.5625H18.2474C19.4924 3.5625 20.4974 4.5675 20.4974 5.8125V14.535C20.4974 14.7225 20.4749 14.9025 20.4299 15.0825L19.7999 17.61C19.5524 18.615 18.6524 19.3125 17.6174 19.3125H4.25244C2.78994 19.3125 1.71744 17.94 2.06994 16.515L2.42994 15.0825C2.47494 14.9025 2.49744 14.7225 2.49744 14.535V5.8125C2.49744 4.5675 3.50244 3.5625 4.74744 3.5625H5.24994" stroke="black" stroke-width="1.5" stroke-miterlimit="10" stroke-linecap="round"/>
<path d="M8.1225 5.8125C7.5675 5.8125 7.125 4.9725 7.125 3.9375C7.125 2.9025 7.575 2.0625 8.1225 2.0625C8.6025 2.0625 9.0075 2.7075 9.105 3.5625H12" stroke="black" stroke-width="1.5" stroke-miterlimit="10" stroke-linecap="round"/>
</g>
<defs>
<clipPath id="clip0_4233_31478">
<rect width="24" height="24" fill="white"/>
</clipPath>
</defs>
</svg>
