<svg xmlns="http://www.w3.org/2000/svg" width="20" height="20" viewBox="0 0 20 20" fill="none">
  <path d="M10 9C12.2091 9 14 7.20914 14 5C14 2.79086 12.2091 1 10 1C7.79086 1 6 2.79086 6 5C6 7.20914 7.79086 9 10 9Z" fill="#4A5662"/>
  <path d="M10 2C11.66 2 13 3.34 13 5C13 6.66 11.66 8 10 8C8.34 8 7 6.66 7 5C7 3.34 8.34 2 10 2ZM10 0C7.24 0 5 2.24 5 5C5 7.76 7.24 10 10 10C12.76 10 15 7.76 15 5C15 2.24 12.76 0 10 0Z" fill="#4A5662"/>
  <path d="M3.67031 19C2.78031 19 1.95031 18.57 1.45031 17.84C0.970308 17.14 0.870308 16.26 1.17031 15.48C2.43031 12.2 5.98031 10 10.0003 10C14.0203 10 17.5703 12.2 18.8303 15.48C19.1303 16.26 19.0203 17.14 18.5503 17.84C18.0503 18.57 17.2203 19 16.3303 19H3.67031Z" fill="#4A5662"/>
  <path d="M10.0001 11C13.6901 11 16.8201 13.03 17.9001 15.84C18.3001 16.89 17.4801 18 16.3301 18H3.67008C2.52008 18 1.70008 16.88 2.10008 15.84C3.18008 13.03 6.31008 11 10.0001 11ZM10.0001 9C5.57008 9 1.65008 11.46 0.240079 15.12C-0.179921 16.21 -0.0299206 17.44 0.630079 18.41C1.32008 19.41 2.45008 20 3.67008 20H16.3301C17.5501 20 18.6801 19.4 19.3701 18.41C20.0401 17.44 20.1801 16.21 19.7601 15.12C18.3501 11.46 14.4301 9 10.0001 9Z" fill="#4A5662"/>
</svg>