<svg width="83" height="82" viewBox="0 0 83 82" fill="none" xmlns="http://www.w3.org/2000/svg">
<rect x="0.5" width="82" height="82" rx="41" fill="#FFA6C1"/>
<path d="M13.7588 32.9659L62.0551 20.025L61.5375 18.0931L13.2412 31.0341L13.7588 32.9659ZM69.8197 49.0027L21.5234 61.9437L22.041 63.8756L70.3373 50.9346L69.8197 49.0027Z" fill="#FFEFFD" mask="url(#path-3-inside-1_5175_11307)"/>
<path d="M17.2881 40.7819L20.948 54.4407L18.4765 55.1029L15.4587 43.84L15.3832 43.8602L12.7408 46.752L12.1393 44.507L14.9299 41.4137L17.2881 40.7819ZM29.356 52.3899C26.0734 53.2695 23.4289 51.2484 22.2309 46.7772C21.0379 42.3249 22.3124 39.2334 25.5951 38.3538C28.8588 37.4793 31.5272 39.5142 32.7202 43.9666C33.9183 48.4377 32.6387 51.5103 29.356 52.3899ZM28.805 50.3336C30.5218 49.8735 31.1284 47.9114 30.2488 44.6288C29.3743 41.365 27.8389 39.9364 26.141 40.3913C24.4431 40.8463 23.8278 42.8512 24.7023 46.115C25.5819 49.3976 27.0882 50.7936 28.805 50.3336ZM41.6942 49.0839C38.4116 49.9635 35.7671 47.9423 34.5691 43.4712C33.3761 39.0189 34.6506 35.9274 37.9333 35.0478C41.197 34.1733 43.8654 36.2082 45.0584 40.6606C46.2565 45.1317 44.9769 48.2043 41.6942 49.0839ZM41.1432 47.0275C42.86 46.5675 43.4666 44.6054 42.587 41.3228C41.7125 38.059 40.1771 36.6303 38.4792 37.0853C36.7813 37.5403 36.1659 39.5452 37.0405 42.809C37.9201 46.0916 39.4264 47.4876 41.1432 47.0275ZM54.0324 45.7779C50.7498 46.6575 48.1053 44.6363 46.9073 40.1652C45.7143 35.7128 46.9888 32.6214 50.2714 31.7418C53.5352 30.8673 56.2036 32.9022 57.3966 37.3545C58.5947 41.8257 57.3151 44.8983 54.0324 45.7779ZM53.4814 43.7215C55.1982 43.2615 55.8048 41.2994 54.9252 38.0168C54.0507 34.753 52.5153 33.3243 50.8174 33.7793C49.1195 34.2343 48.5041 36.2392 49.3787 39.5029C50.2582 42.7856 51.7646 44.1815 53.4814 43.7215ZM61.415 43.5976L57.7551 29.9388L62.8866 28.5638C66.0183 27.7246 68.2079 29.1802 68.9106 31.8025C69.6132 34.4249 68.4208 36.7664 65.2702 37.6106L62.629 38.3183L63.8675 42.9404L61.415 43.5976ZM62.0881 36.2997L64.3897 35.6829C66.2386 35.1875 66.7907 33.9275 66.4014 32.4748C66.0071 31.0033 64.9091 30.2259 63.0603 30.7212L60.7586 31.338L62.0881 36.2997Z" fill="#FFEFFD"/>
<rect x="4.5" y="4" width="74" height="74" rx="37" stroke="#FFEFFD" stroke-width="1.5"/>
</svg>
