<svg width="82" height="82" viewBox="0 0 82 82" fill="none" xmlns="http://www.w3.org/2000/svg">
<rect width="82" height="82" rx="41" fill="#FFB800"/>
<path d="M13.2588 32.9659L61.5551 20.025L61.0375 18.0931L12.7412 31.0341L13.2588 32.9659ZM69.3197 49.0027L21.0234 61.9437L21.541 63.8756L69.8373 50.9346L69.3197 49.0027Z" fill="#FFFAE2" mask="url(#path-3-inside-1_5175_12740)"/>
<path d="M25.0948 52.7375C22.3592 53.4705 19.9247 52.3839 19.2427 50.1402L21.6386 49.4982C22.0123 50.5911 23.2623 51.1054 24.564 50.7566C26.0921 50.3471 26.8881 48.9409 26.4837 47.4316C26.0641 45.8657 24.6339 45.056 23.0681 45.4755C22.0065 45.7398 21.3341 46.3243 21.1176 47.2518L18.8348 47.8635L17.5924 39.9061L25.6669 37.7425L26.2179 39.7989L20.162 41.4216L20.7175 45.155L20.8496 45.1196C21.216 44.3744 22.0997 43.6726 23.2127 43.3743C25.7596 42.6919 28.1379 44.0969 28.8405 46.7192C29.5735 49.4547 28.0378 51.9489 25.0948 52.7375ZM37.2066 49.4921C33.9239 50.3717 31.2795 48.3506 30.0814 43.8794C28.8884 39.4271 30.163 36.3356 33.4456 35.456C36.7094 34.5815 39.3778 36.6165 40.5708 41.0688C41.7688 45.54 40.4892 48.6126 37.2066 49.4921ZM36.6556 47.4358C38.3724 46.9758 38.9789 45.0136 38.0994 41.731C37.2248 38.4672 35.6895 37.0386 33.9916 37.4935C32.2936 37.9485 31.6783 39.9534 32.5528 43.2172C33.4324 46.4998 34.9388 47.8958 36.6556 47.4358ZM49.5448 46.1861C46.2621 47.0657 43.6177 45.0446 42.4196 40.5734C41.2266 36.1211 42.5012 33.0296 45.7838 32.15C49.0476 31.2755 51.716 33.3105 52.909 37.7628C54.107 42.234 52.8274 45.3066 49.5448 46.1861ZM48.9938 44.1298C50.7106 43.6698 51.3171 41.7076 50.4376 38.425C49.563 35.1612 48.0277 33.7326 46.3298 34.1875C44.6318 34.6425 44.0165 36.6474 44.891 39.9112C45.7706 43.1938 47.277 44.5898 48.9938 44.1298ZM56.9273 44.0058L53.2675 30.347L58.3989 28.972C61.5307 28.1329 63.7203 29.5884 64.4229 32.2108C65.1256 34.8331 63.9332 37.1746 60.7826 38.0188L58.1414 38.7265L59.3799 43.3486L56.9273 44.0058ZM57.6005 36.7079L59.9021 36.0912C61.751 35.5958 62.303 34.3357 61.9138 32.8831C61.5195 31.4115 60.4215 30.6341 58.5726 31.1295L56.271 31.7462L57.6005 36.7079Z" fill="#FFFAE2"/>
<rect x="4" y="4" width="74" height="74" rx="37" stroke="#FFFAE2" stroke-width="1.5"/>
</svg>
