<svg width="82" height="82" viewBox="0 0 82 82" fill="none" xmlns="http://www.w3.org/2000/svg">
<rect width="82" height="82" rx="41" fill="#FFF09F"/>
<path d="M15.2588 33.9659L59.6914 22.0602L59.1738 20.1284L14.7412 32.0341L15.2588 33.9659ZM66.9383 49.1062L22.5058 61.0118L23.0234 62.9437L67.456 51.038L66.9383 49.1062Z" fill="#FFC700" mask="url(#path-3-inside-1_5175_13404)"/>
<path d="M29.0522 36.7111L32.7121 50.3699L30.2407 51.0321L27.2228 39.7693L27.1473 39.7895L24.505 42.6813L23.9034 40.4363L26.694 37.343L29.0522 36.7111ZM41.1201 48.3192C37.8375 49.1987 35.193 47.1776 33.995 42.7064C32.802 38.2541 34.0765 35.1626 37.3592 34.283C40.623 33.4085 43.2913 35.4435 44.4843 39.8958C45.6824 44.367 44.4028 47.4396 41.1201 48.3192ZM40.5691 46.2628C42.2859 45.8028 42.8925 43.8406 42.0129 40.558C41.1384 37.2942 39.603 35.8656 37.9051 36.3205C36.2072 36.7755 35.5919 38.7804 36.4664 42.0442C37.346 45.3268 38.8524 46.7228 40.5691 46.2628ZM48.5027 46.1388L44.8428 32.48L49.9743 31.105C53.106 30.2659 55.2956 31.7214 55.9983 34.3438C56.7009 36.9661 55.5085 39.3076 52.358 40.1518L49.7168 40.8595L50.9552 45.4816L48.5027 46.1388ZM49.1759 38.8409L51.4775 38.2242C53.3263 37.7288 53.8784 36.4688 53.4891 35.0161C53.0949 33.5446 51.9968 32.7671 50.148 33.2625L47.8464 33.8792L49.1759 38.8409Z" fill="#FA9600"/>
<rect x="4.75" y="4.75" width="72.5" height="72.5" rx="36.25" stroke="#FFBF5F" stroke-width="1.5"/>
</svg>
