<svg width="182" height="118" viewBox="0 0 182 118" fill="none" xmlns="http://www.w3.org/2000/svg">
<g clip-path="url(#clip0_5045_16280)">
<g filter="url(#filter0_d_5045_16280)">
<rect x="0.5" width="181" height="84" rx="42" fill="white"/>
<rect x="1.5" y="1" width="179" height="82" rx="41" stroke="url(#paint1_linear_5045_16280)" stroke-width="2"/>
</g>
<path d="M94.1 104.356L99.74 104.356L99.74 106.696L98.36 106.696L98.36 108.346L96.98 108.346L96.98 110.056L95.6 110.056L95.6 111.826L94.22 111.826L94.22 113.506L92.69 113.506L92.69 115.006L90.08 115.006L90.08 113.506L88.52 113.506L88.52 111.826L87.14 111.826L87.14 110.056L85.76 110.056L85.76 108.346L84.38 108.346L84.38 106.696L83 106.696L83 104.356L88.67 104.356L88.67 94.3659L89.84 94.3659L89.84 93.0459L92.96 93.0459L92.96 94.3659L94.1 94.3659L94.1 104.356Z" fill="white"/>
<path d="M94.1 104.356L92.1 104.356L92.1 106.356L94.1 106.356L94.1 104.356ZM99.74 104.356L101.74 104.356L101.74 102.356L99.74 102.356L99.74 104.356ZM99.74 106.696L99.74 108.696L101.74 108.696L101.74 106.696L99.74 106.696ZM98.36 106.696L98.36 104.696L96.36 104.696L96.36 106.696L98.36 106.696ZM98.36 108.346L98.36 110.346L100.36 110.346L100.36 108.346L98.36 108.346ZM96.98 108.346L96.98 106.346L94.98 106.346L94.98 108.346L96.98 108.346ZM96.98 110.056L96.98 112.056L98.98 112.056L98.98 110.056L96.98 110.056ZM95.6 110.056L95.6 108.056L93.6 108.056L93.6 110.056L95.6 110.056ZM95.6 111.826L95.6 113.826L97.6 113.826L97.6 111.826L95.6 111.826ZM94.22 111.826L94.22 109.826L92.22 109.826L92.22 111.826L94.22 111.826ZM94.22 113.506L94.22 115.506L96.22 115.506L96.22 113.506L94.22 113.506ZM92.69 113.506L92.69 111.506L90.69 111.506L90.69 113.506L92.69 113.506ZM92.69 115.006L92.69 117.006L94.69 117.006L94.69 115.006L92.69 115.006ZM90.08 115.006L88.08 115.006L88.08 117.006L90.08 117.006L90.08 115.006ZM90.08 113.506L92.08 113.506L92.08 111.506L90.08 111.506L90.08 113.506ZM88.52 113.506L86.52 113.506L86.52 115.506L88.52 115.506L88.52 113.506ZM88.52 111.826L90.52 111.826L90.52 109.826L88.52 109.826L88.52 111.826ZM87.14 111.826L85.14 111.826L85.14 113.826L87.14 113.826L87.14 111.826ZM87.14 110.056L89.14 110.056L89.14 108.056L87.14 108.056L87.14 110.056ZM85.76 110.056L83.76 110.056L83.76 112.056L85.76 112.056L85.76 110.056ZM85.76 108.346L87.76 108.346L87.76 106.346L85.76 106.346L85.76 108.346ZM84.38 108.346L82.38 108.346L82.38 110.346L84.38 110.346L84.38 108.346ZM84.38 106.696L86.38 106.696L86.38 104.696L84.38 104.696L84.38 106.696ZM83 106.696L81 106.696L81 108.696L83 108.696L83 106.696ZM83 104.356L83 102.356L81 102.356L81 104.356L83 104.356ZM88.67 104.356L88.67 106.356L90.67 106.356L90.67 104.356L88.67 104.356ZM88.67 94.3659L88.67 92.3659L86.67 92.3659L86.67 94.3659L88.67 94.3659ZM89.84 94.3659L89.84 96.3659L91.84 96.3659L91.84 94.3659L89.84 94.3659ZM89.84 93.0459L89.84 91.0459L87.84 91.0459L87.84 93.0459L89.84 93.0459ZM92.96 93.0459L94.96 93.0459L94.96 91.0459L92.96 91.0459L92.96 93.0459ZM92.96 94.3659L90.96 94.3659L90.96 96.3659L92.96 96.3659L92.96 94.3659ZM94.1 94.3659L96.1 94.3659L96.1 92.3659L94.1 92.3659L94.1 94.3659ZM94.1 106.356L99.74 106.356L99.74 102.356L94.1 102.356L94.1 106.356ZM97.74 104.356L97.74 106.696L101.74 106.696L101.74 104.356L97.74 104.356ZM99.74 104.696L98.36 104.696L98.36 108.696L99.74 108.696L99.74 104.696ZM96.36 106.696L96.36 108.346L100.36 108.346L100.36 106.696L96.36 106.696ZM98.36 106.346L96.98 106.346L96.98 110.346L98.36 110.346L98.36 106.346ZM94.98 108.346L94.98 110.056L98.98 110.056L98.98 108.346L94.98 108.346ZM96.98 108.056L95.6 108.056L95.6 112.056L96.98 112.056L96.98 108.056ZM93.6 110.056L93.6 111.826L97.6 111.826L97.6 110.056L93.6 110.056ZM95.6 109.826L94.22 109.826L94.22 113.826L95.6 113.826L95.6 109.826ZM92.22 111.826L92.22 113.506L96.22 113.506L96.22 111.826L92.22 111.826ZM94.22 111.506L92.69 111.506L92.69 115.506L94.22 115.506L94.22 111.506ZM90.69 113.506L90.69 115.006L94.69 115.006L94.69 113.506L90.69 113.506ZM92.69 113.006L90.08 113.006L90.08 117.006L92.69 117.006L92.69 113.006ZM92.08 115.006L92.08 113.506L88.08 113.506L88.08 115.006L92.08 115.006ZM90.08 111.506L88.52 111.506L88.52 115.506L90.08 115.506L90.08 111.506ZM90.52 113.506L90.52 111.826L86.52 111.826L86.52 113.506L90.52 113.506ZM88.52 109.826L87.14 109.826L87.14 113.826L88.52 113.826L88.52 109.826ZM89.14 111.826L89.14 110.056L85.14 110.056L85.14 111.826L89.14 111.826ZM87.14 108.056L85.76 108.056L85.76 112.056L87.14 112.056L87.14 108.056ZM87.76 110.056L87.76 108.346L83.76 108.346L83.76 110.056L87.76 110.056ZM85.76 106.346L84.38 106.346L84.38 110.346L85.76 110.346L85.76 106.346ZM86.38 108.346L86.38 106.696L82.38 106.696L82.38 108.346L86.38 108.346ZM84.38 104.696L83 104.696L83 108.696L84.38 108.696L84.38 104.696ZM85 106.696L85 104.356L81 104.356L81 106.696L85 106.696ZM83 106.356L88.67 106.356L88.67 102.356L83 102.356L83 106.356ZM90.67 104.356L90.67 94.3659L86.67 94.3659L86.67 104.356L90.67 104.356ZM88.67 96.3659L89.84 96.3659L89.84 92.3659L88.67 92.3659L88.67 96.3659ZM91.84 94.3659L91.84 93.0459L87.84 93.0459L87.84 94.3659L91.84 94.3659ZM89.84 95.0459L92.96 95.0459L92.96 91.0459L89.84 91.0459L89.84 95.0459ZM90.96 93.0459L90.96 94.3659L94.96 94.3659L94.96 93.0459L90.96 93.0459ZM92.96 96.3659L94.1 96.3659L94.1 92.3659L92.96 92.3659L92.96 96.3659ZM92.1 94.3659L92.1 104.356L96.1 104.356L96.1 94.3659L92.1 94.3659Z" fill="url(#paint2_linear_5045_16280)"/>
</g>
<defs>
<filter id="filter0_d_5045_16280" x="-9.5" y="-8" width="201" height="104" filterUnits="userSpaceOnUse" color-interpolation-filters="sRGB">
<feFlood flood-opacity="0" result="BackgroundImageFix"/>
<feColorMatrix in="SourceAlpha" type="matrix" values="0 0 0 0 0 0 0 0 0 0 0 0 0 0 0 0 0 0 127 0" result="hardAlpha"/>
<feOffset dy="2"/>
<feGaussianBlur stdDeviation="5"/>
<feComposite in2="hardAlpha" operator="out"/>
<feColorMatrix type="matrix" values="0 0 0 0 0 0 0 0 0 0 0 0 0 0 0 0 0 0 0.1 0"/>
<feBlend mode="normal" in2="BackgroundImageFix" result="effect1_dropShadow_5045_16280"/>
<feBlend mode="normal" in="SourceGraphic" in2="effect1_dropShadow_5045_16280" result="shape"/>
</filter>
<linearGradient id="paint0_linear_5045_16280" x1="26.3575" y1="12" x2="149.534" y2="86.1113" gradientUnits="userSpaceOnUse">
<stop stop-color="#FFAC6F"/>
<stop offset="0.516428" stop-color="#FF9141"/>
<stop offset="0.878472" stop-color="#FF6B6B"/>
<stop offset="1" stop-color="#FF9AB3"/>
</linearGradient>
<linearGradient id="paint1_linear_5045_16280" x1="3.02793" y1="-6.27724e-07" x2="56.2291" y2="137.651" gradientUnits="userSpaceOnUse">
<stop stop-color="#FFAC6F"/>
<stop offset="0.516428" stop-color="#FF9141"/>
<stop offset="0.878472" stop-color="#FF6B6B"/>
<stop offset="1" stop-color="#FF9AB3"/>
</linearGradient>
<linearGradient id="paint2_linear_5045_16280" x1="103" y1="92.3352" x2="76.3085" y2="114.564" gradientUnits="userSpaceOnUse">
<stop stop-color="#FFAC6F"/>
<stop offset="0.516428" stop-color="#FF9141"/>
<stop offset="0.878472" stop-color="#FF6B6B"/>
<stop offset="1" stop-color="#FF9AB3"/>
</linearGradient>
<clipPath id="clip0_5045_16280">
<rect width="181" height="118" fill="white" transform="translate(0.5)"/>
</clipPath>
</defs>
</svg>
