<svg xmlns="http://www.w3.org/2000/svg" width="20" height="24" viewBox="0 0 20 24" fill="none">
  <path d="M7.7698 23V21.58H6.2898V19.98H4.9798V18.3H3.6698V16.68H2.3598V15.11H1.0498V10.89H6.4398V2.25H7.5498V1H12.5098V2.25H13.5898V10.89H18.9498V15.11H17.6398V16.68H16.3298V18.3H15.0198V19.98H13.7098V21.58H12.2498V23H7.7698Z" fill="white"/>
  <path d="M11.5098 2V3.25H12.5898V11.88H17.9498V14.1H16.6398V15.67H15.3298V17.29H14.0198V18.97H12.7098V20.56H11.2598V21.98H8.7798V20.56H7.2998V18.97H5.9898V17.29H4.6798V15.67H3.3698V14.1H2.0598V11.88H7.4498V3.25H8.5598V2H11.5198M13.5198 0H6.5598V1.25H5.4498V9.88H0.0498047V16.1H1.3598V17.67H2.6698V19.29H3.9798V20.97H5.2898V22.56H6.7698V23.98H13.2498V22.56H14.6998V20.97H16.0098V19.29H17.3198V17.67H18.6298V16.1H19.9398V9.88H14.5798V1.25H13.4998V0H13.5198Z" fill="url(#paint0_linear_5310_28321)"/>
  <defs>
    <linearGradient id="paint0_linear_5310_28321" x1="0.327598" y1="-1.792e-07" x2="22.9104" y2="22.4917" gradientUnits="userSpaceOnUse">
      <stop stop-color="#FFAC6F"/>
      <stop offset="0.516428" stop-color="#FF9141"/>
      <stop offset="0.878472" stop-color="#FF6B6B"/>
      <stop offset="1" stop-color="#FF9AB3"/>
    </linearGradient>
  </defs>
</svg>