<svg width="181" height="118" viewBox="0 0 181 118" fill="none" xmlns="http://www.w3.org/2000/svg">
<g filter="url(#filter0_i_5045_16275)">
<rect width="181" height="84" rx="42" fill="url(#paint0_linear_5045_16275)"/>
<rect width="181" height="84" rx="42" fill="black" fill-opacity="0.1"/>
<rect x="1" y="1" width="179" height="82" rx="41" stroke="#FF9141" stroke-width="2"/>
<rect x="1" y="1" width="179" height="82" rx="41" stroke="black" stroke-opacity="0.1" stroke-width="2"/>
</g>
<path d="M93.6 104.356L99.24 104.356L99.24 106.696L97.86 106.696L97.86 108.346L96.48 108.346L96.48 110.056L95.1 110.056L95.1 111.826L93.72 111.826L93.72 113.506L92.19 113.506L92.19 115.006L89.58 115.006L89.58 113.506L88.02 113.506L88.02 111.826L86.64 111.826L86.64 110.056L85.26 110.056L85.26 108.346L83.88 108.346L83.88 106.696L82.5 106.696L82.5 104.356L88.17 104.356L88.17 94.3659L89.34 94.3659L89.34 93.0459L92.46 93.0459L92.46 94.3659L93.6 94.3659L93.6 104.356Z" fill="url(#paint1_linear_5045_16275)"/>
<path d="M93.6 104.356L99.24 104.356L99.24 106.696L97.86 106.696L97.86 108.346L96.48 108.346L96.48 110.056L95.1 110.056L95.1 111.826L93.72 111.826L93.72 113.506L92.19 113.506L92.19 115.006L89.58 115.006L89.58 113.506L88.02 113.506L88.02 111.826L86.64 111.826L86.64 110.056L85.26 110.056L85.26 108.346L83.88 108.346L83.88 106.696L82.5 106.696L82.5 104.356L88.17 104.356L88.17 94.3659L89.34 94.3659L89.34 93.0459L92.46 93.0459L92.46 94.3659L93.6 94.3659L93.6 104.356Z" fill="black" fill-opacity="0.1"/>
<path d="M93.6 104.356L91.6 104.356L91.6 106.356L93.6 106.356L93.6 104.356ZM99.24 104.356L101.24 104.356L101.24 102.356L99.24 102.356L99.24 104.356ZM99.24 106.696L99.24 108.696L101.24 108.696L101.24 106.696L99.24 106.696ZM97.86 106.696L97.86 104.696L95.86 104.696L95.86 106.696L97.86 106.696ZM97.86 108.346L97.86 110.346L99.86 110.346L99.86 108.346L97.86 108.346ZM96.48 108.346L96.48 106.346L94.48 106.346L94.48 108.346L96.48 108.346ZM96.48 110.056L96.48 112.056L98.48 112.056L98.48 110.056L96.48 110.056ZM95.1 110.056L95.1 108.056L93.1 108.056L93.1 110.056L95.1 110.056ZM95.1 111.826L95.1 113.826L97.1 113.826L97.1 111.826L95.1 111.826ZM93.72 111.826L93.72 109.826L91.72 109.826L91.72 111.826L93.72 111.826ZM93.72 113.506L93.72 115.506L95.72 115.506L95.72 113.506L93.72 113.506ZM92.19 113.506L92.19 111.506L90.19 111.506L90.19 113.506L92.19 113.506ZM92.19 115.006L92.19 117.006L94.19 117.006L94.19 115.006L92.19 115.006ZM89.58 115.006L87.58 115.006L87.58 117.006L89.58 117.006L89.58 115.006ZM89.58 113.506L91.58 113.506L91.58 111.506L89.58 111.506L89.58 113.506ZM88.02 113.506L86.02 113.506L86.02 115.506L88.02 115.506L88.02 113.506ZM88.02 111.826L90.02 111.826L90.02 109.826L88.02 109.826L88.02 111.826ZM86.64 111.826L84.64 111.826L84.64 113.826L86.64 113.826L86.64 111.826ZM86.64 110.056L88.64 110.056L88.64 108.056L86.64 108.056L86.64 110.056ZM85.26 110.056L83.26 110.056L83.26 112.056L85.26 112.056L85.26 110.056ZM85.26 108.346L87.26 108.346L87.26 106.346L85.26 106.346L85.26 108.346ZM83.88 108.346L81.88 108.346L81.88 110.346L83.88 110.346L83.88 108.346ZM83.88 106.696L85.88 106.696L85.88 104.696L83.88 104.696L83.88 106.696ZM82.5 106.696L80.5 106.696L80.5 108.696L82.5 108.696L82.5 106.696ZM82.5 104.356L82.5 102.356L80.5 102.356L80.5 104.356L82.5 104.356ZM88.17 104.356L88.17 106.356L90.17 106.356L90.17 104.356L88.17 104.356ZM88.17 94.3659L88.17 92.3659L86.17 92.3659L86.17 94.3659L88.17 94.3659ZM89.34 94.3659L89.34 96.3659L91.34 96.3659L91.34 94.3659L89.34 94.3659ZM89.34 93.0459L89.34 91.0459L87.34 91.0459L87.34 93.0459L89.34 93.0459ZM92.46 93.0459L94.46 93.0459L94.46 91.0459L92.46 91.0459L92.46 93.0459ZM92.46 94.3659L90.46 94.3659L90.46 96.3659L92.46 96.3659L92.46 94.3659ZM93.6 94.3659L95.6 94.3659L95.6 92.3659L93.6 92.3659L93.6 94.3659ZM93.6 106.356L99.24 106.356L99.24 102.356L93.6 102.356L93.6 106.356ZM97.24 104.356L97.24 106.696L101.24 106.696L101.24 104.356L97.24 104.356ZM99.24 104.696L97.86 104.696L97.86 108.696L99.24 108.696L99.24 104.696ZM95.86 106.696L95.86 108.346L99.86 108.346L99.86 106.696L95.86 106.696ZM97.86 106.346L96.48 106.346L96.48 110.346L97.86 110.346L97.86 106.346ZM94.48 108.346L94.48 110.056L98.48 110.056L98.48 108.346L94.48 108.346ZM96.48 108.056L95.1 108.056L95.1 112.056L96.48 112.056L96.48 108.056ZM93.1 110.056L93.1 111.826L97.1 111.826L97.1 110.056L93.1 110.056ZM95.1 109.826L93.72 109.826L93.72 113.826L95.1 113.826L95.1 109.826ZM91.72 111.826L91.72 113.506L95.72 113.506L95.72 111.826L91.72 111.826ZM93.72 111.506L92.19 111.506L92.19 115.506L93.72 115.506L93.72 111.506ZM90.19 113.506L90.19 115.006L94.19 115.006L94.19 113.506L90.19 113.506ZM92.19 113.006L89.58 113.006L89.58 117.006L92.19 117.006L92.19 113.006ZM91.58 115.006L91.58 113.506L87.58 113.506L87.58 115.006L91.58 115.006ZM89.58 111.506L88.02 111.506L88.02 115.506L89.58 115.506L89.58 111.506ZM90.02 113.506L90.02 111.826L86.02 111.826L86.02 113.506L90.02 113.506ZM88.02 109.826L86.64 109.826L86.64 113.826L88.02 113.826L88.02 109.826ZM88.64 111.826L88.64 110.056L84.64 110.056L84.64 111.826L88.64 111.826ZM86.64 108.056L85.26 108.056L85.26 112.056L86.64 112.056L86.64 108.056ZM87.26 110.056L87.26 108.346L83.26 108.346L83.26 110.056L87.26 110.056ZM85.26 106.346L83.88 106.346L83.88 110.346L85.26 110.346L85.26 106.346ZM85.88 108.346L85.88 106.696L81.88 106.696L81.88 108.346L85.88 108.346ZM83.88 104.696L82.5 104.696L82.5 108.696L83.88 108.696L83.88 104.696ZM84.5 106.696L84.5 104.356L80.5 104.356L80.5 106.696L84.5 106.696ZM82.5 106.356L88.17 106.356L88.17 102.356L82.5 102.356L82.5 106.356ZM90.17 104.356L90.17 94.3659L86.17 94.3659L86.17 104.356L90.17 104.356ZM88.17 96.3659L89.34 96.3659L89.34 92.3659L88.17 92.3659L88.17 96.3659ZM91.34 94.3659L91.34 93.0459L87.34 93.0459L87.34 94.3659L91.34 94.3659ZM89.34 95.0459L92.46 95.0459L92.46 91.0459L89.34 91.0459L89.34 95.0459ZM90.46 93.0459L90.46 94.3659L94.46 94.3659L94.46 93.0459L90.46 93.0459ZM92.46 96.3659L93.6 96.3659L93.6 92.3659L92.46 92.3659L92.46 96.3659ZM91.6 94.3659L91.6 104.356L95.6 104.356L95.6 94.3659L91.6 94.3659Z" fill="url(#paint2_linear_5045_16275)"/>
<path d="M93.6 104.356L91.6 104.356L91.6 106.356L93.6 106.356L93.6 104.356ZM99.24 104.356L101.24 104.356L101.24 102.356L99.24 102.356L99.24 104.356ZM99.24 106.696L99.24 108.696L101.24 108.696L101.24 106.696L99.24 106.696ZM97.86 106.696L97.86 104.696L95.86 104.696L95.86 106.696L97.86 106.696ZM97.86 108.346L97.86 110.346L99.86 110.346L99.86 108.346L97.86 108.346ZM96.48 108.346L96.48 106.346L94.48 106.346L94.48 108.346L96.48 108.346ZM96.48 110.056L96.48 112.056L98.48 112.056L98.48 110.056L96.48 110.056ZM95.1 110.056L95.1 108.056L93.1 108.056L93.1 110.056L95.1 110.056ZM95.1 111.826L95.1 113.826L97.1 113.826L97.1 111.826L95.1 111.826ZM93.72 111.826L93.72 109.826L91.72 109.826L91.72 111.826L93.72 111.826ZM93.72 113.506L93.72 115.506L95.72 115.506L95.72 113.506L93.72 113.506ZM92.19 113.506L92.19 111.506L90.19 111.506L90.19 113.506L92.19 113.506ZM92.19 115.006L92.19 117.006L94.19 117.006L94.19 115.006L92.19 115.006ZM89.58 115.006L87.58 115.006L87.58 117.006L89.58 117.006L89.58 115.006ZM89.58 113.506L91.58 113.506L91.58 111.506L89.58 111.506L89.58 113.506ZM88.02 113.506L86.02 113.506L86.02 115.506L88.02 115.506L88.02 113.506ZM88.02 111.826L90.02 111.826L90.02 109.826L88.02 109.826L88.02 111.826ZM86.64 111.826L84.64 111.826L84.64 113.826L86.64 113.826L86.64 111.826ZM86.64 110.056L88.64 110.056L88.64 108.056L86.64 108.056L86.64 110.056ZM85.26 110.056L83.26 110.056L83.26 112.056L85.26 112.056L85.26 110.056ZM85.26 108.346L87.26 108.346L87.26 106.346L85.26 106.346L85.26 108.346ZM83.88 108.346L81.88 108.346L81.88 110.346L83.88 110.346L83.88 108.346ZM83.88 106.696L85.88 106.696L85.88 104.696L83.88 104.696L83.88 106.696ZM82.5 106.696L80.5 106.696L80.5 108.696L82.5 108.696L82.5 106.696ZM82.5 104.356L82.5 102.356L80.5 102.356L80.5 104.356L82.5 104.356ZM88.17 104.356L88.17 106.356L90.17 106.356L90.17 104.356L88.17 104.356ZM88.17 94.3659L88.17 92.3659L86.17 92.3659L86.17 94.3659L88.17 94.3659ZM89.34 94.3659L89.34 96.3659L91.34 96.3659L91.34 94.3659L89.34 94.3659ZM89.34 93.0459L89.34 91.0459L87.34 91.0459L87.34 93.0459L89.34 93.0459ZM92.46 93.0459L94.46 93.0459L94.46 91.0459L92.46 91.0459L92.46 93.0459ZM92.46 94.3659L90.46 94.3659L90.46 96.3659L92.46 96.3659L92.46 94.3659ZM93.6 94.3659L95.6 94.3659L95.6 92.3659L93.6 92.3659L93.6 94.3659ZM93.6 106.356L99.24 106.356L99.24 102.356L93.6 102.356L93.6 106.356ZM97.24 104.356L97.24 106.696L101.24 106.696L101.24 104.356L97.24 104.356ZM99.24 104.696L97.86 104.696L97.86 108.696L99.24 108.696L99.24 104.696ZM95.86 106.696L95.86 108.346L99.86 108.346L99.86 106.696L95.86 106.696ZM97.86 106.346L96.48 106.346L96.48 110.346L97.86 110.346L97.86 106.346ZM94.48 108.346L94.48 110.056L98.48 110.056L98.48 108.346L94.48 108.346ZM96.48 108.056L95.1 108.056L95.1 112.056L96.48 112.056L96.48 108.056ZM93.1 110.056L93.1 111.826L97.1 111.826L97.1 110.056L93.1 110.056ZM95.1 109.826L93.72 109.826L93.72 113.826L95.1 113.826L95.1 109.826ZM91.72 111.826L91.72 113.506L95.72 113.506L95.72 111.826L91.72 111.826ZM93.72 111.506L92.19 111.506L92.19 115.506L93.72 115.506L93.72 111.506ZM90.19 113.506L90.19 115.006L94.19 115.006L94.19 113.506L90.19 113.506ZM92.19 113.006L89.58 113.006L89.58 117.006L92.19 117.006L92.19 113.006ZM91.58 115.006L91.58 113.506L87.58 113.506L87.58 115.006L91.58 115.006ZM89.58 111.506L88.02 111.506L88.02 115.506L89.58 115.506L89.58 111.506ZM90.02 113.506L90.02 111.826L86.02 111.826L86.02 113.506L90.02 113.506ZM88.02 109.826L86.64 109.826L86.64 113.826L88.02 113.826L88.02 109.826ZM88.64 111.826L88.64 110.056L84.64 110.056L84.64 111.826L88.64 111.826ZM86.64 108.056L85.26 108.056L85.26 112.056L86.64 112.056L86.64 108.056ZM87.26 110.056L87.26 108.346L83.26 108.346L83.26 110.056L87.26 110.056ZM85.26 106.346L83.88 106.346L83.88 110.346L85.26 110.346L85.26 106.346ZM85.88 108.346L85.88 106.696L81.88 106.696L81.88 108.346L85.88 108.346ZM83.88 104.696L82.5 104.696L82.5 108.696L83.88 108.696L83.88 104.696ZM84.5 106.696L84.5 104.356L80.5 104.356L80.5 106.696L84.5 106.696ZM82.5 106.356L88.17 106.356L88.17 102.356L82.5 102.356L82.5 106.356ZM90.17 104.356L90.17 94.3659L86.17 94.3659L86.17 104.356L90.17 104.356ZM88.17 96.3659L89.34 96.3659L89.34 92.3659L88.17 92.3659L88.17 96.3659ZM91.34 94.3659L91.34 93.0459L87.34 93.0459L87.34 94.3659L91.34 94.3659ZM89.34 95.0459L92.46 95.0459L92.46 91.0459L89.34 91.0459L89.34 95.0459ZM90.46 93.0459L90.46 94.3659L94.46 94.3659L94.46 93.0459L90.46 93.0459ZM92.46 96.3659L93.6 96.3659L93.6 92.3659L92.46 92.3659L92.46 96.3659ZM91.6 94.3659L91.6 104.356L95.6 104.356L95.6 94.3659L91.6 94.3659Z" fill="black" fill-opacity="0.1"/>
<defs>
<filter id="filter0_i_5045_16275" x="0" y="0" width="181" height="86" filterUnits="userSpaceOnUse" color-interpolation-filters="sRGB">
<feFlood flood-opacity="0" result="BackgroundImageFix"/>
<feBlend mode="normal" in="SourceGraphic" in2="BackgroundImageFix" result="shape"/>
<feColorMatrix in="SourceAlpha" type="matrix" values="0 0 0 0 0 0 0 0 0 0 0 0 0 0 0 0 0 0 127 0" result="hardAlpha"/>
<feOffset dy="2"/>
<feGaussianBlur stdDeviation="5"/>
<feComposite in2="hardAlpha" operator="arithmetic" k2="-1" k3="1"/>
<feColorMatrix type="matrix" values="0 0 0 0 0 0 0 0 0 0 0 0 0 0 0 0 0 0 0.1 0"/>
<feBlend mode="normal" in2="shape" result="effect1_innerShadow_5045_16275"/>
</filter>
<linearGradient id="paint0_linear_5045_16275" x1="2.52793" y1="-6.27724e-07" x2="55.7291" y2="137.651" gradientUnits="userSpaceOnUse">
<stop stop-color="#FFAC6F"/>
<stop offset="0.516428" stop-color="#FF9141"/>
<stop offset="0.878472" stop-color="#FF6B6B"/>
<stop offset="1" stop-color="#FF9AB3"/>
</linearGradient>
<linearGradient id="paint1_linear_5045_16275" x1="102.5" y1="92.3352" x2="75.8085" y2="114.564" gradientUnits="userSpaceOnUse">
<stop stop-color="#FFAC6F"/>
<stop offset="0.516428" stop-color="#FF9141"/>
<stop offset="0.878472" stop-color="#FF6B6B"/>
<stop offset="1" stop-color="#FF9AB3"/>
</linearGradient>
<linearGradient id="paint2_linear_5045_16275" x1="102.5" y1="92.3352" x2="75.8085" y2="114.564" gradientUnits="userSpaceOnUse">
<stop stop-color="#FFAC6F"/>
<stop offset="0.516428" stop-color="#FF9141"/>
<stop offset="0.878472" stop-color="#FF6B6B"/>
<stop offset="1" stop-color="#FF9AB3"/>
</linearGradient>
</defs>
</svg>
