<svg width="181" height="118" viewBox="0 0 181 118" fill="none" xmlns="http://www.w3.org/2000/svg">
<g clip-path="url(#clip0_5045_16273)">
<g filter="url(#filter0_d_5045_16273)">
<rect width="181" height="84" rx="42" fill="white"/>
<path d="M31.5639 31.056V22.368H30.8919V21.792H29.8839V22.368H29.2359V31.056H29.8839V31.608H30.8919V31.056H31.5639ZM34.9479 20.376H35.7399V33.024H34.9479V33.84H34.1799V34.632H33.4119V35.424H27.4119V34.632H26.6199V33.84H25.8519V33.024H25.0599V20.376H25.8519V19.584H26.6199V18.792H27.4119V18H33.4119V18.792H34.1799V19.584H34.9479V20.376ZM41.4999 18V18.792H42.2919V35.208H41.4999V36H38.7639V35.208H37.9719V18.792H38.7639V18H41.4999ZM53.8839 21.816H52.7799V31.416H53.8839V21.816ZM66.7719 35.208H65.9799V36H63.7959V35.208H63.0039V18.792H63.7959V18H65.9799V18.792H66.7719V35.208ZM58.6119 25.104V18.792H59.4039V18H61.5879V18.792H62.3799V35.208H61.5879V36H59.4039V35.208H58.6119V28.896H57.5799V34.44H56.7879V35.232H49.8759V34.44H49.0839V18.792H49.8759V18H56.7879V18.792H57.5799V25.104H58.6119ZM84.4674 26.832H70.3554V26.04H69.5634V18.792H70.3554V18H73.0674V18.792H73.8594V23.016H84.4674V23.808H85.2594V26.04H84.4674V26.832ZM82.6914 31.824V35.208H81.8994V36H79.1874V35.208H78.3954V31.824H76.4274V35.208H75.6354V36H72.9234V35.208H72.1314V31.824H69.3234V31.056H68.5314V28.824H69.3234V28.032H85.4994V28.824H86.2914V31.056H85.4994V31.824H82.6914ZM98.7667 31.728H104.695V32.52H105.487V34.728H104.695V35.52H88.5187V34.728H87.7267V32.52H88.5187V31.728H94.4467V30.072H89.4547V29.28H88.6387V23.064H89.4547V22.272H100.279V21.576H89.4547V20.784H88.6387V18.792H89.4547V18H103.759V18.792H104.575V25.032H103.759V25.824H92.9107V26.496H103.759V27.288H104.575V29.28H103.759V30.072H98.7667V31.728ZM124.855 25.152H122.959V24.48H122.359V23.112H122.959V22.464H124.855V22.032H122.959V21.36H122.359V19.992H122.959V19.344H124.855V18.792H125.647V18H128.143V18.792H128.935V25.752H128.143V26.544H125.647V25.752H124.855V25.152ZM112.759 18H120.871V18.792H121.663V25.704H120.871V26.496H118.159V25.704H117.367V21.336H112.759V20.544H111.967V18.792H112.759V18ZM117.031 32.904V33.408H128.287V34.032H128.935V35.376H128.287V36H113.407V35.376H112.759V30.936H113.407V30.336H124.639V29.832H113.407V29.208H112.759V27.84H113.407V27.24H128.287V27.84H128.935V32.28H128.287V32.904H117.031ZM143.81 24.552H142.658V23.832H141.914V21.768H142.658V21.072H143.81V18.792H144.602V18H147.338V18.792H148.13V26.088H147.338V26.88H144.602V26.088H143.81V24.552ZM139.538 21.432V22.032H140.186V22.728H140.858V23.448H141.53V26.256H140.858V26.952H138.866V26.256H138.194V25.536H137.522V24.84H136.85V24.144H135.89V24.84H135.218V25.536H134.546V26.256H133.874V26.952H131.882V26.256H131.21V23.448H131.882V22.728H132.554V22.032H133.202V21.432H131.618V20.64H130.826V18.792H131.618V18H141.122V18.792H141.914V20.64H141.122V21.432H139.538ZM143.906 32.712V32.208H144.458V31.776H143.906V31.272H136.658V31.776H136.082V32.208H136.658V32.712H143.906ZM146.162 36H134.33V35.208H133.538V34.344H132.746V33.432H132.146V30.528H132.746V29.616H133.538V28.752H134.33V27.984H146.162V28.752H146.978V29.616H147.77V30.528H148.37V33.432H147.77V34.344H146.978V35.208H146.162V36ZM154.677 17.64V18.408H155.445V29.184H154.677V29.952H151.893V29.184H151.125V18.408H151.893V17.64H154.677ZM154.677 31.368V32.136H155.445V34.992H154.677V35.76H151.893V34.992H151.125V32.136H151.893V31.368H154.677ZM37.2915 51.576H35.2275V53.976H37.2915V51.576ZM42.2835 60.24H43.4835V60.768H44.5875V61.272H45.6915V61.8H46.7715V62.304H47.8515V62.904H48.5955V65.28H47.8515V66H45.4515V65.52H44.3955V65.016H43.3395V64.512H42.2835V63.984H41.1315V63.432H39.1395V63.984H37.9635V64.512H36.9075V65.016H35.8515V65.52H34.8195V66H32.3955V65.28H31.6515V62.904H32.3955V62.304H33.4755V61.8H34.5555V61.272H35.6595V60.768H36.7875V60.24H37.9875V59.184H38.7315V58.44H41.5635V59.184H42.2835V60.24ZM30.9315 48.792H31.7235V48H40.7955V48.792H41.5875V56.76H40.7955V57.552H31.7235V56.76H30.9315V48.792ZM44.0595 48H46.7715V48.792H47.5395V50.88H48.7875V51.672H49.5795V53.88H48.7875V54.672H47.5395V56.76H46.7715V57.552H44.0595V56.76H43.2675V48.792H44.0595V48ZM63.243 63.192V62.448H55.755V63.192H63.243ZM66.771 58.248V58.896H67.587V65.232H66.771V66H52.203V65.232H51.411V58.896H52.203V58.248H54.939V58.896H55.755V59.664H63.243V58.896H64.035V58.248H66.771ZM66.795 48V48.792H67.587V56.688H66.795V57.48H64.059V56.688H63.267V48.792H64.059V48H66.795ZM53.283 51.672H51.075V50.88H50.283V48.792H51.075V48H60.579V48.792H61.371V50.88H60.579V51.672H58.371V52.152H59.067V52.824H59.739V53.52H60.435V54.192H61.107V56.88H60.435V57.552H58.371V56.88H57.699V56.184H57.003V55.512H56.331V54.84H55.323V55.512H54.651V56.184H53.955V56.88H53.283V57.552H51.219V56.88H50.547V54.192H51.219V53.52H51.915V52.824H52.587V52.152H53.283V51.672ZM86.763 55.296V53.808H79.755V55.296H86.763ZM85.419 61.728H91.347V62.52H92.139V64.728H91.347V65.52H75.171V64.728H74.379V62.52H75.171V61.728H81.099V59.064H76.203V58.272H75.411V48.792H76.203V48H78.939V48.792H79.755V49.896H86.763V48.792H87.555V48H90.291V48.792H91.107V58.272H90.291V59.064H85.419V61.728ZM98.0863 58.512V61.416H102.934V62.208H103.75V64.44H102.934V65.232H94.6303V64.44H93.8143V55.512H94.6303V54.72H99.4543V51.816H94.6303V51.024H93.8143V48.792H94.6303V48H102.934V48.792H103.75V57.72H102.934V58.512H98.0863ZM106.702 58.896H105.07V58.104H104.254V55.872H105.07V55.104H106.702V48.792H107.494V48H110.23V48.792H111.022V65.208H110.23V66H107.494V65.208H106.702V58.896ZM126.138 48H128.85V48.792H129.618V55.08H130.866V55.872H131.658V58.128H130.866V58.92H129.618V65.208H128.85V66H126.138V65.208H125.346V48.792H126.138V48ZM113.802 48H121.914V48.792H122.706V64.44H121.914V65.232H119.202V64.44H118.41V51.816H113.802V51.024H113.01V48.792H113.802V48ZM149.113 48V48.792H149.905V65.208H149.113V66H146.377V65.208H145.585V48.792H146.377V48H149.113ZM133.489 48H141.601V48.792H142.393V64.44H141.601V65.232H138.889V64.44H138.097V51.816H133.489V51.024H132.697V48.792H133.489V48Z" fill="url(#paint0_linear_5045_16273)"/>
<rect x="1" y="1" width="179" height="82" rx="41" stroke="url(#paint1_linear_5045_16273)" stroke-width="2"/>
</g>
<path d="M93.6 104.356L99.24 104.356L99.24 106.696L97.86 106.696L97.86 108.346L96.48 108.346L96.48 110.056L95.1 110.056L95.1 111.826L93.72 111.826L93.72 113.506L92.19 113.506L92.19 115.006L89.58 115.006L89.58 113.506L88.02 113.506L88.02 111.826L86.64 111.826L86.64 110.056L85.26 110.056L85.26 108.346L83.88 108.346L83.88 106.696L82.5 106.696L82.5 104.356L88.17 104.356L88.17 94.3659L89.34 94.3659L89.34 93.0459L92.46 93.0459L92.46 94.3659L93.6 94.3659L93.6 104.356Z" fill="white"/>
<path d="M93.6 104.356L91.6 104.356L91.6 106.356L93.6 106.356L93.6 104.356ZM99.24 104.356L101.24 104.356L101.24 102.356L99.24 102.356L99.24 104.356ZM99.24 106.696L99.24 108.696L101.24 108.696L101.24 106.696L99.24 106.696ZM97.86 106.696L97.86 104.696L95.86 104.696L95.86 106.696L97.86 106.696ZM97.86 108.346L97.86 110.346L99.86 110.346L99.86 108.346L97.86 108.346ZM96.48 108.346L96.48 106.346L94.48 106.346L94.48 108.346L96.48 108.346ZM96.48 110.056L96.48 112.056L98.48 112.056L98.48 110.056L96.48 110.056ZM95.1 110.056L95.1 108.056L93.1 108.056L93.1 110.056L95.1 110.056ZM95.1 111.826L95.1 113.826L97.1 113.826L97.1 111.826L95.1 111.826ZM93.72 111.826L93.72 109.826L91.72 109.826L91.72 111.826L93.72 111.826ZM93.72 113.506L93.72 115.506L95.72 115.506L95.72 113.506L93.72 113.506ZM92.19 113.506L92.19 111.506L90.19 111.506L90.19 113.506L92.19 113.506ZM92.19 115.006L92.19 117.006L94.19 117.006L94.19 115.006L92.19 115.006ZM89.58 115.006L87.58 115.006L87.58 117.006L89.58 117.006L89.58 115.006ZM89.58 113.506L91.58 113.506L91.58 111.506L89.58 111.506L89.58 113.506ZM88.02 113.506L86.02 113.506L86.02 115.506L88.02 115.506L88.02 113.506ZM88.02 111.826L90.02 111.826L90.02 109.826L88.02 109.826L88.02 111.826ZM86.64 111.826L84.64 111.826L84.64 113.826L86.64 113.826L86.64 111.826ZM86.64 110.056L88.64 110.056L88.64 108.056L86.64 108.056L86.64 110.056ZM85.26 110.056L83.26 110.056L83.26 112.056L85.26 112.056L85.26 110.056ZM85.26 108.346L87.26 108.346L87.26 106.346L85.26 106.346L85.26 108.346ZM83.88 108.346L81.88 108.346L81.88 110.346L83.88 110.346L83.88 108.346ZM83.88 106.696L85.88 106.696L85.88 104.696L83.88 104.696L83.88 106.696ZM82.5 106.696L80.5 106.696L80.5 108.696L82.5 108.696L82.5 106.696ZM82.5 104.356L82.5 102.356L80.5 102.356L80.5 104.356L82.5 104.356ZM88.17 104.356L88.17 106.356L90.17 106.356L90.17 104.356L88.17 104.356ZM88.17 94.3659L88.17 92.3659L86.17 92.3659L86.17 94.3659L88.17 94.3659ZM89.34 94.3659L89.34 96.3659L91.34 96.3659L91.34 94.3659L89.34 94.3659ZM89.34 93.0459L89.34 91.0459L87.34 91.0459L87.34 93.0459L89.34 93.0459ZM92.46 93.0459L94.46 93.0459L94.46 91.0459L92.46 91.0459L92.46 93.0459ZM92.46 94.3659L90.46 94.3659L90.46 96.3659L92.46 96.3659L92.46 94.3659ZM93.6 94.3659L95.6 94.3659L95.6 92.3659L93.6 92.3659L93.6 94.3659ZM93.6 106.356L99.24 106.356L99.24 102.356L93.6 102.356L93.6 106.356ZM97.24 104.356L97.24 106.696L101.24 106.696L101.24 104.356L97.24 104.356ZM99.24 104.696L97.86 104.696L97.86 108.696L99.24 108.696L99.24 104.696ZM95.86 106.696L95.86 108.346L99.86 108.346L99.86 106.696L95.86 106.696ZM97.86 106.346L96.48 106.346L96.48 110.346L97.86 110.346L97.86 106.346ZM94.48 108.346L94.48 110.056L98.48 110.056L98.48 108.346L94.48 108.346ZM96.48 108.056L95.1 108.056L95.1 112.056L96.48 112.056L96.48 108.056ZM93.1 110.056L93.1 111.826L97.1 111.826L97.1 110.056L93.1 110.056ZM95.1 109.826L93.72 109.826L93.72 113.826L95.1 113.826L95.1 109.826ZM91.72 111.826L91.72 113.506L95.72 113.506L95.72 111.826L91.72 111.826ZM93.72 111.506L92.19 111.506L92.19 115.506L93.72 115.506L93.72 111.506ZM90.19 113.506L90.19 115.006L94.19 115.006L94.19 113.506L90.19 113.506ZM92.19 113.006L89.58 113.006L89.58 117.006L92.19 117.006L92.19 113.006ZM91.58 115.006L91.58 113.506L87.58 113.506L87.58 115.006L91.58 115.006ZM89.58 111.506L88.02 111.506L88.02 115.506L89.58 115.506L89.58 111.506ZM90.02 113.506L90.02 111.826L86.02 111.826L86.02 113.506L90.02 113.506ZM88.02 109.826L86.64 109.826L86.64 113.826L88.02 113.826L88.02 109.826ZM88.64 111.826L88.64 110.056L84.64 110.056L84.64 111.826L88.64 111.826ZM86.64 108.056L85.26 108.056L85.26 112.056L86.64 112.056L86.64 108.056ZM87.26 110.056L87.26 108.346L83.26 108.346L83.26 110.056L87.26 110.056ZM85.26 106.346L83.88 106.346L83.88 110.346L85.26 110.346L85.26 106.346ZM85.88 108.346L85.88 106.696L81.88 106.696L81.88 108.346L85.88 108.346ZM83.88 104.696L82.5 104.696L82.5 108.696L83.88 108.696L83.88 104.696ZM84.5 106.696L84.5 104.356L80.5 104.356L80.5 106.696L84.5 106.696ZM82.5 106.356L88.17 106.356L88.17 102.356L82.5 102.356L82.5 106.356ZM90.17 104.356L90.17 94.3659L86.17 94.3659L86.17 104.356L90.17 104.356ZM88.17 96.3659L89.34 96.3659L89.34 92.3659L88.17 92.3659L88.17 96.3659ZM91.34 94.3659L91.34 93.0459L87.34 93.0459L87.34 94.3659L91.34 94.3659ZM89.34 95.0459L92.46 95.0459L92.46 91.0459L89.34 91.0459L89.34 95.0459ZM90.46 93.0459L90.46 94.3659L94.46 94.3659L94.46 93.0459L90.46 93.0459ZM92.46 96.3659L93.6 96.3659L93.6 92.3659L92.46 92.3659L92.46 96.3659ZM91.6 94.3659L91.6 104.356L95.6 104.356L95.6 94.3659L91.6 94.3659Z" fill="url(#paint2_linear_5045_16273)"/>
</g>
<defs>
<filter id="filter0_d_5045_16273" x="-10" y="-8" width="201" height="104" filterUnits="userSpaceOnUse" color-interpolation-filters="sRGB">
<feFlood flood-opacity="0" result="BackgroundImageFix"/>
<feColorMatrix in="SourceAlpha" type="matrix" values="0 0 0 0 0 0 0 0 0 0 0 0 0 0 0 0 0 0 127 0" result="hardAlpha"/>
<feOffset dy="2"/>
<feGaussianBlur stdDeviation="5"/>
<feComposite in2="hardAlpha" operator="out"/>
<feColorMatrix type="matrix" values="0 0 0 0 0 0 0 0 0 0 0 0 0 0 0 0 0 0 0.1 0"/>
<feBlend mode="normal" in2="BackgroundImageFix" result="effect1_dropShadow_5045_16273"/>
<feBlend mode="normal" in="SourceGraphic" in2="effect1_dropShadow_5045_16273" result="shape"/>
</filter>
<linearGradient id="paint0_linear_5045_16273" x1="25.8575" y1="12" x2="149.034" y2="86.1113" gradientUnits="userSpaceOnUse">
<stop stop-color="#FFAC6F"/>
<stop offset="0.516428" stop-color="#FF9141"/>
<stop offset="0.878472" stop-color="#FF6B6B"/>
<stop offset="1" stop-color="#FF9AB3"/>
</linearGradient>
<linearGradient id="paint1_linear_5045_16273" x1="2.52793" y1="-6.27724e-07" x2="55.7291" y2="137.651" gradientUnits="userSpaceOnUse">
<stop stop-color="#FFAC6F"/>
<stop offset="0.516428" stop-color="#FF9141"/>
<stop offset="0.878472" stop-color="#FF6B6B"/>
<stop offset="1" stop-color="#FF9AB3"/>
</linearGradient>
<linearGradient id="paint2_linear_5045_16273" x1="102.5" y1="92.3352" x2="75.8085" y2="114.564" gradientUnits="userSpaceOnUse">
<stop stop-color="#FFAC6F"/>
<stop offset="0.516428" stop-color="#FF9141"/>
<stop offset="0.878472" stop-color="#FF6B6B"/>
<stop offset="1" stop-color="#FF9AB3"/>
</linearGradient>
<clipPath id="clip0_5045_16273">
<rect width="181" height="118" fill="white"/>
</clipPath>
</defs>
</svg>
