<svg width="57" height="58" viewBox="0 0 57 58" fill="currentColor" xmlns="http://www.w3.org/2000/svg">
<path d="M42.75 33.1431C44.3697 33.1431 45.9231 33.7978 47.0684 34.9632C48.2137 36.1286 48.8572 37.7092 48.8572 39.3574V40.8384C48.8572 48.2479 40.2868 53.8574 28.5 53.8574C16.7132 53.8574 8.14288 48.54 8.14288 40.8384V39.3574C8.14288 37.7092 8.78631 36.1286 9.93162 34.9632C11.0769 33.7978 12.6303 33.1431 14.25 33.1431H42.75ZM28.5 4.14307C30.104 4.14307 31.6923 4.46454 33.1742 5.08913C34.6561 5.71373 36.0026 6.62921 37.1368 7.78331C38.271 8.93741 39.1707 10.3075 39.7846 11.8154C40.3984 13.3233 40.7143 14.9395 40.7143 16.5716C40.7143 18.2038 40.3984 19.8199 39.7846 21.3278C39.1707 22.8358 38.271 24.2059 37.1368 25.36C36.0026 26.5141 34.6561 27.4295 33.1742 28.0541C31.6923 28.6787 30.104 29.0002 28.5 29.0002C25.2606 29.0002 22.1538 27.6908 19.8632 25.36C17.5726 23.0292 16.2857 19.8679 16.2857 16.5716C16.2857 13.2754 17.5726 10.1141 19.8632 7.78331C22.1538 5.4525 25.2606 4.14307 28.5 4.14307Z" fill="current"/>
</svg>
