<svg width="68" height="25" viewBox="0 0 68 25" fill="none" xmlns="http://www.w3.org/2000/svg">
<path d="M0.5 8C0.5 3.58172 4.08172 0 8.5 0H59.5C63.9183 0 67.5 3.58172 67.5 8V25H0.5V8Z" fill="#FF9141"/>
<path d="M33.804 15.128L33.664 13.322C34.364 13.294 34.8867 13.182 35.232 12.986C35.5773 12.7807 35.764 12.4913 35.792 12.118C35.8107 11.8007 35.694 11.5393 35.442 11.334C35.19 11.1287 34.854 11.068 34.434 11.152C34.1447 11.2173 33.8833 11.3713 33.65 11.614C33.4167 11.8567 33.286 12.1833 33.258 12.594L30.976 12.16C31.0973 11.236 31.4333 10.4987 31.984 9.948C32.544 9.39733 33.2487 9.066 34.098 8.954C34.9753 8.842 35.7687 8.93067 36.478 9.22C37.1967 9.50933 37.696 9.97133 37.976 10.606C38.0973 10.886 38.172 11.1847 38.2 11.502C38.228 11.81 38.2093 12.118 38.144 12.426C38.0787 12.7247 37.9713 13.014 37.822 13.294C37.6727 13.5647 37.4813 13.798 37.248 13.994C37.5373 14.1713 37.7753 14.3953 37.962 14.666C38.1487 14.9367 38.284 15.2307 38.368 15.548C38.452 15.8653 38.4847 16.192 38.466 16.528C38.4567 16.864 38.4053 17.1767 38.312 17.466C38.06 18.2313 37.5653 18.81 36.828 19.202C36.0907 19.594 35.2133 19.748 34.196 19.664C33.244 19.58 32.4507 19.23 31.816 18.614C31.1813 17.9887 30.8127 17.144 30.71 16.08L33.006 15.632C33.0527 16.052 33.2067 16.4347 33.468 16.78C33.7387 17.116 34.0467 17.312 34.392 17.368C34.7747 17.4427 35.1293 17.382 35.456 17.186C35.7827 16.9807 35.96 16.6913 35.988 16.318C36.016 15.9353 35.8993 15.6273 35.638 15.394C35.3767 15.1607 35.05 15.058 34.658 15.086C34.5833 15.0953 34.4993 15.1047 34.406 15.114C34.322 15.114 34.2427 15.114 34.168 15.114C34.084 15.114 34.0093 15.1187 33.944 15.128C33.8787 15.128 33.832 15.128 33.804 15.128Z" fill="white"/>
</svg>
