<svg xmlns="http://www.w3.org/2000/svg" width="24" height="25" viewBox="0 0 24 25" fill="none">
  <path fill-rule="evenodd" clip-rule="evenodd" d="M8 7.5C8 6.43913 8.42143 5.42172 9.17157 4.67157C9.92172 3.92143 10.9391 3.5 12 3.5C13.0609 3.5 14.0783 3.92143 14.8284 4.67157C15.5786 5.42172 16 6.43913 16 7.5C16 8.56087 15.5786 9.57828 14.8284 10.3284C14.0783 11.0786 13.0609 11.5 12 11.5C10.9391 11.5 9.92172 11.0786 9.17157 10.3284C8.42143 9.57828 8 8.56087 8 7.5ZM8 13.5C6.67392 13.5 5.40215 14.0268 4.46447 14.9645C3.52678 15.9021 3 17.1739 3 18.5C3 19.2956 3.31607 20.0587 3.87868 20.6213C4.44129 21.1839 5.20435 21.5 6 21.5H18C18.7956 21.5 19.5587 21.1839 20.1213 20.6213C20.6839 20.0587 21 19.2956 21 18.5C21 17.1739 20.4732 15.9021 19.5355 14.9645C18.5979 14.0268 17.3261 13.5 16 13.5H8Z" fill="white"/>
</svg>