<svg width="62" height="63" viewBox="0 0 62 63" fill="none" xmlns="http://www.w3.org/2000/svg">
<path d="M61.0311 0.508764C61.7923 1.07017 62.1037 1.81871 61.9653 2.75438L53.1082 56.6491C52.9928 57.3275 52.6238 57.8538 52.001 58.2281C51.6781 58.4152 51.3206 58.5088 50.9285 58.5088C50.6747 58.5088 50.398 58.4503 50.0981 58.3333L31.8648 50.7895L21.5546 62.2632C21.1394 62.7544 20.5974 63 19.9285 63C19.6055 63 19.3403 62.9532 19.1327 62.8596C18.6945 62.6959 18.3485 62.4211 18.0948 62.0351C17.841 61.6491 17.7142 61.2222 17.7142 60.7544V44.8947L1.38382 38.1228C0.5304 37.7953 0.06909 37.152 -0.000106467 36.193C-0.0693029 35.2807 0.299745 34.5906 1.10704 34.1228L58.6785 0.438589C59.4858 -0.0526394 60.27 -0.0292476 61.0311 0.508764ZM49.1986 53.1053L56.8448 6.6842L7.23092 35.7018L18.8559 40.5088L48.7142 18.0877L32.1762 46.0526L49.1986 53.1053Z" fill="#2563EB"/>
</svg>
