<svg width="67" height="49" viewBox="0 0 67 49" fill="none" xmlns="http://www.w3.org/2000/svg">
<path d="M60.8333 0.166504C62.3681 0.166019 63.8463 0.745657 64.9717 1.78922C66.097 2.83279 66.7864 4.26316 66.9015 5.79359L66.9167 6.24984V42.7498C66.9172 44.2846 66.3375 45.7628 65.2939 46.8882C64.2504 48.0135 62.82 48.7029 61.2896 48.818L60.8333 48.8332H12.1667C10.6319 48.8337 9.15369 48.254 8.02833 47.2105C6.90297 46.1669 6.21365 44.7365 6.09854 43.2061L6.08333 42.7498V39.7082H12.1667V42.7498H60.8333V10.5508L39.7242 31.6599C38.9257 32.4582 37.8597 32.9321 36.7321 32.99C35.6045 33.0479 34.4955 32.6856 33.6195 31.9732L33.2728 31.6599L12.1667 10.5508V12.3332H6.08333V6.24984C6.08285 4.71508 6.66249 3.23686 7.70605 2.1115C8.74962 0.986144 10.18 0.296819 11.7104 0.181713L12.1667 0.166504H60.8333ZM18.25 27.5415C19.0567 27.5415 19.8304 27.862 20.4008 28.4324C20.9712 29.0028 21.2917 29.7765 21.2917 30.5832C21.2917 31.3899 20.9712 32.1635 20.4008 32.734C19.8304 33.3044 19.0567 33.6248 18.25 33.6248H3.04167C2.23497 33.6248 1.46131 33.3044 0.890884 32.734C0.32046 32.1635 0 31.3899 0 30.5832C0 29.7765 0.32046 29.0028 0.890884 28.4324C1.46131 27.862 2.23497 27.5415 3.04167 27.5415H18.25ZM56.5324 6.24984H16.4676L36.5 26.2823L56.5324 6.24984ZM15.2083 18.4165C15.9836 18.4174 16.7293 18.7142 17.293 19.2464C17.8567 19.7786 18.196 20.506 18.2414 21.2799C18.2868 22.0538 18.035 22.8159 17.5374 23.4104C17.0399 24.0049 16.334 24.387 15.5642 24.4785L15.2083 24.4998H6.08333C5.30807 24.499 4.5624 24.2021 3.99867 23.6699C3.43494 23.1377 3.0957 22.4104 3.05027 21.6364C3.00483 20.8625 3.25663 20.1004 3.75422 19.5059C4.25181 18.9114 4.95762 18.5294 5.72746 18.4378L6.08333 18.4165H15.2083Z" fill="#D7DCE3"/>
</svg>
