<svg xmlns="http://www.w3.org/2000/svg" width="29" height="32" viewBox="0 0 29 32" fill="none">
  <path d="M5 8.5V24.5C5 25.05 4.55 25.5 4 25.5C3.45 25.5 3 25.95 3 26.5V28.5C3 30.16 4.34 31.5 6 31.5H26C27.66 31.5 29 30.16 29 28.5V8.5C29 6.84 27.66 5.5 26 5.5H8C6.34 5.5 5 6.84 5 8.5Z" fill="#F0F1F3"/>
  <path d="M3 21.5V6.5C3 4.84 4.34 3.5 6 3.5H7" stroke="#4A5662" stroke-width="1.5" stroke-linecap="round" stroke-linejoin="round"/>
  <path d="M19.5 6.5C18.76 6.5 18.17 5.38 18.17 4C18.17 2.62 18.77 1.5 19.5 1.5C20.14 1.5 20.68 2.36 20.81 3.5H24C25.66 3.5 27 4.84 27 6.5V27C27 28.38 25.88 29.5 24.5 29.5H5" stroke="#4A5662" stroke-width="1.5" stroke-linecap="round" stroke-linejoin="round"/>
  <path d="M10.4999 6.5C9.75992 6.5 9.16992 5.38 9.16992 4C9.16992 2.62 9.76992 1.5 10.4999 1.5C11.1399 1.5 11.6799 2.36 11.8099 3.5H15.9999" stroke="#4A5662" stroke-width="1.5" stroke-linecap="round" stroke-linejoin="round"/>
  <path d="M27 23.5V27C27 28.38 25.88 29.5 24.5 29.5C23.12 29.5 22 28.38 22 27V26.5C22 24.84 20.66 23.5 19 23.5H4C2.34 23.5 1 24.84 1 26.5C1 28.16 2.34 29.5 4 29.5H23" stroke="#4A5662" stroke-width="1.5" stroke-linecap="round" stroke-linejoin="round"/>
  <path d="M8 13.5H22" stroke="#4A5662" stroke-width="1.5" stroke-linecap="round" stroke-linejoin="round"/>
  <path d="M21 17.5H22" stroke="#4A5662" stroke-width="1.5" stroke-linecap="round" stroke-linejoin="round"/>
  <path d="M8 17.5H18" stroke="#4A5662" stroke-width="1.5" stroke-linecap="round" stroke-linejoin="round"/>
</svg>