<svg xmlns="http://www.w3.org/2000/svg" width="29" height="29" viewBox="0 0 29 29" fill="none">
  <path d="M11.2703 5.07003C8.47033 6.22003 6.22033 8.48003 5.07033 11.27C2.99033 16.32 4.12033 21.23 6.99033 24.6L6.04033 26C5.17033 27.28 6.09033 29 7.63033 29H16.1403C22.7903 29 28.5403 23.96 28.9703 17.33C29.5503 8.34003 20.6203 1.22003 11.2603 5.06003L11.2703 5.07003Z" fill="#D0EDD5"/>
  <path d="M26.1802 12.59C25.3002 4.88001 17.2602 -0.649989 8.87018 2.79001C6.11018 3.92001 3.90018 6.14001 2.77018 8.91001C1.38018 12.31 1.47018 15.64 2.58018 18.46" stroke="black" stroke-width="1.5" stroke-linecap="round" stroke-linejoin="round"/>
  <path d="M3.85027 20.87C4.10027 21.24 4.37027 21.59 4.66027 21.93L3.81027 23.18C2.93027 24.48 3.86027 26.24 5.43027 26.24H13.6403C19.8503 26.24 25.2703 21.76 26.1403 15.72" stroke="black" stroke-width="1.5" stroke-linecap="round" stroke-linejoin="round"/>
  <path d="M14 15C14.5523 15 15 14.5523 15 14C15 13.4477 14.5523 13 14 13C13.4477 13 13 13.4477 13 14C13 14.5523 13.4477 15 14 15Z" fill="#040000"/>
  <path d="M19 15C19.5523 15 20 14.5523 20 14C20 13.4477 19.5523 13 19 13C18.4477 13 18 13.4477 18 14C18 14.5523 18.4477 15 19 15Z" fill="#040000"/>
  <path d="M9 15C9.55228 15 10 14.5523 10 14C10 13.4477 9.55228 13 9 13C8.44772 13 8 13.4477 8 14C8 14.5523 8.44772 15 9 15Z" fill="#040000"/>
</svg>