<svg xmlns="http://www.w3.org/2000/svg" width="29" height="26" viewBox="0 0 29 26" fill="none">
  <path d="M24.32 10.86H25.55L23.93 5.98996C23.43 4.47996 22.02 3.45996 20.44 3.45996H11.02C9.43996 3.45996 8.02996 4.47996 7.52996 5.98996L5.90996 10.86H7.13996C5.10996 10.86 3.45996 12.52 3.45996 14.56V20.72C3.45996 21.4 4.00996 21.95 4.68996 21.95H5.91996C5.23996 21.95 4.68996 22.5 4.68996 23.18V24.41C4.68996 25.09 5.23996 25.64 5.91996 25.64H8.36996C9.04996 25.64 9.59996 25.09 9.59996 24.41V23.18C9.59996 22.5 9.04996 21.95 8.36996 21.95H23.1C22.42 21.95 21.87 22.5 21.87 23.18V24.41C21.87 25.09 22.42 25.64 23.1 25.64H25.55C26.23 25.64 26.78 25.09 26.78 24.41V23.18C26.78 22.5 26.23 21.95 25.55 21.95H26.78C27.46 21.95 28.01 21.4 28.01 20.72V14.56C28.01 12.52 26.36 10.86 24.33 10.86H24.32Z" fill="#DDD7FF"/>
  <path d="M7.14016 14.5601C7.81947 14.5601 8.37016 14.0094 8.37016 13.3301C8.37016 12.6508 7.81947 12.1001 7.14016 12.1001C6.46085 12.1001 5.91016 12.6508 5.91016 13.3301C5.91016 14.0094 6.46085 14.5601 7.14016 14.5601Z" fill="#040000"/>
  <path d="M19.4102 14.5601C20.0895 14.5601 20.6402 14.0094 20.6402 13.3301C20.6402 12.6508 20.0895 12.1001 19.4102 12.1001C18.7309 12.1001 18.1802 12.6508 18.1802 13.3301C18.1802 14.0094 18.7309 14.5601 19.4102 14.5601Z" fill="#040000"/>
  <path d="M1 18.2599V12.0899C1 10.0499 2.65 8.3999 4.69 8.3999H21.86C23.9 8.3999 25.55 10.0499 25.55 12.0899V18.2599C25.55 18.9399 25 19.4899 24.32 19.4899H20.64" stroke="black" stroke-width="1.5" stroke-linecap="round" stroke-linejoin="round"/>
  <path d="M16.2802 19.49H3.4502" stroke="black" stroke-width="1.5" stroke-linecap="round" stroke-linejoin="round"/>
  <path d="M16.6602 1H17.9802C19.5602 1 20.9702 2.02 21.4702 3.53L23.0902 8.4H3.4502L5.0702 3.53C5.5702 2.02 6.9802 1 8.5602 1H13.9102" stroke="black" stroke-width="1.5" stroke-linecap="round" stroke-linejoin="round"/>
  <path d="M5.90998 19.49H3.45998C2.78067 19.49 2.22998 20.0407 2.22998 20.72V21.96C2.22998 22.6393 2.78067 23.19 3.45998 23.19H5.90998C6.58929 23.19 7.13998 22.6393 7.13998 21.96V20.72C7.13998 20.0407 6.58929 19.49 5.90998 19.49Z" stroke="black" stroke-width="1.5" stroke-linecap="round" stroke-linejoin="round"/>
  <path d="M23.0902 19.49H20.6402C19.9608 19.49 19.4102 20.0407 19.4102 20.72V21.96C19.4102 22.6393 19.9608 23.19 20.6402 23.19H23.0902C23.7695 23.19 24.3202 22.6393 24.3202 21.96V20.72C24.3202 20.0407 23.7695 19.49 23.0902 19.49Z" stroke="black" stroke-width="1.5" stroke-linecap="round" stroke-linejoin="round"/>
  <path d="M10.8198 15.79H15.7298" stroke="black" stroke-width="1.5" stroke-linecap="round" stroke-linejoin="round"/>
  <path d="M23.0898 8.3999H25.5498" stroke="black" stroke-width="1.5" stroke-linecap="round" stroke-linejoin="round"/>
  <path d="M1 8.3999H3.45" stroke="black" stroke-width="1.5" stroke-linecap="round" stroke-linejoin="round"/>
</svg>