<svg xmlns="http://www.w3.org/2000/svg" width="28" height="27" viewBox="0 0 28 27" fill="none">
  <path d="M5 3.5H13C14.1 3.5 15 4.4 15 5.5V12.5C15 15.81 12.31 18.5 9 18.5C5.69 18.5 3 15.81 3 12.5V5.5C3 4.4 3.9 3.5 5 3.5Z" fill="#FFCFAC"/>
  <path d="M12.66 12.49C11.84 14.82 9.61 16.5 7 16.5C3.69 16.5 1 13.81 1 10.5V7.5" stroke="black" stroke-width="1.5" stroke-linecap="round" stroke-linejoin="round"/>
  <path d="M1 4.5V1.5H13V9.5" stroke="black" stroke-width="1.5" stroke-linecap="round" stroke-linejoin="round"/>
  <path d="M27 1.5V9C27 11.76 24.76 14 22 14C19.24 14 17 11.76 17 9V1.5" stroke="black" stroke-width="1.5" stroke-linecap="round" stroke-linejoin="round"/>
  <path d="M7 25.5V16.5" stroke="black" stroke-width="1.5" stroke-linecap="round" stroke-linejoin="round"/>
  <path d="M22 25.5V1.5" stroke="black" stroke-width="1.5" stroke-linecap="round" stroke-linejoin="round"/>
  <path d="M3 25.5H11" stroke="black" stroke-width="1.5" stroke-linecap="round" stroke-linejoin="round"/>
</svg>