<svg xmlns="http://www.w3.org/2000/svg" width="29" height="28" viewBox="0 0 29 28" fill="none">
  <path d="M26 4H7C5.34315 4 4 5.34315 4 7V24C4 25.6569 5.34315 27 7 27H26C27.6569 27 29 25.6569 29 24V7C29 5.34315 27.6569 4 26 4Z" fill="#F9D3E3"/>
  <path d="M26.5 22.5V24.5C26.5 26.16 25.16 27.5 23.5 27.5H5.5C4.24 27.5 3.15 26.72 2.71 25.61C2.57 25.27 2.5 24.5 2.5 24.5C2.81 23.03 3.03 23.49 3.03 23.49" fill="#F9D3E3"/>
  <path d="M20.1399 2.75H23.3299C24.9899 2.75 26.3299 4.09 26.3299 5.75V17.38C26.3299 17.63 26.2999 17.87 26.2399 18.11L25.3999 21.48C25.0699 22.82 23.8699 23.75 22.4899 23.75H4.66992C2.71992 23.75 1.28992 21.92 1.75992 20.02L2.23992 18.11C2.29992 17.87 2.32992 17.63 2.32992 17.38V5.75C2.32992 4.09 3.66992 2.75 5.32992 2.75H5.99992" fill="white"/>
  <path d="M20.1399 2.75H23.3299C24.9899 2.75 26.3299 4.09 26.3299 5.75V17.38C26.3299 17.63 26.2999 17.87 26.2399 18.11L25.3999 21.48C25.0699 22.82 23.8699 23.75 22.4899 23.75H4.66992C2.71992 23.75 1.28992 21.92 1.75992 20.02L2.23992 18.11C2.29992 17.87 2.32992 17.63 2.32992 17.38V5.75C2.32992 4.09 3.66992 2.75 5.32992 2.75H5.99992" stroke="black" stroke-width="1.5" stroke-miterlimit="10" stroke-linecap="round"/>
  <path d="M8 11C8.55228 11 9 10.5523 9 10C9 9.44772 8.55228 9 8 9C7.44772 9 7 9.44772 7 10C7 10.5523 7.44772 11 8 11Z" fill="#F9D3E3"/>
  <path d="M14 11C14.5523 11 15 10.5523 15 10C15 9.44772 14.5523 9 14 9C13.4477 9 13 9.44772 13 10C13 10.5523 13.4477 11 14 11Z" fill="#F9D3E3"/>
  <path d="M20 11C20.5523 11 21 10.5523 21 10C21 9.44772 20.5523 9 20 9C19.4477 9 19 9.44772 19 10C19 10.5523 19.4477 11 20 11Z" fill="#F9D3E3"/>
  <path d="M8 15C8.55228 15 9 14.5523 9 14C9 13.4477 8.55228 13 8 13C7.44772 13 7 13.4477 7 14C7 14.5523 7.44772 15 8 15Z" fill="#F9D3E3"/>
  <path d="M14 15C14.5523 15 15 14.5523 15 14C15 13.4477 14.5523 13 14 13C13.4477 13 13 13.4477 13 14C13 14.5523 13.4477 15 14 15Z" fill="#F9D3E3"/>
  <path d="M20 15C20.5523 15 21 14.5523 21 14C21 13.4477 20.5523 13 20 13C19.4477 13 19 13.4477 19 14C19 14.5523 19.4477 15 20 15Z" fill="#F92887"/>
  <path d="M8 19C8.55228 19 9 18.5523 9 18C9 17.4477 8.55228 17 8 17C7.44772 17 7 17.4477 7 18C7 18.5523 7.44772 19 8 19Z" fill="#F9D3E3"/>
  <path d="M14 19C14.5523 19 15 18.5523 15 18C15 17.4477 14.5523 17 14 17C13.4477 17 13 17.4477 13 18C13 18.5523 13.4477 19 14 19Z" fill="#F9D3E3"/>
  <path d="M20 19C20.5523 19 21 18.5523 21 18C21 17.4477 20.5523 17 20 17C19.4477 17 19 17.4477 19 18C19 18.5523 19.4477 19 20 19Z" fill="#F9D3E3"/>
  <path d="M26.3297 23.8301V24.2501C26.3297 25.9101 24.9897 27.2501 23.3297 27.2501H5.32973C3.98973 27.2501 2.84973 26.3701 2.46973 25.1501" stroke="black" stroke-width="1.5" stroke-miterlimit="10" stroke-linecap="round"/>
  <path d="M18.8299 5.75C18.0899 5.75 17.4999 4.63 17.4999 3.25C17.4999 1.87 18.0999 0.75 18.8299 0.75C19.4699 0.75 20.0099 1.61 20.1399 2.75H23.3299C24.9899 2.75 26.3299 4.09 26.3299 5.75V17.38C26.3299 17.63 26.2999 17.87 26.2399 18.11L25.3999 21.48C25.0699 22.82 23.8699 23.75 22.4899 23.75H4.66992C2.71992 23.75 1.28992 21.92 1.75992 20.02L2.23992 18.11C2.29992 17.87 2.32992 17.63 2.32992 17.38V5.75C2.32992 4.09 3.66992 2.75 5.32992 2.75H5.99992" stroke="black" stroke-width="1.5" stroke-miterlimit="10" stroke-linecap="round"/>
  <path d="M9.83 5.75C9.09 5.75 8.5 4.63 8.5 3.25C8.5 1.87 9.1 0.75 9.83 0.75C10.47 0.75 11.01 1.61 11.14 2.75H15" stroke="black" stroke-width="1.5" stroke-miterlimit="10" stroke-linecap="round"/>
</svg>