<svg width="24" height="24" viewBox="0 0 24 24" fill="none" xmlns="http://www.w3.org/2000/svg">
<g clip-path="url(#clip0_1435_9016)">
<path d="M16 0H8C3.58172 0 0 3.58172 0 8V16C0 20.4183 3.58172 24 8 24H16C20.4183 24 24 20.4183 24 16V8C24 3.58172 20.4183 0 16 0Z" fill="#2563EB"/>
<path d="M14 15H10V16H14V15Z" fill="white"/>
<path d="M8 15C8.55228 15 9 14.5523 9 14C9 13.4477 8.55228 13 8 13C7.44772 13 7 13.4477 7 14C7 14.5523 7.44772 15 8 15Z" fill="white"/>
<path d="M16 15C16.5523 15 17 14.5523 17 14C17 13.4477 16.5523 13 16 13C15.4477 13 15 13.4477 15 14C15 14.5523 15.4477 15 16 15Z" fill="white"/>
<path d="M18.99 15.59V6.41C18.99 5.08 17.9108 4 16.5817 4H7.40828C6.07923 4 5 5.08 5 6.41V15.58C5 16.68 5.73947 17.59 6.73876 17.89L5 19.2L5.59957 20L8.26767 18H15.7323L18.4004 20L19 19.2L17.2612 17.89C18.2605 17.6 19 16.68 19 15.58L18.99 15.59ZM7.40828 5H16.5717C17.2113 5 17.7409 5.42 17.9208 6H6.06924C6.24911 5.42 6.77873 5 7.41827 5H7.40828ZM17.9907 15.59C17.9907 16.37 17.3612 17 16.5817 17H7.40828C6.62884 17 5.99929 16.37 5.99929 15.59V12H17.9907V15.59ZM17.9907 11H5.99929V7H17.9907V11Z" fill="white"/>
</g>
<defs>
<clipPath id="clip0_1435_9016">
<rect width="24" height="24" fill="white"/>
</clipPath>
</defs>
</svg>
