<svg width="current" height="current" viewBox="0 0 18 18" fill="none" xmlns="http://www.w3.org/2000/svg">
<g clip-path="url(#clip0_3608_10916)">
<mask id="mask0_3608_10916" style="mask-type:luminance" maskUnits="userSpaceOnUse" x="0" y="0" width="18" height="18">
<path d="M1.57117 8.31487C1.56218 8.21132 1.57481 8.10703 1.60827 8.00861C1.64172 7.9102 1.69527 7.81981 1.7655 7.74319C1.83574 7.66657 1.92114 7.60539 2.01628 7.56352C2.11142 7.52166 2.21423 7.50002 2.31817 7.5H3.7503C3.94921 7.5 4.13997 7.57902 4.28063 7.71967C4.42128 7.86032 4.5003 8.05109 4.5003 8.25V15.375C4.5003 15.5739 4.42128 15.7647 4.28063 15.9053C4.13997 16.046 3.94921 16.125 3.7503 16.125H2.93805C2.75033 16.125 2.56942 16.0547 2.43105 15.9279C2.29268 15.801 2.20691 15.6269 2.19067 15.4399L1.57117 8.31487ZM6.7503 8.01562C6.7503 7.70212 6.94529 7.42162 7.22842 7.28812C7.8468 6.99637 8.90017 6.41025 9.3753 5.61787C9.98767 4.59637 10.1032 2.751 10.1219 2.32837C10.1245 2.26912 10.123 2.20987 10.1309 2.15137C10.2325 1.419 11.6459 2.27437 12.1878 3.17887C12.4822 3.66937 12.5197 4.314 12.4889 4.81762C12.4555 5.35612 12.2977 5.87625 12.1428 6.393L11.8128 7.49437H15.8842C16 7.49437 16.1143 7.52121 16.2181 7.5728C16.3219 7.62439 16.4123 7.69931 16.4822 7.79171C16.5521 7.8841 16.5997 7.99144 16.6212 8.10531C16.6427 8.21917 16.6375 8.33647 16.606 8.448L14.5923 15.579C14.5478 15.7363 14.4532 15.8747 14.3229 15.9733C14.1925 16.0718 14.0335 16.1251 13.87 16.125H7.5003C7.30138 16.125 7.11062 16.046 6.96997 15.9053C6.82931 15.7647 6.7503 15.5739 6.7503 15.375V8.01562Z" fill="white" stroke="white" stroke-width="2" stroke-linecap="round" stroke-linejoin="round"/>
</mask>
<g mask="url(#mask0_3608_10916)">
<path d="M0 0H18V18H0V0Z" fill="currentColor"/>
</g>
</g>
<defs>
<clipPath id="clip0_3608_10916">
<rect width="18" height="18" fill="currentColor"/>
</clipPath>
</defs>
</svg>
