<svg width="24" height="24" viewBox="0 0 24 24" fill="none" xmlns="http://www.w3.org/2000/svg">
<path d="M4.48307 5.96619L4.48352 5.96574C4.85461 5.59434 5.36647 5.36651 6.27618 5.24416C7.20746 5.1189 8.43704 5.11731 10.177 5.11731H13.8231C15.563 5.11731 16.7926 5.1189 17.7239 5.24416C18.6336 5.36651 19.1455 5.59434 19.5165 5.96574L19.517 5.96619C19.8884 6.33727 20.1162 6.84913 20.2386 7.75885C20.3638 8.69013 20.3654 9.9197 20.3654 11.6596V13.4827C20.3654 15.2226 20.3638 16.4522 20.2386 17.3835C20.1162 18.2932 19.8884 18.805 19.517 19.1761L19.5165 19.1766C19.1455 19.548 18.6336 19.7758 17.7239 19.8982C16.7926 20.0234 15.563 20.025 13.8231 20.025H10.177C8.43704 20.025 7.20746 20.0234 6.27618 19.8982C5.36647 19.7758 4.85461 19.548 4.48352 19.1766L4.48307 19.1761C4.11167 18.805 3.88384 18.2932 3.76149 17.3835C3.63624 16.4522 3.63464 15.2226 3.63464 13.4827V11.6596C3.63464 9.9197 3.63624 8.69013 3.76149 7.75885C3.88384 6.84913 4.11167 6.33727 4.48307 5.96619Z" stroke="#9CA3AF" stroke-width="1.5"/>
<path d="M7.78947 4.38462V3M16.2105 4.38462V3M4 9H20" stroke="#9CA3AF" stroke-width="1.5" stroke-linecap="round"/>
<path d="M17.4695 16.2173C17.4695 16.4591 17.3734 16.6909 17.2025 16.8619C17.0315 17.0328 16.7997 17.1288 16.5579 17.1288C16.3162 17.1288 16.0843 17.0328 15.9134 16.8619C15.7424 16.6909 15.6464 16.4591 15.6464 16.2173C15.6464 15.9755 15.7424 15.7437 15.9134 15.5727C16.0843 15.4018 16.3162 15.3058 16.5579 15.3058C16.7997 15.3058 17.0315 15.4018 17.2025 15.5727C17.3734 15.7437 17.4695 15.9755 17.4695 16.2173ZM17.4695 12.5711C17.4695 12.8129 17.3734 13.0448 17.2025 13.2157C17.0315 13.3866 16.7997 13.4827 16.5579 13.4827C16.3162 13.4827 16.0843 13.3866 15.9134 13.2157C15.7424 13.0448 15.6464 12.8129 15.6464 12.5711C15.6464 12.3294 15.7424 12.0975 15.9134 11.9266C16.0843 11.7556 16.3162 11.6596 16.5579 11.6596C16.7997 11.6596 17.0315 11.7556 17.2025 11.9266C17.3734 12.0975 17.4695 12.3294 17.4695 12.5711ZM12.9118 16.2173C12.9118 16.4591 12.8157 16.6909 12.6448 16.8619C12.4738 17.0328 12.242 17.1288 12.0002 17.1288C11.7585 17.1288 11.5266 17.0328 11.3557 16.8619C11.1847 16.6909 11.0887 16.4591 11.0887 16.2173C11.0887 15.9755 11.1847 15.7437 11.3557 15.5727C11.5266 15.4018 11.7585 15.3058 12.0002 15.3058C12.242 15.3058 12.4738 15.4018 12.6448 15.5727C12.8157 15.7437 12.9118 15.9755 12.9118 16.2173ZM12.9118 12.5711C12.9118 12.8129 12.8157 13.0448 12.6448 13.2157C12.4738 13.3866 12.242 13.4827 12.0002 13.4827C11.7585 13.4827 11.5266 13.3866 11.3557 13.2157C11.1847 13.0448 11.0887 12.8129 11.0887 12.5711C11.0887 12.3294 11.1847 12.0975 11.3557 11.9266C11.5266 11.7556 11.7585 11.6596 12.0002 11.6596C12.242 11.6596 12.4738 11.7556 12.6448 11.9266C12.8157 12.0975 12.9118 12.3294 12.9118 12.5711ZM8.35408 16.2173C8.35408 16.4591 8.25805 16.6909 8.0871 16.8619C7.91615 17.0328 7.6843 17.1288 7.44254 17.1288C7.20079 17.1288 6.96894 17.0328 6.79799 16.8619C6.62704 16.6909 6.53101 16.4591 6.53101 16.2173C6.53101 15.9755 6.62704 15.7437 6.79799 15.5727C6.96894 15.4018 7.20079 15.3058 7.44254 15.3058C7.6843 15.3058 7.91615 15.4018 8.0871 15.5727C8.25805 15.7437 8.35408 15.9755 8.35408 16.2173ZM8.35408 12.5711C8.35408 12.8129 8.25805 13.0448 8.0871 13.2157C7.91615 13.3866 7.6843 13.4827 7.44254 13.4827C7.20079 13.4827 6.96894 13.3866 6.79799 13.2157C6.62704 13.0448 6.53101 12.8129 6.53101 12.5711C6.53101 12.3294 6.62704 12.0975 6.79799 11.9266C6.96894 11.7556 7.20079 11.6596 7.44254 11.6596C7.6843 11.6596 7.91615 11.7556 8.0871 11.9266C8.25805 12.0975 8.35408 12.3294 8.35408 12.5711Z" fill="#9CA3AF"/>
</svg>
