<svg width="36" height="36" viewBox="0 0 36 36" fill="none" xmlns="http://www.w3.org/2000/svg">
<path d="M26.91 7C28.06 7 29 7.94 29 9.09V26.91C29 28.06 28.06 29 26.91 29H9.09C7.94 29 7 28.06 7 26.91V9.09C7 7.94 7.94 7 9.09 7H26.91ZM26.91 5H9.09C6.83 5 5 6.83 5 9.09V26.91C5 29.17 6.83 31 9.09 31H26.91C29.17 31 31 29.17 31 26.91V9.09C31 6.83 29.17 5 26.91 5Z" fill="black"/>
<path d="M18.41 15L27.7 5.71002C28.05 5.36002 28.5 5.17001 28.99 5.17001C29.48 5.17001 29.94 5.36002 30.28 5.71002C30.62 6.06002 30.82 6.51002 30.82 7.00002C30.82 7.49002 30.63 7.95001 30.28 8.29001L20.99 17.58L18.4 14.99L18.41 15Z" fill="white"/>
<path d="M29 6.17C29.13 6.17 29.37 6.2 29.59 6.41C29.81 6.62 29.83 6.87 29.83 7C29.83 7.13 29.8 7.37 29.59 7.59L21 16.18L19.83 15.01L28.42 6.42C28.63 6.21 28.88 6.17999 29.01 6.17999M29.01 4.17999C28.29 4.17999 27.56 4.45999 27.01 5.00999L17.01 15.01L21.01 19.01L31.01 9.00999C32.11 7.90999 32.11 6.10999 31.01 5.00999C30.46 4.45999 29.73 4.17999 29.01 4.17999Z" fill="black"/>
<path d="M17 15L16 20L21 19L17 15Z" fill="black"/>
</svg>
