<svg width="36" height="36" viewBox="0 0 36 36" fill="none" xmlns="http://www.w3.org/2000/svg">
<path d="M27 5C26.45 5 26 5.45 26 6V9C26 9.55 26.45 10 27 10C27.55 10 28 9.55 28 9V6C28 5.45 27.55 5 27 5Z" fill="black"/>
<path d="M30 8H27C26.45 8 26 8.45 26 9C26 9.55 26.45 10 27 10H30C30.55 10 31 9.55 31 9C31 8.45 30.55 8 30 8Z" fill="black"/>
<path d="M13 12C15.21 12 17 13.79 17 16C17 18.21 15.21 20 13 20C10.79 20 9 18.21 9 16C9 13.79 10.79 12 13 12ZM13 10C9.69 10 7 12.69 7 16C7 19.31 9.69 22 13 22C16.31 22 19 19.31 19 16C19 12.69 16.31 10 13 10Z" fill="black"/>
<path d="M27 4C29.76 4 32 6.24 32 9C32 11.76 29.76 14 27 14C24.24 14 22 11.76 22 9C22 6.24 24.24 4 27 4ZM27 2C23.14 2 20 5.14 20 9C20 12.86 23.14 16 27 16C30.86 16 34 12.86 34 9C34 5.14 30.86 2 27 2Z" fill="black"/>
<path d="M13 22C17.15 22 20.67 24.61 21.88 28.22C22.33 29.57 21.41 31 20.12 31H5.88002C4.59002 31 3.67002 29.57 4.12002 28.22C5.34002 24.61 8.85002 22 13 22ZM13 20C8.08002 20 3.75002 23.05 2.22002 27.58C1.79002 28.86 2.00002 30.28 2.78002 31.38C3.52002 32.41 4.65002 33 5.87002 33H20.11C21.34 33 22.46 32.41 23.2 31.38C23.99 30.29 24.2 28.87 23.76 27.58C22.23 23.05 17.9 20 12.98 20H13Z" fill="black"/>
</svg>
