<svg width="36" height="36" viewBox="0 0 36 36" fill="none" xmlns="http://www.w3.org/2000/svg">
<path d="M18 4C18.55 4 19 4.45 19 5C19 5.55 18.55 6 18 6C17.45 6 17 5.55 17 5C17 4.45 17.45 4 18 4ZM18 2C16.35 2 15 3.35 15 5C15 6.65 16.35 8 18 8C19.65 8 21 6.65 21 5C21 3.35 19.65 2 18 2Z" fill="black"/>
<path d="M17.9999 8C19.3799 8 20.5599 8.87 20.9599 10.07C21.1099 10.52 20.7999 11 20.3699 11H15.6199C15.1899 11 14.8799 10.52 15.0299 10.07C15.4399 8.87 16.6099 8 17.9899 8M17.9899 6C15.7799 6 13.8299 7.38 13.1299 9.44C12.8499 10.27 12.9899 11.2 13.4999 11.91C13.9899 12.6 14.7799 13.01 15.6099 13.01H20.3599C21.1899 13.01 21.9799 12.6 22.4699 11.91C22.9799 11.2 23.1199 10.27 22.8399 9.44C22.1499 7.39 20.1999 6 17.9799 6H17.9899Z" fill="black"/>
<path d="M7 6C7.55 6 8 6.45 8 7C8 7.55 7.55 8 7 8C6.45 8 6 7.55 6 7C6 6.45 6.45 6 7 6ZM7 4C5.35 4 4 5.35 4 7C4 8.65 5.35 10 7 10C8.65 10 10 8.65 10 7C10 5.35 8.65 4 7 4Z" fill="black"/>
<path d="M6.99995 10C8.37995 10 9.55995 10.87 9.95995 12.07C10.1099 12.52 9.79995 13 9.36995 13H4.61995C4.18995 13 3.87995 12.52 4.02995 12.07C4.43995 10.87 5.60995 10 6.98995 10M6.98995 8C4.77995 8 2.82995 9.38 2.12995 11.44C1.84995 12.27 1.98995 13.2 2.49995 13.91C2.98995 14.6 3.77995 15.01 4.60995 15.01H9.35995C10.1899 15.01 10.9799 14.6 11.4699 13.91C11.9799 13.2 12.1199 12.27 11.8399 11.44C11.1499 9.39 9.19995 8 6.97995 8H6.98995Z" fill="black"/>
<path d="M29 6C29.55 6 30 6.45 30 7C30 7.55 29.55 8 29 8C28.45 8 28 7.55 28 7C28 6.45 28.45 6 29 6ZM29 4C27.35 4 26 5.35 26 7C26 8.65 27.35 10 29 10C30.65 10 32 8.65 32 7C32 5.35 30.65 4 29 4Z" fill="black"/>
<path d="M28.9999 10C30.3799 10 31.5599 10.87 31.9599 12.07C32.1099 12.52 31.7999 13 31.3699 13H26.6199C26.1899 13 25.8799 12.52 26.0299 12.07C26.4399 10.87 27.6099 10 28.9899 10M28.9899 8C26.7799 8 24.8299 9.38 24.1299 11.44C23.8499 12.27 23.9899 13.2 24.4999 13.91C24.9899 14.6 25.7799 15.01 26.6099 15.01H31.3599C32.1899 15.01 32.9799 14.6 33.4699 13.91C33.9799 13.2 34.1199 12.27 33.8399 11.44C33.1499 9.39 31.1999 8 28.9799 8H28.9899Z" fill="black"/>
<path d="M24.12 11H11.88C8.08028 11 5 14.0803 5 17.88V18.12C5 21.9197 8.08028 25 11.88 25H24.12C27.9197 25 31 21.9197 31 18.12V17.88C31 14.0803 27.9197 11 24.12 11Z" fill="white" stroke="black" stroke-width="2" stroke-miterlimit="10" stroke-linecap="round"/>
<path d="M18 28C19.1046 28 20 27.1046 20 26C20 24.8954 19.1046 24 18 24C16.8954 24 16 24.8954 16 26C16 27.1046 16.8954 28 18 28Z" fill="white"/>
<path d="M18 25C18.55 25 19 25.45 19 26C19 26.55 18.55 27 18 27C17.45 27 17 26.55 17 26C17 25.45 17.45 25 18 25ZM18 23C16.35 23 15 24.35 15 26C15 27.65 16.35 29 18 29C19.65 29 21 27.65 21 26C21 24.35 19.65 23 18 23Z" fill="black"/>
<path d="M15.6301 33C15.1101 33 14.6401 32.75 14.3301 32.32C14.0101 31.87 13.9201 31.28 14.1001 30.75C14.6501 29.1 16.2201 28 18.0101 28C19.8001 28 21.3601 29.11 21.9201 30.75C22.1001 31.28 22.0101 31.86 21.6901 32.32C21.3801 32.75 20.9101 33 20.3901 33H15.6401H15.6301Z" fill="white"/>
<path d="M17.9999 29C19.3799 29 20.5599 29.87 20.9599 31.07C21.1099 31.52 20.7999 32 20.3699 32H15.6199C15.1899 32 14.8799 31.52 15.0299 31.07C15.4399 29.87 16.6099 29 17.9899 29M17.9899 27C15.7799 27 13.8299 28.38 13.1299 30.44C12.8499 31.27 12.9899 32.2 13.4999 32.91C13.9899 33.6 14.7799 34.01 15.6099 34.01H20.3599C21.1899 34.01 21.9799 33.6 22.4699 32.91C22.9799 32.2 23.1199 31.27 22.8399 30.44C22.1499 28.39 20.1999 27 17.9799 27H17.9899Z" fill="black"/>
<path d="M7 26C8.10457 26 9 25.1046 9 24C9 22.8954 8.10457 22 7 22C5.89543 22 5 22.8954 5 24C5 25.1046 5.89543 26 7 26Z" fill="white"/>
<path d="M7 23C7.55 23 8 23.45 8 24C8 24.55 7.55 25 7 25C6.45 25 6 24.55 6 24C6 23.45 6.45 23 7 23ZM7 21C5.35 21 4 22.35 4 24C4 25.65 5.35 27 7 27C8.65 27 10 25.65 10 24C10 22.35 8.65 21 7 21Z" fill="black"/>
<path d="M4.62996 31C4.10996 31 3.63996 30.75 3.32996 30.32C3.00996 29.87 2.91996 29.28 3.09996 28.75C3.64996 27.1 5.21996 26 7.00996 26C8.79996 26 10.36 27.11 10.92 28.75C11.1 29.28 11.01 29.86 10.69 30.32C10.38 30.75 9.90996 31 9.38996 31H4.63996H4.62996Z" fill="white"/>
<path d="M6.99995 27C8.37995 27 9.55995 27.87 9.95995 29.07C10.1099 29.52 9.79995 30 9.36995 30H4.61995C4.18995 30 3.87995 29.52 4.02995 29.07C4.43995 27.87 5.60995 27 6.98995 27M6.98995 25C4.77995 25 2.82995 26.38 2.12995 28.44C1.84995 29.27 1.98995 30.2 2.49995 30.91C2.98995 31.6 3.77995 32.01 4.60995 32.01H9.35995C10.1899 32.01 10.9799 31.6 11.4699 30.91C11.9799 30.2 12.1199 29.27 11.8399 28.44C11.1499 26.39 9.19995 25 6.97995 25H6.98995Z" fill="black"/>
<path d="M29 26C30.1046 26 31 25.1046 31 24C31 22.8954 30.1046 22 29 22C27.8954 22 27 22.8954 27 24C27 25.1046 27.8954 26 29 26Z" fill="white"/>
<path d="M29 23C29.55 23 30 23.45 30 24C30 24.55 29.55 25 29 25C28.45 25 28 24.55 28 24C28 23.45 28.45 23 29 23ZM29 21C27.35 21 26 22.35 26 24C26 25.65 27.35 27 29 27C30.65 27 32 25.65 32 24C32 22.35 30.65 21 29 21Z" fill="black"/>
<path d="M26.6301 31C26.1101 31 25.6401 30.75 25.3301 30.32C25.0101 29.87 24.9201 29.28 25.1001 28.75C25.6501 27.1 27.2201 26 29.0101 26C30.8001 26 32.3601 27.11 32.9201 28.75C33.1001 29.28 33.0101 29.86 32.6901 30.32C32.3801 30.75 31.9101 31 31.3901 31H26.6401H26.6301Z" fill="white"/>
<path d="M28.9999 27C30.3799 27 31.5599 27.87 31.9599 29.07C32.1099 29.52 31.7999 30 31.3699 30H26.6199C26.1899 30 25.8799 29.52 26.0299 29.07C26.4399 27.87 27.6099 27 28.9899 27M28.9899 25C26.7799 25 24.8299 26.38 24.1299 28.44C23.8499 29.27 23.9899 30.2 24.4999 30.91C24.9899 31.6 25.7799 32.01 26.6099 32.01H31.3599C32.1899 32.01 32.9799 31.6 33.4699 30.91C33.9799 30.2 34.1199 29.27 33.8399 28.44C33.1499 26.39 31.1999 25 28.9799 25H28.9899Z" fill="black"/>
</svg>
