<svg width="36" height="36" viewBox="0 0 36 36" fill="none" xmlns="http://www.w3.org/2000/svg">
<path d="M28 4C28.55 4 29 4.45 29 5V13C29 13.55 28.55 14 28 14H8C7.45 14 7 13.55 7 13V5C7 4.45 7.45 4 8 4H28ZM28 2H8C6.34 2 5 3.34 5 5V13C5 14.66 6.34 16 8 16H28C29.66 16 31 14.66 31 13V5C31 3.34 29.66 2 28 2Z" fill="black"/>
<path d="M18 25C18.55 25 19 25.45 19 26C19 26.55 18.55 27 18 27C17.45 27 17 26.55 17 26C17 25.45 17.45 25 18 25ZM18 23C16.35 23 15 24.35 15 26C15 27.65 16.35 29 18 29C19.65 29 21 27.65 21 26C21 24.35 19.65 23 18 23Z" fill="black"/>
<path d="M17.9999 29C19.3799 29 20.5599 29.87 20.9599 31.07C21.1099 31.52 20.7999 32 20.3699 32H15.6199C15.1899 32 14.8799 31.52 15.0299 31.07C15.4399 29.87 16.6099 29 17.9899 29M17.9899 27C15.7799 27 13.8299 28.38 13.1299 30.44C12.8499 31.27 12.9899 32.2 13.4999 32.91C13.9899 33.6 14.7799 34.01 15.6099 34.01H20.3599C21.1899 34.01 21.9799 33.6 22.4699 32.91C22.9799 32.2 23.1199 31.27 22.8399 30.44C22.1499 28.39 20.1999 27 17.9799 27H17.9899Z" fill="black"/>
<path d="M7 23C7.55 23 8 23.45 8 24C8 24.55 7.55 25 7 25C6.45 25 6 24.55 6 24C6 23.45 6.45 23 7 23ZM7 21C5.35 21 4 22.35 4 24C4 25.65 5.35 27 7 27C8.65 27 10 25.65 10 24C10 22.35 8.65 21 7 21Z" fill="black"/>
<path d="M6.99995 27C8.37995 27 9.55995 27.87 9.95995 29.07C10.1099 29.52 9.79995 30 9.36995 30H4.61995C4.18995 30 3.87995 29.52 4.02995 29.07C4.43995 27.87 5.60995 27 6.98995 27M6.98995 25C4.77995 25 2.82995 26.38 2.12995 28.44C1.84995 29.27 1.98995 30.2 2.49995 30.91C2.98995 31.6 3.77995 32.01 4.60995 32.01H9.35995C10.1899 32.01 10.9799 31.6 11.4699 30.91C11.9799 30.2 12.1199 29.27 11.8399 28.44C11.1499 26.39 9.19995 25 6.97995 25H6.98995Z" fill="black"/>
<path d="M29 23C29.55 23 30 23.45 30 24C30 24.55 29.55 25 29 25C28.45 25 28 24.55 28 24C28 23.45 28.45 23 29 23ZM29 21C27.35 21 26 22.35 26 24C26 25.65 27.35 27 29 27C30.65 27 32 25.65 32 24C32 22.35 30.65 21 29 21Z" fill="black"/>
<path d="M28.9999 27C30.3799 27 31.5599 27.87 31.9599 29.07C32.1099 29.52 31.7999 30 31.3699 30H26.6199C26.1899 30 25.8799 29.52 26.0299 29.07C26.4399 27.87 27.6099 27 28.9899 27M28.9899 25C26.7799 25 24.8299 26.38 24.1299 28.44C23.8499 29.27 23.9899 30.2 24.4999 30.91C24.9899 31.6 25.7799 32.01 26.6099 32.01H31.3599C32.1899 32.01 32.9799 31.6 33.4699 30.91C33.9799 30.2 34.1199 29.27 33.8399 28.44C33.1499 26.39 31.1999 25 28.9799 25H28.9899Z" fill="black"/>
<path d="M18 12C19.6569 12 21 10.6569 21 9C21 7.34315 19.6569 6 18 6C16.3431 6 15 7.34315 15 9C15 10.6569 16.3431 12 18 12Z" fill="white"/>
<path d="M18 7C19.1 7 20 7.9 20 9C20 10.1 19.1 11 18 11C16.9 11 16 10.1 16 9C16 7.9 16.9 7 18 7ZM18 5C15.79 5 14 6.79 14 9C14 11.21 15.79 13 18 13C20.21 13 22 11.21 22 9C22 6.79 20.21 5 18 5Z" fill="black"/>
<path d="M13.2501 20C12.5401 20 11.8901 19.66 11.4601 19.06C11.0001 18.42 10.8801 17.58 11.1301 16.83C12.1001 13.94 14.8601 12 18.0001 12C21.1401 12 23.9001 13.94 24.8701 16.83C25.1201 17.58 25.0001 18.42 24.5401 19.06C24.1101 19.66 23.4601 20 22.7501 20H13.2501Z" fill="white"/>
<path d="M18 13C20.77 13 23.11 14.74 23.92 17.15C24.22 18.05 23.61 19 22.75 19H13.25C12.39 19 11.77 18.04 12.08 17.15C12.89 14.74 15.24 13 18 13ZM18 11C14.43 11 11.29 13.21 10.18 16.51C9.82 17.57 9.99999 18.74 10.65 19.64C11.27 20.5 12.22 21 13.25 21H22.75C23.78 21 24.73 20.51 25.35 19.64C26 18.74 26.17 17.57 25.82 16.51C24.71 13.22 21.57 11 18 11Z" fill="black"/>
</svg>
