<svg width="24" height="24" viewBox="0 0 24 24" fill="none" xmlns="http://www.w3.org/2000/svg">
<g clip-path="url(#clip0_3621_3746)">
<path d="M12.4998 15.6998C14.2671 15.6998 15.6998 14.2671 15.6998 12.4998C15.6998 10.7324 14.2671 9.2998 12.4998 9.2998C10.7324 9.2998 9.2998 10.7324 9.2998 12.4998C9.2998 14.2671 10.7324 15.6998 12.4998 15.6998Z" fill="#96A2AC"/>
<path d="M9.5 2.5L7.67 4.5H4.5C3.4 4.5 2.5 5.4 2.5 6.5V18.5C2.5 19.6 3.4 20.5 4.5 20.5H20.5C21.6 20.5 22.5 19.6 22.5 18.5V6.5C22.5 5.4 21.6 4.5 20.5 4.5H17.33L15.5 2.5H9.5ZM12.5 17.5C9.74 17.5 7.5 15.26 7.5 12.5C7.5 9.74 9.74 7.5 12.5 7.5C15.26 7.5 17.5 9.74 17.5 12.5C17.5 15.26 15.26 17.5 12.5 17.5Z" fill="#96A2AC"/>
</g>
<defs>
<clipPath id="clip0_3621_3746">
<rect width="24" height="24" fill="white" transform="translate(0.5 0.5)"/>
</clipPath>
</defs>
</svg>
