<svg width="82" height="82" viewBox="0 0 82 82" fill="none" xmlns="http://www.w3.org/2000/svg">
<rect width="82" height="82" rx="41" fill="#FF7EA5"/>
<path d="M13.2588 32.9659L61.5551 20.025L61.0375 18.0931L12.7412 31.0341L13.2588 32.9659ZM69.3197 49.0027L21.0234 61.9437L21.541 63.8756L69.8373 50.9346L69.3197 49.0027Z" fill="#FFEFFD" mask="url(#path-4-inside-1_5175_11230)"/>
<path d="M16.9956 40.7263L20.6555 54.3851L18.1841 55.0473L15.1662 43.7844L15.0907 43.8046L12.4484 46.6964L11.8468 44.4514L14.6374 41.3581L16.9956 40.7263ZM28.8749 52.3849C26.1394 53.1179 23.7049 52.0312 23.0228 49.7876L25.4187 49.1456C25.7924 50.2384 27.0424 50.7528 28.3441 50.404C29.8722 49.9945 30.6682 48.5882 30.2638 47.079C29.8442 45.5131 28.414 44.7033 26.8482 45.1229C25.7866 45.3871 25.1142 45.9717 24.8977 46.8992L22.6149 47.5109L21.3725 39.5535L29.447 37.3899L29.998 39.4463L23.9421 41.069L24.4976 44.8024L24.6297 44.767C24.9962 44.0218 25.8798 43.3199 26.9929 43.0217C29.5397 42.3392 31.918 43.7442 32.6207 46.3666C33.3536 49.1021 31.8179 51.5963 28.8749 52.3849ZM40.9867 49.1395C37.7041 50.0191 35.0596 47.998 33.8615 43.5268C32.6685 39.0745 33.9431 35.983 37.2257 35.1034C40.4895 34.2289 43.1579 36.2638 44.3509 40.7162C45.5489 45.1873 44.2693 48.2599 40.9867 49.1395ZM40.4357 47.0832C42.1525 46.6231 42.7591 44.661 41.8795 41.3784C41.005 38.1146 39.4696 36.686 37.7717 37.1409C36.0738 37.5959 35.4584 39.6008 36.333 42.8646C37.2125 46.1472 38.7189 47.5432 40.4357 47.0832ZM53.3249 45.8335C50.0423 46.7131 47.3978 44.6919 46.1997 40.2208C45.0067 35.7684 46.2813 32.677 49.5639 31.7974C52.8277 30.9229 55.4961 32.9578 56.6891 37.4101C57.8871 41.8813 56.6075 44.9539 53.3249 45.8335ZM52.7739 43.7771C54.4907 43.3171 55.0973 41.355 54.2177 38.0724C53.3431 34.8086 51.8078 33.3799 50.1099 33.8349C48.412 34.2899 47.7966 36.2948 48.6711 39.5585C49.5507 42.8412 51.0571 44.2372 52.7739 43.7771ZM60.7074 43.6532L57.0476 29.9944L62.1791 28.6194C65.3108 27.7802 67.5004 29.2358 68.203 31.8581C68.9057 34.4805 67.7133 36.822 64.5627 37.6662L61.9215 38.3739L63.16 42.996L60.7074 43.6532ZM61.3806 36.3553L63.6822 35.7385C65.5311 35.2431 66.0831 33.9831 65.6939 32.5304C65.2996 31.0589 64.2016 30.2815 62.3527 30.7769L60.0511 31.3936L61.3806 36.3553Z" fill="#FFEFFD"/>
<rect x="4" y="4" width="74" height="74" rx="37" stroke="#FFEFFD" stroke-width="1.5"/>
</svg>
