<svg width="83" height="82" viewBox="0 0 83 82" fill="none" xmlns="http://www.w3.org/2000/svg">
<rect x="0.5" width="82" height="82" rx="41" fill="#FAD9D4"/>
<path d="M15.7588 33.9659L60.1914 22.0602L59.6738 20.1284L15.2412 32.0341L15.7588 33.9659ZM67.4383 49.1062L23.0058 61.0118L23.5234 62.9437L67.956 51.038L67.4383 49.1062Z" fill="#FF8FB0" mask="url(#path-3-inside-1_5175_11301)"/>
<path d="M29.5522 36.7111L33.2121 50.3699L30.7407 51.0321L27.7228 39.7693L27.6473 39.7895L25.005 42.6813L24.4034 40.4363L27.194 37.343L29.5522 36.7111ZM41.6201 48.3192C38.3375 49.1987 35.693 47.1776 34.495 42.7064C33.302 38.2541 34.5765 35.1626 37.8592 34.283C41.123 33.4085 43.7913 35.4435 44.9843 39.8958C46.1824 44.367 44.9028 47.4396 41.6201 48.3192ZM41.0691 46.2628C42.7859 45.8028 43.3925 43.8406 42.5129 40.558C41.6384 37.2942 40.103 35.8656 38.4051 36.3205C36.7072 36.7755 36.0919 38.7804 36.9664 42.0442C37.846 45.3268 39.3524 46.7228 41.0691 46.2628ZM49.0027 46.1388L45.3428 32.48L50.4743 31.105C53.606 30.2659 55.7956 31.7214 56.4983 34.3438C57.2009 36.9661 56.0085 39.3076 52.858 40.1518L50.2168 40.8595L51.4552 45.4816L49.0027 46.1388ZM49.6759 38.8409L51.9775 38.2242C53.8263 37.7288 54.3784 36.4688 53.9891 35.0161C53.5949 33.5446 52.4968 32.7671 50.648 33.2625L48.3464 33.8792L49.6759 38.8409Z" fill="#F73972"/>
<rect x="5.25" y="4.75" width="72.5" height="72.5" rx="36.25" stroke="#FF7EA5" stroke-width="1.5"/>
</svg>
