<svg width="24" height="25" viewBox="0 0 24 25" fill="none" xmlns="http://www.w3.org/2000/svg">
<path d="M15.6545 19.0698C15.3132 19.1373 7.21886 20.1629 7.21886 20.1629C7.21886 20.1629 7.04824 21.5973 7.28636 22.0754C7.52449 22.5536 9.06199 23.6467 11.9645 23.6467C14.867 23.6467 16.472 22.7242 16.712 22.1786C16.952 21.6329 16.6089 19.3098 16.6089 19.3098L15.6545 19.0698Z" fill="#77A3AB"/>
<path d="M6.38807 8.53271L0.877441 11.0846C0.877441 11.0846 1.31807 16.2765 4.76432 19.119C9.72369 23.2083 17.1487 21.9896 20.5706 17.9883C23.6943 14.3358 23.1224 9.49084 23.1224 9.49084L6.38807 8.53271Z" fill="#A7D0D6"/>
<path d="M0.740731 9.96886C0.586981 12.1945 2.80323 14.9151 11.9401 15.0182C21.4689 15.1251 24.8457 10.432 22.712 7.97949C20.5782 5.52699 15.3882 5.24199 11.7976 5.27761C8.20698 5.31324 0.990106 6.35574 0.740731 9.96886Z" fill="#77A3AC"/>
<path d="M1.9424 10.8764C1.9424 10.8764 1.84302 10.4132 2.00427 9.92948C2.16552 9.44573 2.45427 9.30511 2.49552 9.14948C2.53677 8.99386 2.14115 8.17073 2.80865 7.08886C3.47615 6.00698 3.90927 6.23573 4.09302 6.00698C4.27677 5.77823 4.2674 5.00573 5.09615 4.26886C5.9249 3.53198 6.68427 3.60136 6.68427 3.60136C6.68427 3.60136 7.05365 2.63386 7.9499 2.26636C8.84615 1.89886 9.7499 2.12573 9.7499 2.12573C9.7499 2.12573 10.5561 1.38886 11.6849 1.36636C12.8136 1.34386 13.1361 1.66636 13.3893 1.68886C13.6424 1.71136 14.2405 1.41323 15.2999 1.80323C16.3593 2.19511 16.3743 2.78948 16.6124 2.88511C16.8505 2.98073 17.488 2.79323 18.4555 3.57511C19.423 4.35698 19.2636 4.71698 19.4005 4.86511C19.5355 5.01323 20.4449 5.01886 20.9436 6.29198C21.3111 7.22948 21.1143 7.91761 21.1518 8.01886C21.1893 8.12011 21.7105 8.66198 21.9355 9.21698C22.1436 9.73448 22.2355 10.4601 22.2355 10.4601C22.2355 10.4601 21.7518 11.3076 20.5799 12.0782C19.3405 12.8939 5.4224 12.9295 4.4999 12.6351C2.90615 12.1307 1.9424 10.8764 1.9424 10.8764Z" fill="#CDCBC0"/>
<path d="M3.46336 9.47188C3.46336 9.47188 3.36023 8.31313 3.67148 7.67563C4.10836 6.7775 4.96148 6.68563 4.96148 6.68563C4.96148 6.68563 5.05711 5.66188 5.79023 5.0975C6.68836 4.4075 7.03336 4.59125 7.33336 4.31375C7.63336 4.03813 7.81711 3.55438 8.55398 3.23188C9.29086 2.90938 9.88898 3.1175 10.1421 3.00125C10.3952 2.885 10.8002 2.4125 11.6065 2.35813C12.6434 2.28875 12.7109 2.69 13.3052 2.75375C13.7271 2.79875 14.0421 2.54938 14.9402 2.825C15.8384 3.10063 15.8684 3.64438 16.1534 3.83C16.4384 4.01563 17.1415 3.845 17.9027 4.42813C18.5927 4.95688 18.5852 5.44625 18.7784 5.64875C18.9696 5.85125 19.5377 5.92438 19.9521 7.00813C20.2971 7.91 20.0421 8.17625 20.1359 8.45938C20.2296 8.7425 20.7434 9.03875 21.0565 9.88625C21.4484 10.9456 21.3321 11.4988 21.3321 11.4988C21.3321 11.4988 19.444 14.0131 11.0627 13.9156C5.02898 13.8463 2.86523 11.7519 2.86523 11.7519C2.86523 11.7519 2.77336 10.6231 3.00398 10.1863C3.23461 9.74938 3.46336 9.47188 3.46336 9.47188Z" fill="white"/>
<path d="M11.4693 13.297C11.6549 13.7151 12.3861 13.7845 13.0011 13.0964C13.5524 12.4776 13.2299 11.5251 12.6393 11.6058C12.1011 11.6789 12.2774 12.2376 12.0205 12.4514C11.7636 12.6651 11.308 12.9333 11.4693 13.297ZM14.3436 10.7451C14.503 11.0864 15.4593 11.0133 15.8211 10.3833C16.183 9.75138 16.1305 8.82888 15.6055 8.83825C14.9211 8.85138 15.1761 9.55075 14.9343 9.7645C14.6924 9.97825 14.0755 10.1676 14.3436 10.7451ZM18.0374 7.26513C17.6436 7.39263 17.8499 7.91013 17.6886 8.25888C17.5274 8.60763 17.098 8.99763 17.4336 9.29388C17.7693 9.59013 18.5343 9.10638 18.643 8.36763C18.748 7.62888 18.4536 7.132 18.0374 7.26513ZM16.3761 11.9376C16.1249 12.3408 15.6505 12.1383 15.5568 12.5564C15.463 12.9726 16.4305 13.1208 16.9668 12.6239C17.5049 12.127 17.3568 11.2814 17.0211 11.2139C16.6855 11.1445 16.5768 11.6151 16.3761 11.9376ZM14.8611 7.33638C15.0824 7.58388 15.9693 7.32138 16.2636 6.43825C16.558 5.55513 15.9768 4.98513 15.5849 5.18575C15.193 5.38638 15.4724 5.812 15.3786 6.08763C15.2849 6.36325 14.428 6.85263 14.8611 7.33638Z" fill="#D4D4D4"/>
</svg>
