<svg width="24" height="24" viewBox="0 0 24 24" fill="none" xmlns="http://www.w3.org/2000/svg">
<path d="M10.5 4C14.08 4 17 6.92 17 10.5C17 14.08 14.08 17 10.5 17C6.92 17 4 14.08 4 10.5C4 6.92 6.92 4 10.5 4ZM10.5 2C5.81 2 2 5.81 2 10.5C2 15.19 5.81 19 10.5 19C15.19 19 19 15.19 19 10.5C19 5.81 15.19 2 10.5 2Z" fill="#96A2AC"/>
<path d="M16.71 15.71C16.45 15.71 16.2 15.81 16 16C15.61 16.39 15.61 17.02 16 17.41L20.49 21.9C20.69 22.1 20.94 22.19 21.2 22.19C21.46 22.19 21.71 22.09 21.91 21.9C22.3 21.51 22.3 20.88 21.91 20.49L17.42 16C17.22 15.8 16.97 15.71 16.71 15.71Z" fill="#96A2AC"/>
</svg>
