<svg xmlns="http://www.w3.org/2000/svg" width="17" height="16" viewBox="0 0 17 16" fill="none">
  <path d="M4 8C4 6.89543 3.10457 6 2 6C0.89543 6 0 6.89543 0 8V14C0 15.1046 0.89543 16 2 16C3.10457 16 4 15.1046 4 14V8Z" fill="currentColor"/>
  <path d="M11.91 4.39C12.2 3.51 12.07 2.55 11.56 1.78L10.95 0.87C10.59 0.33 9.98 0 9.32 0C8.24 0 7.37 0.87 7.37 1.95V2.75C7.37 3.55 6.68 4.31 6.12 4.87L5.88 5.11C5.32 5.67 5 6.44 5 7.23V13.99C5 15.09 5.9 15.99 7 15.99H12.02C12.84 15.99 13.57 15.49 13.88 14.73L15.86 8.73C16.39 7.42 15.42 5.99 14 5.99H11.37L11.91 4.38V4.39Z" fill="currentColor"/>
</svg>