<svg width="20" height="21" viewBox="0 0 20 21" fill="none" xmlns="http://www.w3.org/2000/svg">
<path d="M17.8 13.5998C17.35 12.7098 17.11 11.7098 17.11 10.7098V8.05979C17.11 7.67979 17.08 7.29979 17.03 6.91979C16.95 6.36979 16.44 5.98979 15.9 6.06979C15.35 6.14979 14.97 6.64979 15.05 7.19979C15.09 7.47979 15.11 7.76979 15.11 8.05979V10.7098C15.11 12.0198 15.42 13.3298 16 14.4498V14.5798C16 14.8198 15.8 15.0098 15.56 15.0098H2.44C2.2 15.0098 2 14.8198 2 14.5798V14.5098C2.58 13.3398 2.89 12.0298 2.89 10.7198V8.06979C2.89 4.72979 5.63 2.00979 9 2.00979C9.9 2.00979 10.76 2.19979 11.57 2.56979C12.07 2.79979 12.66 2.57979 12.9 2.07979C13.13 1.57979 12.91 0.979786 12.41 0.749786C11.34 0.259786 10.19 0.00978629 9 0.00978629C4.53 -0.000213706 0.89 3.61979 0.89 8.05979V10.7098C0.89 11.7098 0.65 12.7098 0.2 13.6098C0.0700001 13.8698 0 14.1598 0 14.4498V14.5798C0 15.9198 1.09 17.0098 2.44 17.0098H5.14C5.59 18.7298 7.14 20.0098 9 20.0098C10.86 20.0098 12.41 18.7298 12.86 17.0098H15.56C16.9 17.0098 18 15.9198 18 14.5798V14.4498C18 14.1598 17.93 13.8698 17.8 13.6098V13.5998ZM9 17.9998C8.26 17.9998 7.63 17.5898 7.28 16.9998H10.72C10.37 17.5898 9.74 17.9998 9 17.9998Z" fill="black"/>
<path d="M16.5498 5C17.9305 5 19.0498 3.88071 19.0498 2.5C19.0498 1.11929 17.9305 0 16.5498 0C15.1691 0 14.0498 1.11929 14.0498 2.5C14.0498 3.88071 15.1691 5 16.5498 5Z" fill="url(#paint0_linear_6_2)"/>
<defs>
<linearGradient id="paint0_linear_6_2" x1="14.1196" y1="-9.71935e-08" x2="19.9939" y2="1.59444" gradientUnits="userSpaceOnUse">
<stop stop-color="#FFAC6F"/>
<stop offset="0.516428" stop-color="#FF9141"/>
<stop offset="0.878472" stop-color="#FF6B6B"/>
<stop offset="1" stop-color="#FF9AB3"/>
</linearGradient>
</defs>
</svg>
