<svg xmlns="http://www.w3.org/2000/svg" width="20" height="20" viewBox="0 0 20 20" fill="none">
  <path d="M13.5 12.83C13.5 12.1 12.9 11.5 12.17 11.5H7.83C7.1 11.5 6.5 12.1 6.5 12.83V19.5H3C1.62 19.49 0.5 18.38 0.5 17.02V9.08999C0.5 8.37999 0.81 7.70999 1.34 7.23999L8.34 1.10999C8.8 0.709989 9.39 0.48999 10 0.48999C10.61 0.48999 11.2 0.709989 11.66 1.10999L18.66 7.23999C19.2 7.70999 19.5 8.37999 19.5 9.08999V17.02C19.5 18.38 18.38 19.49 17 19.49H13.5V12.83Z" fill="#4A5662"/>
  <path d="M10 1C10.47 1 10.95 1.17 11.33 1.5L18.33 7.63C18.76 8 19 8.54 19 9.1V17.03C19 18.12 18.1 19 17 19H14V12.84C14 11.83 13.18 11.01 12.17 11.01H7.83C6.82 11.01 6 11.83 6 12.84V19.01H3C1.9 19.01 1 18.12 1 17.03V9.1C1 8.54 1.24 8 1.67 7.63L8.67 1.5C9.05 1.17 9.52 1 10 1ZM10 0C9.27 0 8.56 0.260002 8.01 0.740002L1.01 6.87C0.37 7.43 0 8.24 0 9.09V17.02C0 18.66 1.35 19.99 3 19.99H6L7 20V12.83C7 12.37 7.37 12 7.83 12H12.17C12.63 12 13 12.37 13 12.83V20H14L17 19.99C18.65 19.99 20 18.66 20 17.02V9.09C20 8.24 19.63 7.43 18.99 6.87L11.99 0.740002C11.44 0.260002 10.74 0 10 0Z" fill="#4A5662"/>
</svg>