<svg width="24" height="24" viewBox="0 0 24 24" fill="none" xmlns="http://www.w3.org/2000/svg">
<g clip-path="url(#clip0_4233_31553)">
<path d="M13 14H11V17H13V14Z" fill="#C3C6CC"/>
<path d="M14 16H10C9.45 16 9 16.45 9 17C9 17.55 9.45 18 10 18H14C14.55 18 15 17.55 15 17C15 16.45 14.55 16 14 16Z" fill="#C3C6CC"/>
<path d="M11.9999 4C12.7699 4 13.5399 4.41 13.9299 5.24L14.6999 6.89C14.9999 7.54 15.5999 7.99 16.3099 8.1L18.1999 8.39C19.9099 8.65 20.6099 10.77 19.3999 12.02L17.8999 13.57C17.4299 14.06 17.2099 14.74 17.3199 15.42L17.6599 17.49C17.8799 18.88 16.7899 19.99 15.5599 19.99C15.2199 19.99 14.8699 19.9 14.5299 19.72L13.0399 18.89C12.7199 18.71 12.3599 18.62 12.0099 18.62C11.6599 18.62 11.2999 18.71 10.9799 18.89L9.48988 19.72C9.14988 19.91 8.79988 19.99 8.45988 19.99C7.22988 19.99 6.12988 18.88 6.35988 17.49L6.69988 15.42C6.80988 14.75 6.58988 14.06 6.11988 13.57L4.61988 12.02C3.40988 10.77 4.10988 8.66 5.81988 8.39L7.70988 8.1C8.40988 7.99 9.00988 7.54 9.31988 6.89L10.0899 5.24C10.4699 4.42 11.2499 4 12.0199 4M12.0199 2C10.3999 2 8.95988 2.92 8.27988 4.39L7.50988 6.04C7.50988 6.04 7.44988 6.11 7.40988 6.12L5.51988 6.41C3.98988 6.65 2.72988 7.71 2.23988 9.18C1.73988 10.66 2.09988 12.28 3.18988 13.4L4.68988 14.95C4.68988 14.95 4.73988 15.04 4.72988 15.09L4.38988 17.16C4.18988 18.37 4.52988 19.59 5.31988 20.52C6.10988 21.45 7.25988 21.98 8.46988 21.98C9.15988 21.98 9.85988 21.8 10.4699 21.45L11.9599 20.62C11.9599 20.62 11.9999 20.61 12.0199 20.61C12.0399 20.61 12.0599 20.61 12.0799 20.62L13.5699 21.45C14.1899 21.79 14.8799 21.98 15.5699 21.98C16.7799 21.98 17.9199 21.45 18.7199 20.52C19.5099 19.6 19.8499 18.37 19.6499 17.16L19.3099 15.09C19.3099 15.04 19.3099 14.99 19.3499 14.95L20.8499 13.4C21.9299 12.28 22.2999 10.66 21.7999 9.18C21.2999 7.71 20.0499 6.64 18.5199 6.41L16.6299 6.12C16.6299 6.12 16.5499 6.08 16.5299 6.04L15.7599 4.39C15.0699 2.91 13.6399 2 12.0199 2Z" fill="#C3C6CC"/>
<path d="M12.9 10C12.9 10 13.16 11.49 13.2 11.8C13.28 12.46 12.66 13 12 13C11.34 13 10.72 12.46 10.8 11.8C10.84 11.49 11.1 10 11.1 10H12.9ZM14.58 8H9.42L9.13 9.65C9.07 10.01 8.86 11.22 8.81 11.55C8.71 12.39 8.98 13.25 9.55 13.9C10.17 14.6 11.06 15 11.99 15C12.92 15 13.82 14.6 14.43 13.9C15 13.25 15.27 12.4 15.17 11.55C15.13 11.22 14.92 10.01 14.85 9.65L14.56 8H14.58Z" fill="#C3C6CC"/>
</g>
<defs>
<clipPath id="clip0_4233_31553">
<rect width="24" height="24" fill="white"/>
</clipPath>
</defs>
</svg>
