<svg xmlns="http://www.w3.org/2000/svg" width="29" height="25" viewBox="0 0 29 25" fill="none">
  <path d="M25.87 25H6.13C6.13 23.27 4.73 21.87 3 21.87V6.13C4.73 6.13 6.13 4.73 6.13 3H25.87C25.87 4.73 27.27 6.13 29 6.13V21.87C27.27 21.87 25.87 23.27 25.87 25Z" fill="#CAD9FA"/>
  <path d="M11.18 5.75C11.73 5.75 12.18 6.2 12.18 6.75V9.39C12.18 9.94 11.73 10.39 11.18 10.39H8.54004C7.99004 10.39 7.54004 9.94 7.54004 9.39V6.75C7.54004 6.2 7.99004 5.75 8.54004 5.75H11.18ZM11.18 4.25H8.54004C7.16004 4.25 6.04004 5.37 6.04004 6.75V9.39C6.04004 10.77 7.16004 11.89 8.54004 11.89H11.18C12.56 11.89 13.68 10.77 13.68 9.39V6.75C13.68 5.37 12.56 4.25 11.18 4.25Z" fill="black"/>
  <path d="M10.3599 7.07007H9.35986C9.08372 7.07007 8.85986 7.29393 8.85986 7.57007V8.57007C8.85986 8.84621 9.08372 9.07007 9.35986 9.07007H10.3599C10.636 9.07007 10.8599 8.84621 10.8599 8.57007V7.57007C10.8599 7.29393 10.636 7.07007 10.3599 7.07007Z" fill="black"/>
  <path d="M10.3599 15.4299H9.35986C9.08372 15.4299 8.85986 15.6538 8.85986 15.9299V16.9299C8.85986 17.2061 9.08372 17.4299 9.35986 17.4299H10.3599C10.636 17.4299 10.8599 17.2061 10.8599 16.9299V15.9299C10.8599 15.6538 10.636 15.4299 10.3599 15.4299Z" fill="black"/>
  <path d="M18.71 7.07007H17.71C17.4338 7.07007 17.21 7.29393 17.21 7.57007V8.57007C17.21 8.84621 17.4338 9.07007 17.71 9.07007H18.71C18.9861 9.07007 19.21 8.84621 19.21 8.57007V7.57007C19.21 7.29393 18.9861 7.07007 18.71 7.07007Z" fill="black"/>
  <path d="M19.5399 5.75C20.0899 5.75 20.5399 6.2 20.5399 6.75V9.39C20.5399 9.94 20.0899 10.39 19.5399 10.39H16.8999C16.3499 10.39 15.8999 9.94 15.8999 9.39V6.75C15.8999 6.2 16.3499 5.75 16.8999 5.75H19.5399ZM19.5399 4.25H16.8999C15.5199 4.25 14.3999 5.37 14.3999 6.75V9.39C14.3999 10.77 15.5199 11.89 16.8999 11.89H19.5399C20.9199 11.89 22.0399 10.77 22.0399 9.39V6.75C22.0399 5.37 20.9199 4.25 19.5399 4.25Z" fill="black"/>
  <path d="M11.18 14.1101C11.73 14.1101 12.18 14.5601 12.18 15.1101V17.7501C12.18 18.3001 11.73 18.7501 11.18 18.7501H8.54004C7.99004 18.7501 7.54004 18.3001 7.54004 17.7501V15.1101C7.54004 14.5601 7.99004 14.1101 8.54004 14.1101H11.18ZM11.18 12.6101H8.54004C7.16004 12.6101 6.04004 13.7301 6.04004 15.1101V17.7501C6.04004 19.1301 7.16004 20.2501 8.54004 20.2501H11.18C12.56 20.2501 13.68 19.1301 13.68 17.7501V15.1101C13.68 13.7301 12.56 12.6101 11.18 12.6101Z" fill="black"/>
  <path d="M16.8201 13.1799H15.8901V14.1099H16.8201V13.1799Z" fill="black"/>
  <path d="M18.68 13.1799H17.75V14.1099H18.68V13.1799Z" fill="black"/>
  <path d="M15.89 14.1101H14.96V15.0401H15.89V14.1101Z" fill="black"/>
  <path d="M17.7498 14.1101H16.8198V15.0401H17.7498V14.1101Z" fill="black"/>
  <path d="M17.7498 15.04H16.8198V15.97H17.7498V15.04Z" fill="black"/>
  <path d="M16.8201 15.04H15.8901V15.97H16.8201V15.04Z" fill="black"/>
  <path d="M15.89 15.96H14.96V16.89H15.89V15.96Z" fill="black"/>
  <path d="M17.7498 15.96H16.8198V16.89H17.7498V15.96Z" fill="black"/>
  <path d="M20.5399 13.1799H19.6099V14.1099H20.5399V13.1799Z" fill="black"/>
  <path d="M19.6102 14.1101H18.6802V15.0401H19.6102V14.1101Z" fill="black"/>
  <path d="M20.5399 15.04H19.6099V15.97H20.5399V15.04Z" fill="black"/>
  <path d="M19.6102 15.96H18.6802V16.89H19.6102V15.96Z" fill="black"/>
  <path d="M19.6102 16.8899H18.6802V17.8199H19.6102V16.8899Z" fill="black"/>
  <path d="M18.68 16.8899H17.75V17.8199H18.68V16.8899Z" fill="black"/>
  <path d="M15.89 17.8201H14.96V18.7501H15.89V17.8201Z" fill="black"/>
  <path d="M17.7498 17.8201H16.8198V18.7501H17.7498V17.8201Z" fill="black"/>
  <path d="M20.5399 16.8899H19.6099V17.8199H20.5399V16.8899Z" fill="black"/>
  <path d="M19.6102 17.8201H18.6802V18.7501H19.6102V17.8201Z" fill="black"/>
  <path d="M9.85986 1.5H23.4999C23.4999 3.16 24.8399 4.5 26.4999 4.5V19.5C24.8399 19.5 23.4999 20.84 23.4999 22.5H20.9999" stroke="black" stroke-width="1.5" stroke-linecap="round" stroke-linejoin="round"/>
  <path d="M17.98 22.5H4.5C4.5 20.84 3.16 19.5 1.5 19.5V4.5C3.16 4.5 4.5 3.16 4.5 1.5H6.9" stroke="black" stroke-width="1.5" stroke-linecap="round" stroke-linejoin="round"/>
</svg>