<svg xmlns="http://www.w3.org/2000/svg" width="14" height="29" viewBox="0 0 14 29" fill="none">
  <path d="M12 22.35V4.48999C12 3.65999 11.33 2.98999 10.5 2.98999C9.67 2.98999 9 3.65999 9 4.48999V22.35C7.82 22.91 7 24.11 7 25.5C7 27.43 8.57 29 10.5 29C12.43 29 14 27.43 14 25.5C14 24.11 13.18 22.91 12 22.35Z" fill="#FFE792"/>
  <path d="M7.5 8.02999V20.84C6.32 21.4 5.5 22.6 5.5 23.99C5.5 25.92 7.07 27.49 9 27.49C10.93 27.49 12.5 25.92 12.5 23.99C12.5 22.6 11.68 21.4 10.5 20.84V2.98999C10.5 2.15999 9.83 1.48999 9 1.48999C8.17 1.48999 7.5 2.15999 7.5 2.98999V4.99999" stroke="black" stroke-width="1.5" stroke-linecap="round" stroke-linejoin="round"/>
  <path d="M1 12.71H3" stroke="black" stroke-width="1.5" stroke-linecap="round" stroke-linejoin="round"/>
  <path d="M2.29004 16.41L3.71004 15" stroke="black" stroke-width="1.5" stroke-linecap="round" stroke-linejoin="round"/>
  <path d="M2.29004 9L3.71004 10.41" stroke="black" stroke-width="1.5" stroke-linecap="round" stroke-linejoin="round"/>
</svg>