<svg xmlns="http://www.w3.org/2000/svg" width="64" height="64" viewBox="0 0 64 64" fill="none">
  <path d="M2 34.1994H5.6V40.0994H2V34.1994ZM58.3 18.3994H61.9V24.2994H58.3V18.3994Z" fill="#9F9F9F"/>
  <path d="M59.6995 21.6998L27.2995 10.3998C25.8995 9.89983 24.0995 10.2998 23.2995 11.2998L14.3995 22.8998L2.69953 38.1998C1.49953 39.6998 1.89953 41.5998 3.59953 42.3998L42.8995 59.6998C44.8995 60.5998 47.1995 59.6998 47.9995 57.7998L55.7995 38.9998L61.6995 24.9998C62.1995 23.7998 61.2995 22.2998 59.6995 21.6998Z" fill="#9F9F9F"/>
  <path d="M61.7004 19.1004C62.2004 17.9004 61.3004 16.4004 59.7004 15.8004L27.3004 4.50041C25.9004 4.00041 24.1004 4.40041 23.3004 5.40041L14.4004 17.0004L55.8004 33.1004L61.7004 19.1004Z" fill="#60A6F8"/>
  <path d="M14.3995 17L2.69953 32.3C1.49953 33.8 1.89953 35.7 3.59953 36.5L42.8995 53.8C44.8995 54.7 47.1995 53.8 47.9995 51.9L55.8995 33.1L14.3995 17Z" fill="#B8B8B8"/>
  <path opacity="0.5" d="M4.19996 30.2998C2.99996 31.7998 4.49996 34.0998 5.69996 35.1998C10.4 39.4998 28.7 47.4998 28.7 47.4998L4.19996 30.2998Z" fill="#333333"/>
  <path d="M14.4 17C14.4 17 10.6 22.3 7.39996 23.8C4.99996 24.9 3.59996 23.8 2.99996 25.6C-4.12464e-05 36.2 42.6 54 42.6 54C44.6 54.9 46.9 54 47.7 52.1L55.8 33L14.4 17Z" fill="#EEF0F1"/>
  <path d="M61.7996 18.2004C62.0996 17.2004 62.2996 16.4004 59.9996 15.7004L27.2996 4.50043C25.1996 3.70043 24.4996 3.90043 23.2996 5.40043L20.5996 8.60043L60.1996 22.7004L61.7996 18.2004Z" fill="#EDEDED"/>
  <path d="M60.2002 22.6998V28.5998L61.8002 24.5998L62.0002 17.2998L60.2002 22.6998Z" fill="#93A2AA"/>
  <path d="M33.5004 11.1C34.384 11.1 35.1004 10.518 35.1004 9.8C35.1004 9.08203 34.384 8.5 33.5004 8.5C32.6167 8.5 31.9004 9.08203 31.9004 9.8C31.9004 10.518 32.6167 11.1 33.5004 11.1Z" fill="#69787C"/>
  <path d="M48.3002 16.3998C49.1838 16.3998 49.9002 15.8178 49.9002 15.0998C49.9002 14.3818 49.1838 13.7998 48.3002 13.7998C47.4165 13.7998 46.7002 14.3818 46.7002 15.0998C46.7002 15.8178 47.4165 16.3998 48.3002 16.3998Z" fill="#69787C"/>
  <path d="M35.0002 9.5L47.4002 14C47.4002 14 47.9002 14.3 47.6002 16.4C47.1002 16.3 46.7002 15.6 46.7002 15.6L34.2002 11C34.3002 10.9 34.1002 10.6 35.0002 9.5Z" fill="#E8EDEF"/>
  <path d="M34.6996 9.90039L47.0996 14.4004C47.0996 14.4004 47.3996 14.8004 47.3996 16.2004C46.9996 15.9004 46.7996 15.5004 46.7996 15.5004L34.2996 10.9004C34.2996 10.9004 34.0996 10.7004 34.6996 9.90039Z" fill="#93A2AA"/>
  <path d="M20.5996 8.89961V8.59961L60.1996 22.6996V28.8996H59.9996L60.0996 22.9996L20.5996 8.89961Z" fill="#69787C"/>
  <path d="M28.2998 17.9002L28.1998 18.0002C27.8998 18.5002 27.7998 18.9002 27.7998 19.1002C27.7998 19.3002 27.8998 19.5002 28.2998 19.7002C28.5998 19.8002 28.8998 19.8002 29.0998 19.6002C29.1998 19.5002 29.3998 19.3002 29.5998 18.9002L32.1998 14.2002L33.6998 14.7002L30.9998 19.6002C30.6998 20.2002 30.2998 20.6002 29.8998 20.8002C29.1998 21.2002 28.4998 21.3002 27.5998 20.9002C26.6998 20.6002 26.2998 20.1002 26.2998 19.5002C26.2998 18.9002 26.3998 18.3002 26.8998 17.5002L26.9998 17.3002L28.2998 17.9002ZM35.1998 15.4002L36.7998 16.0002L34.3998 20.2002C34.0998 20.7002 33.9998 21.0002 33.9998 21.3002C33.9998 21.8002 34.2998 22.1002 34.8998 22.4002C35.4998 22.6002 35.9998 22.6002 36.4998 22.3002C36.6998 22.1002 36.9998 21.8002 37.2998 21.3002L39.6998 17.0002L41.3998 17.6002L38.8998 22.0002C38.4998 22.7002 37.9998 23.3002 37.4998 23.6002C36.5998 24.2002 35.4998 24.2002 34.1998 23.7002C32.8998 23.2002 32.2998 22.5002 32.2998 21.6002C32.2998 21.1002 32.4998 20.5002 32.8998 19.8002L35.1998 15.4002ZM42.8998 18.1002L44.5998 18.7002L41.2998 24.6002L45.3998 26.2002L44.5998 27.5002L38.8998 25.2002L42.8998 18.1002Z" fill="white"/>
  <path d="M19.0004 27.7004L20.1004 25.8004C21.1004 26.1004 21.8004 26.3004 22.2004 26.4004C22.9004 26.5004 23.5004 26.5004 24.1004 26.2004C24.5004 26.1004 24.9004 25.8004 25.3004 25.4004L25.8004 24.9004L28.3004 25.9004L20.0004 40.2004L16.9004 39.0004L22.7004 29.2004L19.0004 27.7004ZM42.3004 34.5004C41.6004 34.7004 40.5004 35.2004 39.1004 35.9004C37.7004 36.6004 36.4004 37.4004 35.1004 38.4004C34.1004 39.1004 33.1004 40.0004 32.0004 41.2004C30.9004 42.3004 30.1004 43.3004 29.6004 44.1004L26.5004 42.8004C28.1004 40.3004 30.5004 38.0004 33.9004 36.0004C36.0004 34.7004 37.6004 33.9004 38.8004 33.6004L31.1004 30.5004L32.6004 28.0004L43.5004 32.3004L42.3004 34.5004Z" fill="#333333"/>
</svg>