<svg xmlns="http://www.w3.org/2000/svg" width="24" height="24" viewBox="0 0 24 24" fill="none">
  <path d="M15.5 7H8.5C6.567 7 5 8.567 5 10.5C5 12.433 6.567 14 8.5 14H15.5C17.433 14 19 12.433 19 10.5C19 8.567 17.433 7 15.5 7Z" fill="#D6D6D6"/>
  <path d="M7 6H6C3.79086 6 2 7.79086 2 10C2 12.2091 3.79086 14 6 14H7C9.20914 14 11 12.2091 11 10C11 7.79086 9.20914 6 7 6Z" fill="#D6D6D6"/>
  <path d="M15.5 8V7C15.5 4.23858 13.2614 2 10.5 2C7.73858 2 5.5 4.23858 5.5 7V8C5.5 10.7614 7.73858 13 10.5 13C13.2614 13 15.5 10.7614 15.5 8Z" fill="#D6D6D6"/>
  <path d="M18.5 15H11.5C9.567 15 8 16.567 8 18.5C8 20.433 9.567 22 11.5 22H18.5C20.433 22 22 20.433 22 18.5C22 16.567 20.433 15 18.5 15Z" fill="#E5E5E5"/>
  <path d="M10 14H9C6.79086 14 5 15.7909 5 18C5 20.2091 6.79086 22 9 22H10C12.2091 22 14 20.2091 14 18C14 15.7909 12.2091 14 10 14Z" fill="#E5E5E5"/>
  <path d="M18.5 16V15C18.5 12.2386 16.2614 10 13.5 10C10.7386 10 8.5 12.2386 8.5 15V16C8.5 18.7614 10.7386 21 13.5 21C16.2614 21 18.5 18.7614 18.5 16Z" fill="#E5E5E5"/>
</svg>