<svg xmlns="http://www.w3.org/2000/svg" width="24" height="24" viewBox="0 0 24 24" fill="none">
  <path d="M12 18C15.3137 18 18 15.3137 18 12C18 8.68629 15.3137 6 12 6C8.68629 6 6 8.68629 6 12C6 15.3137 8.68629 18 12 18Z" fill="#FFA76C"/>
  <path d="M13 3C13 2.44772 12.5523 2 12 2C11.4477 2 11 2.44772 11 3V4C11 4.55228 11.4477 5 12 5C12.5523 5 13 4.55228 13 4V3Z" fill="#FFA76C"/>
  <path d="M13 20C13 19.4477 12.5523 19 12 19C11.4477 19 11 19.4477 11 20V21C11 21.5523 11.4477 22 12 22C12.5523 22 13 21.5523 13 21V20Z" fill="#FFA76C"/>
  <path d="M21 13C21.5523 13 22 12.5523 22 12C22 11.4477 21.5523 11 21 11H20C19.4477 11 19 11.4477 19 12C19 12.5523 19.4477 13 20 13H21Z" fill="#FFA76C"/>
  <path d="M4 13C4.55228 13 5 12.5523 5 12C5 11.4477 4.55228 11 4 11H3C2.44772 11 2 11.4477 2 12C2 12.5523 2.44772 13 3 13H4Z" fill="#FFA76C"/>
  <path d="M19.0753 6.33909C19.4658 5.94857 19.4658 5.3154 19.0753 4.92488C18.6847 4.53436 18.0516 4.53436 17.6611 4.92488L16.954 5.63199C16.5634 6.02251 16.5634 6.65568 16.954 7.0462C17.3445 7.43672 17.9776 7.43672 18.3682 7.0462L19.0753 6.33909Z" fill="#FFA76C"/>
  <path d="M7.04598 18.3694C7.4365 17.9788 7.4365 17.3457 7.04597 16.9552C6.65545 16.5646 6.02228 16.5646 5.63176 16.9552L4.92465 17.6623C4.53413 18.0528 4.53413 18.6859 4.92465 19.0765C5.31518 19.467 5.94834 19.467 6.33887 19.0765L7.04598 18.3694Z" fill="#FFA76C"/>
  <path d="M6.3391 4.92473C5.94857 4.5342 5.3154 4.5342 4.92488 4.92473C4.53436 5.31525 4.53436 5.94842 4.92488 6.33894L5.63199 7.04605C6.02251 7.43657 6.65568 7.43657 7.0462 7.04605C7.43672 6.65553 7.43673 6.02236 7.0462 5.63183L6.3391 4.92473Z" fill="#FFA76C"/>
  <path d="M18.3684 16.955C17.9779 16.5645 17.3447 16.5645 16.9542 16.955C16.5637 17.3455 16.5637 17.9787 16.9542 18.3692L17.6613 19.0763C18.0518 19.4668 18.685 19.4668 19.0755 19.0763C19.466 18.6858 19.466 18.0526 19.0755 17.6621L18.3684 16.955Z" fill="#FFA76C"/>
</svg>