<svg xmlns="http://www.w3.org/2000/svg" width="24" height="24" viewBox="0 0 24 24" fill="none">
  <path d="M18 11H9C6.79086 11 5 12.7909 5 15C5 17.2091 6.79086 19 9 19H18C20.2091 19 22 17.2091 22 15C22 12.7909 20.2091 11 18 11Z" fill="#D6D6D6"/>
  <path d="M8 9H7C4.23858 9 2 11.2386 2 14C2 16.7614 4.23858 19 7 19H8C10.7614 19 13 16.7614 13 14C13 11.2386 10.7614 9 8 9Z" fill="#D6D6D6"/>
  <path d="M18 12V11C18 7.68629 15.3137 5 12 5C8.68629 5 6 7.68629 6 11V12C6 15.3137 8.68629 18 12 18C15.3137 18 18 15.3137 18 12Z" fill="#D6D6D6"/>
</svg>