<svg width="24" height="24" viewBox="0 0 24 24" fill="none" xmlns="http://www.w3.org/2000/svg">
<path d="M13 16C15.7614 16 18 13.7614 18 11C18 8.23858 15.7614 6 13 6C10.2386 6 8 8.23858 8 11C8 13.7614 10.2386 16 13 16Z" fill="#FFA76C"/>
<path d="M14 3C14 2.44772 13.5523 2 13 2C12.4477 2 12 2.44772 12 3V4C12 4.55228 12.4477 5 13 5C13.5523 5 14 4.55228 14 4V3Z" fill="#FFA76C"/>
<path d="M8.05882 4.63518C7.6683 4.24465 7.03513 4.24465 6.64461 4.63518C6.25408 5.0257 6.25408 5.65887 6.64461 6.04939L7.35171 6.7565C7.74224 7.14702 8.3754 7.14702 8.76593 6.7565C9.15645 6.36597 9.15645 5.73281 8.76593 5.34229L8.05882 4.63518Z" fill="#FFA76C"/>
<path d="M18.6496 15.245C18.2591 14.8545 17.626 14.8545 17.2354 15.245C16.8449 15.6356 16.8449 16.2687 17.2354 16.6593L17.9425 17.3664C18.3331 17.7569 18.9662 17.7569 19.3567 17.3664C19.7473 16.9758 19.7473 16.3427 19.3567 15.9521L18.6496 15.245Z" fill="#FFA76C"/>
<path d="M19.3604 6.05418C19.751 5.66366 19.751 5.03049 19.3604 4.63997C18.9699 4.24944 18.3367 4.24944 17.9462 4.63997L17.2391 5.34707C16.8486 5.7376 16.8486 6.37076 17.2391 6.76129C17.6296 7.15181 18.2628 7.15181 18.6533 6.76129L19.3604 6.05418Z" fill="#FFA76C"/>
<path d="M21 12C21.5523 12 22 11.5523 22 11C22 10.4477 21.5523 10 21 10H20C19.4477 10 19 10.4477 19 11C19 11.5523 19.4477 12 20 12H21Z" fill="#FFA76C"/>
<path d="M6 12C6.55228 12 7 11.5523 7 11C7 10.4477 6.55228 10 6 10H5C4.44772 10 4 10.4477 4 11C4 11.5523 4.44772 12 5 12H6Z" fill="#FFA76C"/>
<path d="M15.5 15H8.5C6.567 15 5 16.567 5 18.5C5 20.433 6.567 22 8.5 22H15.5C17.433 22 19 20.433 19 18.5C19 16.567 17.433 15 15.5 15Z" fill="#D6D6D6"/>
<path d="M7 14H6C3.79086 14 2 15.7909 2 18C2 20.2091 3.79086 22 6 22H7C9.20914 22 11 20.2091 11 18C11 15.7909 9.20914 14 7 14Z" fill="#D6D6D6"/>
<path d="M15.5 16V15C15.5 12.2386 13.2614 10 10.5 10C7.73858 10 5.5 12.2386 5.5 15V16C5.5 18.7614 7.73858 21 10.5 21C13.2614 21 15.5 18.7614 15.5 16Z" fill="#D6D6D6"/>
</svg>
