<svg width="24" height="24" viewBox="0 0 24 24" fill="none" xmlns="http://www.w3.org/2000/svg">
<path d="M21 17H3C2.44772 17 2 17.4477 2 18C2 18.5523 2.44772 19 3 19H21C21.5523 19 22 18.5523 22 18C22 17.4477 21.5523 17 21 17Z" fill="#CFDFFF"/>
<path d="M17 20H7C6.44772 20 6 20.4477 6 21C6 21.5523 6.44772 22 7 22H17C17.5523 22 18 21.5523 18 21C18 20.4477 17.5523 20 17 20Z" fill="#CFDFFF"/>
<path d="M18 8H9C6.79086 8 5 9.79086 5 12C5 14.2091 6.79086 16 9 16H18C20.2091 16 22 14.2091 22 12C22 9.79086 20.2091 8 18 8Z" fill="#E5E5E5"/>
<path d="M8 6H7C4.23858 6 2 8.23858 2 11C2 13.7614 4.23858 16 7 16H8C10.7614 16 13 13.7614 13 11C13 8.23858 10.7614 6 8 6Z" fill="#E5E5E5"/>
<path d="M18 9V8C18 4.68629 15.3137 2 12 2C8.68629 2 6 4.68629 6 8V9C6 12.3137 8.68629 15 12 15C15.3137 15 18 12.3137 18 9Z" fill="#E5E5E5"/>
</svg>
