<svg xmlns="http://www.w3.org/2000/svg" width="24" height="24" viewBox="0 0 24 24" fill="none">
  <path d="M18 8H9C6.79086 8 5 9.79086 5 12C5 14.2091 6.79086 16 9 16H18C20.2091 16 22 14.2091 22 12C22 9.79086 20.2091 8 18 8Z" fill="#D6D6D6"/>
  <path d="M8 6H7C4.23858 6 2 8.23858 2 11C2 13.7614 4.23858 16 7 16H8C10.7614 16 13 13.7614 13 11C13 8.23858 10.7614 6 8 6Z" fill="#D6D6D6"/>
  <path d="M18 9V8C18 4.68629 15.3137 2 12 2C8.68629 2 6 4.68629 6 8V9C6 12.3137 8.68629 15 12 15C15.3137 15 18 12.3137 18 9Z" fill="#D6D6D6"/>
  <path d="M7.09491 18.2765C7.23785 17.7431 6.92127 17.1947 6.3878 17.0518C5.85433 16.9088 5.306 17.2254 5.16306 17.7589L4.90424 18.7248C4.7613 19.2583 5.07788 19.8066 5.61134 19.9496C6.14481 20.0925 6.69315 19.7759 6.83609 19.2425L7.09491 18.2765Z" fill="#CFDFFF"/>
  <path d="M10.0949 20.2746C10.2378 19.7411 9.92127 19.1928 9.3878 19.0498C8.85433 18.9069 8.306 19.2235 8.16306 19.7569L7.90424 20.7229C7.7613 21.2563 8.07788 21.8047 8.61134 21.9476C9.14481 22.0906 9.69315 21.774 9.83609 21.2405L10.0949 20.2746Z" fill="#CFDFFF"/>
  <path d="M13.091 18.2795C13.2339 17.746 12.9174 17.1977 12.3839 17.0547C11.8504 16.9118 11.3021 17.2284 11.1591 17.7618L10.9003 18.7278C10.7574 19.2612 11.074 19.8096 11.6074 19.9525C12.1409 20.0954 12.6892 19.7789 12.8322 19.2454L13.091 18.2795Z" fill="#CFDFFF"/>
  <path d="M19.0959 18.2716C19.2388 17.7382 18.9222 17.1898 18.3888 17.0469C17.8553 16.904 17.307 17.2205 17.164 17.754L16.9052 18.7199C16.7623 19.2534 17.0789 19.8017 17.6123 19.9447C18.1458 20.0876 18.6941 19.771 18.8371 19.2376L19.0959 18.2716Z" fill="#CFDFFF"/>
  <path d="M16.091 20.2775C16.2339 19.744 15.9174 19.1957 15.3839 19.0528C14.8504 18.9098 14.3021 19.2264 14.1591 19.7599L13.9003 20.7258C13.7574 21.2593 14.074 21.8076 14.6074 21.9505C15.1409 22.0935 15.6892 21.7769 15.8322 21.2434L16.091 20.2775Z" fill="#CFDFFF"/>
</svg>