<svg width="24" height="24" viewBox="0 0 24 24" fill="none" xmlns="http://www.w3.org/2000/svg">
<path d="M17 12C19.7614 12 22 9.76142 22 7C22 4.23858 19.7614 2 17 2C14.2386 2 12 4.23858 12 7C12 9.76142 14.2386 12 17 12Z" fill="#FFA76C"/>
<path d="M16.62 9H9.38C7.51328 9 6 10.5133 6 12.38V12.62C6 14.4867 7.51328 16 9.38 16H16.62C18.4867 16 20 14.4867 20 12.62V12.38C20 10.5133 18.4867 9 16.62 9Z" fill="#D6D6D6"/>
<path d="M7 8H6C3.79086 8 2 9.79086 2 12C2 14.2091 3.79086 16 6 16H7C9.20914 16 11 14.2091 11 12C11 9.79086 9.20914 8 7 8Z" fill="#D6D6D6"/>
<path d="M16 10V9C16 6.23858 13.7614 4 11 4C8.23858 4 6 6.23858 6 9V10C6 12.7614 8.23858 15 11 15C13.7614 15 16 12.7614 16 10Z" fill="#D6D6D6"/>
<path d="M6.22675 18.2726C6.36969 17.7392 6.0531 17.1908 5.51964 17.0479C4.98617 16.9049 4.43783 17.2215 4.29489 17.755L4.03607 18.7209C3.89313 19.2544 4.20971 19.8027 4.74318 19.9457C5.27665 20.0886 5.82498 19.772 5.96793 19.2386L6.22675 18.2726Z" fill="#CFDFFF"/>
<path d="M9.22674 20.2809C9.36969 19.7475 9.0531 19.1991 8.51964 19.0562C7.98617 18.9132 7.43783 19.2298 7.29489 19.7633L7.03607 20.7292C6.89313 21.2627 7.20971 21.811 7.74318 21.954C8.27665 22.0969 8.82498 21.7803 8.96792 21.2469L9.22674 20.2809Z" fill="#CFDFFF"/>
<path d="M12.2219 18.2756C12.3648 17.7421 12.0482 17.1938 11.5148 17.0508C10.9813 16.9079 10.433 17.2245 10.29 17.7579L10.0312 18.7238C9.88825 19.2573 10.2048 19.8056 10.7383 19.9486C11.2718 20.0915 11.8201 19.7749 11.963 19.2415L12.2219 18.2756Z" fill="#CFDFFF"/>
<path d="M18.2277 18.2785C18.3707 17.745 18.0541 17.1967 17.5206 17.0537C16.9871 16.9108 16.4388 17.2274 16.2959 17.7608L16.037 18.7268C15.8941 19.2602 16.2107 19.8086 16.7442 19.9515C17.2776 20.0945 17.826 19.7779 17.9689 19.2444L18.2277 18.2785Z" fill="#CFDFFF"/>
<path d="M15.2219 20.2736C15.3648 19.7401 15.0482 19.1918 14.5148 19.0489C13.9813 18.9059 13.433 19.2225 13.29 19.756L13.0312 20.7219C12.8882 21.2554 13.2048 21.8037 13.7383 21.9466C14.2718 22.0896 14.8201 21.773 14.963 21.2395L15.2219 20.2736Z" fill="#CFDFFF"/>
</svg>
