<svg width="24" height="24" viewBox="0 0 24 24" fill="none" xmlns="http://www.w3.org/2000/svg">
<path d="M18 8H9C6.79086 8 5 9.79086 5 12C5 14.2091 6.79086 16 9 16H18C20.2091 16 22 14.2091 22 12C22 9.79086 20.2091 8 18 8Z" fill="#E5E5E5"/>
<path d="M8 6H7C4.23858 6 2 8.23858 2 11C2 13.7614 4.23858 16 7 16H8C10.7614 16 13 13.7614 13 11C13 8.23858 10.7614 6 8 6Z" fill="#E5E5E5"/>
<path d="M18 9V8C18 4.68629 15.3137 2 12 2C8.68629 2 6 4.68629 6 8V9C6 12.3137 8.68629 15 12 15C15.3137 15 18 12.3137 18 9Z" fill="#E5E5E5"/>
<path d="M6 20C6.55228 20 7 19.5523 7 19C7 18.4477 6.55228 18 6 18C5.44772 18 5 18.4477 5 19C5 19.5523 5.44772 20 6 20Z" fill="#CFDFFF"/>
<path d="M12 20C12.5523 20 13 19.5523 13 19C13 18.4477 12.5523 18 12 18C11.4477 18 11 18.4477 11 19C11 19.5523 11.4477 20 12 20Z" fill="#CFDFFF"/>
<path d="M9 22C9.55228 22 10 21.5523 10 21C10 20.4477 9.55228 20 9 20C8.44772 20 8 20.4477 8 21C8 21.5523 8.44772 22 9 22Z" fill="#CFDFFF"/>
<path d="M15 22C15.5523 22 16 21.5523 16 21C16 20.4477 15.5523 20 15 20C14.4477 20 14 20.4477 14 21C14 21.5523 14.4477 22 15 22Z" fill="#CFDFFF"/>
<path d="M18 20C18.5523 20 19 19.5523 19 19C19 18.4477 18.5523 18 18 18C17.4477 18 17 18.4477 17 19C17 19.5523 17.4477 20 18 20Z" fill="#CFDFFF"/>
</svg>
