<svg width="24" height="24" viewBox="0 0 24 24" fill="none" xmlns="http://www.w3.org/2000/svg">
<path d="M18 8H9C6.79086 8 5 9.79086 5 12C5 14.2091 6.79086 16 9 16H18C20.2091 16 22 14.2091 22 12C22 9.79086 20.2091 8 18 8Z" fill="#D6D6D6"/>
<path d="M8 6H7C4.23858 6 2 8.23858 2 11C2 13.7614 4.23858 16 7 16H8C10.7614 16 13 13.7614 13 11C13 8.23858 10.7614 6 8 6Z" fill="#D6D6D6"/>
<path d="M18 9V8C18 4.68629 15.3137 2 12 2C8.68629 2 6 4.68629 6 8V9C6 12.3137 8.68629 15 12 15C15.3137 15 18 12.3137 18 9Z" fill="#D6D6D6"/>
<path d="M7.091 18.277C7.23394 17.7436 6.91736 17.1952 6.38389 17.0523C5.85043 16.9093 5.30209 17.2259 5.15915 17.7594L4.90033 18.7253C4.75739 19.2588 5.07397 19.8071 5.60744 19.9501C6.1409 20.093 6.68924 19.7764 6.83218 19.2429L7.091 18.277Z" fill="#CFDFFF"/>
<path d="M10.091 20.2753C10.2339 19.7418 9.91736 19.1935 9.38389 19.0506C8.85043 18.9076 8.30209 19.2242 8.15915 19.7577L7.90033 20.7236C7.75739 21.2571 8.07397 21.8054 8.60744 21.9483C9.1409 22.0913 9.68924 21.7747 9.83218 21.2412L10.091 20.2753Z" fill="#CFDFFF"/>
<path d="M19.092 18.2729C19.2349 17.7394 18.9183 17.1911 18.3849 17.0481C17.8514 16.9052 17.3031 17.2218 17.1601 17.7552L16.9013 18.7212C16.7584 19.2546 17.0749 19.803 17.6084 19.9459C18.1419 20.0888 18.6902 19.7723 18.8332 19.2388L19.092 18.2729Z" fill="#CFDFFF"/>
<path d="M16.0969 20.2782C16.2398 19.7448 15.9232 19.1964 15.3898 19.0535C14.8563 18.9106 14.308 19.2271 14.165 19.7606L13.9062 20.7265C13.7632 21.26 14.0798 21.8083 14.6133 21.9513C15.1468 22.0942 15.6951 21.7776 15.838 21.2442L16.0969 20.2782Z" fill="#CFDFFF"/>
<path d="M11.5 16H13.5L12.5 18H13.5L10.5 22L11.5 19H10.5L11.5 16Z" fill="#FFD700"/>
</svg>
