<svg width="36" height="36" viewBox="0 0 36 36" fill="currentColor" xmlns="http://www.w3.org/2000/svg">
<path d="M26.8 4C27.05 4 27.29 4.02 27.54 4.05L26.09 5.5C24.87 6.72 24.87 8.69 26.09 9.91C26.7 10.52 27.5 10.82 28.3 10.82C29.1 10.82 29.9 10.52 30.51 9.91L31.96 8.46C32.18 10.02 31.71 11.66 30.51 12.85C29.5 13.86 28.17 14.37 26.84 14.37C25.84 14.37 24.84 14.08 23.97 13.51L13.53 23.95C14.87 25.97 14.65 28.71 12.87 30.49C11.86 31.5 10.54 31.99 9.20998 31.99C8.95998 31.99 8.71998 31.97 8.46998 31.94L9.91998 30.49C11.14 29.27 11.14 27.3 9.91998 26.08C9.30998 25.47 8.50998 25.17 7.70998 25.17C6.90998 25.17 6.10998 25.47 5.49998 26.08L4.04998 27.53C3.82998 25.97 4.29998 24.33 5.49998 23.14C6.50998 22.13 7.83998 21.62 9.16998 21.62C10.17 21.62 11.17 21.91 12.04 22.48L22.48 12.04C21.14 10.02 21.36 7.28 23.14 5.5C24.15 4.49 25.47 4 26.8 4ZM26.8 2C24.88 2 23.08 2.74 21.73 4.09C19.73 6.09 19.12 9.07 20.06 11.64L11.65 20.05C10.87 19.76 10.03 19.62 9.17998 19.62C7.25998 19.62 5.44998 20.37 4.08998 21.73C2.48998 23.33 1.74998 25.55 2.06998 27.81L2.61998 31.79L5.45998 28.95L6.90998 27.5C7.11998 27.29 7.39998 27.17 7.69998 27.17C7.99998 27.17 8.27998 27.29 8.48998 27.5C8.69998 27.71 8.81998 27.99 8.81998 28.29C8.81998 28.59 8.69998 28.87 8.48998 29.08L7.03998 30.53L4.19998 33.37L8.17998 33.92C8.50998 33.97 8.85998 33.99 9.18998 33.99C11.11 33.99 12.91 33.25 14.26 31.9C16.26 29.9 16.87 26.92 15.93 24.35L24.34 15.94C25.12 16.23 25.96 16.37 26.81 16.37C28.73 16.37 30.54 15.62 31.9 14.26C33.5 12.66 34.24 10.44 33.92 8.18L33.37 4.2L30.53 7.04L29.08 8.49C28.87 8.7 28.59 8.82 28.29 8.82C27.99 8.82 27.71 8.7 27.5 8.49C27.29 8.28 27.17 8 27.17 7.7C27.17 7.4 27.29 7.12 27.5 6.91L28.95 5.46L31.79 2.62L27.81 2.07C27.48 2.02 27.13 2 26.8 2Z" fill="current"/>
</svg>
 