<svg width="24" height="24" viewBox="0 0 24 24" fill="none" xmlns="http://www.w3.org/2000/svg">
<path d="M16 0H8C3.58172 0 0 3.58172 0 8V16C0 20.4183 3.58172 24 8 24H16C20.4183 24 24 20.4183 24 16V8C24 3.58172 20.4183 0 16 0Z" fill="#2563EB"/>
<path d="M14 15H10V16H14V15Z" fill="white"/>
<path d="M8 13C7.45 13 7 13.45 7 14C7 14.55 7.45 15 8 15C8.55 15 9 14.55 9 14C9 13.45 8.55 13 8 13Z" fill="white"/>
<path d="M16 13C15.45 13 15 13.45 15 14C15 14.55 15.45 15 16 15C16.55 15 17 14.55 17 14C17 13.45 16.55 13 16 13Z" fill="white"/>
<path d="M16.59 5C17.37 5 18 5.63 18 6.41V15.58C18 16.36 17.37 16.99 16.59 16.99H7.41C6.63 16.99 6 16.36 6 15.58V6.41C6 5.63 6.63 5 7.41 5H16.58M16.58 4H7.41C6.08 4 5 5.08 5 6.41V15.58C5 16.91 6.08 17.99 7.41 17.99H16.58C17.91 17.99 18.99 16.91 18.99 15.58V6.41C18.99 5.08 17.91 4 16.58 4Z" fill="white"/>
<path d="M15.42 7C15.74 7 16 7.26 16 7.58V11H8V7.58C8 7.26 8.26 7 8.58 7H15.43M15.43 6H8.58C7.71 6 7 6.71 7 7.58V12H17V7.58C17 6.71 16.29 6 15.42 6H15.43Z" fill="white"/>
<path d="M8.58 18C8.81 18 9 18.19 9 18.42V18.64C9 18.87 8.81 19.06 8.58 19.06H7.42C7.19 19.06 7 18.87 7 18.64V18.42C7 18.19 7.19 18 7.42 18H8.58ZM8.58 17H7.42C6.64 17 6 17.64 6 18.42V18.64C6 19.42 6.64 20.06 7.42 20.06H8.58C9.36 20.06 10 19.42 10 18.64V18.42C10 17.64 9.36 17 8.58 17Z" fill="white"/>
<path d="M16.58 18C16.81 18 17 18.19 17 18.42V18.64C17 18.87 16.81 19.06 16.58 19.06H15.42C15.19 19.06 15 18.87 15 18.64V18.42C15 18.19 15.19 18 15.42 18H16.58ZM16.58 17H15.42C14.64 17 14 17.64 14 18.42V18.64C14 19.42 14.64 20.06 15.42 20.06H16.58C17.36 20.06 18 19.42 18 18.64V18.42C18 17.64 17.36 17 16.58 17Z" fill="white"/>
</svg>
