<svg xmlns="http://www.w3.org/2000/svg" width="20" height="21" viewBox="0 0 20 21" fill="none">
  <path d="M11.9168 9.03345L10.5756 7.80345C10.2085 7.46672 9.95045 7.02802 9.83442 6.54361C9.71838 6.05921 9.7497 5.55119 9.92434 5.0847L10.4975 3.5547C10.7114 2.98383 11.1349 2.51601 11.6817 2.24659C12.2286 1.97717 12.8576 1.92642 13.4406 2.1047C15.5856 2.76095 17.2343 4.7547 16.7268 7.12282C16.3931 8.68032 15.755 10.6353 14.5443 12.7159C13.5299 14.4683 12.2537 16.0553 10.76 17.4222C8.96622 19.0547 6.40372 18.6466 4.75497 17.1097C4.31301 16.6976 4.04484 16.1325 4.00512 15.5295C3.9654 14.9266 4.15713 14.3312 4.54122 13.8647L5.59184 12.5884C5.90849 12.2036 6.33294 11.9222 6.8107 11.7803C7.28845 11.6384 7.79771 11.6425 8.27309 11.7922L10.0081 12.3391C10.075 12.2703 10.1518 12.1884 10.2368 12.0941C10.5935 11.6994 10.9091 11.2695 11.1787 10.8109C11.441 10.3481 11.6554 9.85975 11.8187 9.35345C11.8536 9.24747 11.8863 9.14078 11.9168 9.03345Z" fill="white"/>
</svg>