<svg width="14" height="15" viewBox="0 0 14 15" fill="currentColor" xmlns="http://www.w3.org/2000/svg">
<path d="M11 1.5C12.1 1.5 13 2.4 13 3.5V8.5C13 9.6 12.1 10.5 11 10.5H6C4.9 10.5 4 9.6 4 8.5V3.5C4 2.4 4.9 1.5 6 1.5H11ZM11 0.5H6C4.35 0.5 3 1.85 3 3.5V8.5C3 10.15 4.35 11.5 6 11.5H11C12.65 11.5 14 10.15 14 8.5V3.5C14 1.85 12.65 0.5 11 0.5Z" fill="#5085FB"/>
<path d="M8 4H3C1.61929 4 0.5 5.11929 0.5 6.5V11.5C0.5 12.8807 1.61929 14 3 14H8C9.38071 14 10.5 12.8807 10.5 11.5V6.5C10.5 5.11929 9.38071 4 8 4Z" fill="white"/>
<path d="M8 4.5C9.1 4.5 10 5.4 10 6.5V11.5C10 12.6 9.1 13.5 8 13.5H3C1.9 13.5 1 12.6 1 11.5V6.5C1 5.4 1.9 4.5 3 4.5H8ZM8 3.5H3C1.35 3.5 0 4.85 0 6.5V11.5C0 13.15 1.35 14.5 3 14.5H8C9.65 14.5 11 13.15 11 11.5V6.5C11 4.85 9.65 3.5 8 3.5Z" fill="#5085FB"/>
</svg>
