<svg xmlns="http://www.w3.org/2000/svg" width="16" height="20" viewBox="0 0 16 20" fill="currentColor">
  <path d="M3.50746 18.5595C2.40846 18.5595 1.50928 17.7045 1.50928 16.6595V13.1445C1.50928 11.197 2.39847 9.36345 3.94705 8.09995L6.25495 6.21895L4.79628 4.83195C4.41663 4.47095 4.49655 4.06245 4.54651 3.90095C4.59646 3.73945 4.76631 3.34995 5.28583 3.23595L13.2785 1.47845C13.3585 1.45945 13.4384 1.44995 13.5083 1.44995C13.8081 1.44995 14.0878 1.58295 14.2876 1.81095C14.3975 1.94395 14.5674 2.22895 14.4775 2.60895L12.6291 10.209C12.5092 10.722 12.0497 10.95 11.65 10.95C11.4702 10.95 11.1904 10.9025 10.9507 10.6745L9.09236 8.90745L6.55468 10.9784C5.88529 11.5199 5.50563 12.3085 5.50563 13.1445V16.6595C5.50563 17.7045 4.60645 18.5595 3.50746 18.5595Z" fill="#2563EB"/>
  <path d="M13.4981 2.4095L11.6498 10.0095L10.4509 8.8695L9.14212 7.625L7.7334 8.7745L5.89508 10.266C5.00589 10.988 4.49636 12.0425 4.49636 13.154V16.669C4.49636 17.1915 4.04677 17.619 3.49727 17.619C2.94777 17.619 2.49818 17.1915 2.49818 16.669V13.154C2.49818 11.4915 3.25749 9.9145 4.59626 8.822L6.08491 7.6155L7.72341 6.276L6.19481 4.8225L5.50544 4.167L13.4981 2.4095ZM13.4981 0.509498C13.3483 0.509498 13.1984 0.528498 13.0386 0.556998L5.04586 2.3145C3.51725 2.647 2.96775 4.452 4.08673 5.5065L4.7761 6.162L3.28746 7.3685C1.51907 8.8125 0.5 10.9215 0.5 13.135V16.65C0.5 18.227 1.83878 19.5 3.49727 19.5C5.15575 19.5 6.49453 18.227 6.49453 16.65V13.135C6.49453 12.584 6.7543 12.052 7.1939 11.691L9.03222 10.1995L10.2311 11.3395C10.6308 11.7195 11.1403 11.9 11.6398 11.9C12.519 11.9 13.3683 11.349 13.5981 10.4275L15.4464 2.8275C15.7461 1.602 14.747 0.5 13.5081 0.5L13.4981 0.509498Z" fill="#2563EB"/>
</svg>