<svg width="16" height="16" viewBox="0 0 16 16" fill="currentColor" xmlns="http://www.w3.org/2000/svg">
<path d="M8 1C11.86 1 15 4.14 15 8C15 11.86 11.86 15 8 15C4.14 15 1 11.86 1 8C1 4.14 4.14 1 8 1ZM8 0C3.58 0 0 3.58 0 8C0 12.42 3.58 16 8 16C12.42 16 16 12.42 16 8C16 3.58 12.42 0 8 0Z" fill="current"/>
<path d="M8 4C7.72 4 7.5 4.22 7.5 4.5V9.5C7.5 9.78 7.72 10 8 10C8.28 10 8.5 9.78 8.5 9.5V4.5C8.5 4.22 8.28 4 8 4Z" fill="current"/>
<path d="M8 11C7.72 11 7.5 11.22 7.5 11.5C7.5 11.78 7.72 12 8 12C8.28 12 8.5 11.78 8.5 11.5C8.5 11.22 8.28 11 8 11Z" fill="current"/>
</svg>
