<svg width="36" height="36" viewBox="0 0 36 36" fill="none" xmlns="http://www.w3.org/2000/svg">
<path d="M27 3C28.66 3 30.2 3.66 31.34 4.86C32.48 6.06 33.07 7.63 32.99 9.3C32.84 12.44 30.02 15 26.71 15H22.77L23.42 14.05L22.43 12.89C21.2 11.44 20.73 9.53 21.15 7.63C21.64 5.4 23.48 3.59 25.72 3.13C26.15 3.04 26.58 3 27 3ZM27 1C26.45 1 25.89 1.05 25.33 1.17C22.31 1.78 19.86 4.19 19.2 7.2C18.61 9.87 19.37 12.37 20.91 14.19C20.1 15.39 20.95 17.01 22.4 17.01H26.71C31.03 17.01 34.78 13.71 34.99 9.4C35.21 4.8 31.55 1.01 27 1.01V1Z" fill="currentColor"/>
<path d="M30 7H24C23.45 7 23 7.45 23 8C23 8.55 23.45 9 24 9H30C30.55 9 31 8.55 31 8C31 7.45 30.55 7 30 7Z" fill="currentColor"/>
<path d="M26 10H24C23.45 10 23 10.45 23 11C23 11.55 23.45 12 24 12H26C26.55 12 27 11.55 27 11C27 10.45 26.55 10 26 10Z" fill="currentColor"/>
<path d="M10 4C11.1 4 12 4.9 12 6C12 7.1 11.1 8 10 8C8.9 8 8 7.1 8 6C8 4.9 8.9 4 10 4ZM10 2C7.79 2 6 3.79 6 6C6 8.21 7.79 10 10 10C12.21 10 14 8.21 14 6C14 3.79 12.21 2 10 2Z" fill="currentColor"/>
<path d="M9.99999 10C12.77 10 15.11 11.74 15.92 14.15C16.22 15.05 15.61 16 14.75 16H5.24999C4.38999 16 3.77 15.04 4.08 14.15C4.89 11.74 7.23999 10 9.99999 10ZM9.99999 8C6.42999 8 3.28999 10.21 2.17999 13.51C1.81999 14.57 2 15.74 2.65 16.64C3.27 17.5 4.21999 18 5.24999 18H14.75C15.78 18 16.73 17.51 17.35 16.64C18 15.74 18.17 14.57 17.82 13.51C16.71 10.22 13.57 8 9.99999 8Z" fill="currentColor"/>
<path d="M26 20C27.1 20 28 20.9 28 22C28 23.1 27.1 24 26 24C24.9 24 24 23.1 24 22C24 20.9 24.9 20 26 20ZM26 18C23.79 18 22 19.79 22 22C22 24.21 23.79 26 26 26C28.21 26 30 24.21 30 22C30 19.79 28.21 18 26 18Z" fill="currentColor"/>
<path d="M26 26C28.77 26 31.11 27.74 31.92 30.15C32.22 31.05 31.61 32 30.75 32H21.25C20.39 32 19.77 31.04 20.08 30.15C20.89 27.74 23.24 26 26 26ZM26 24C22.43 24 19.29 26.21 18.18 29.51C17.82 30.57 18 31.74 18.65 32.64C19.27 33.5 20.22 34 21.25 34H30.75C31.78 34 32.73 33.51 33.35 32.64C34 31.74 34.17 30.57 33.82 29.51C32.71 26.22 29.57 24 26 24Z" fill="currentColor"/>
<path d="M12.4601 20C11.8801 20 11.3301 19.75 10.9501 19.31C10.5701 18.87 10.4001 18.29 10.4801 17.72L10.6201 16.72C10.7601 15.74 11.6101 15 12.6001 15H16.5401C17.1201 15 17.6701 15.25 18.0501 15.69C18.4301 16.13 18.6001 16.71 18.5201 17.28L18.3801 18.28C18.2401 19.26 17.3901 20 16.4001 20H12.4601Z" fill="white"/>
<path d="M16.54 16C16.94 16 17.18 16.22 17.3 16.34C17.41 16.47 17.59 16.74 17.53 17.14L17.39 18.14C17.32 18.63 16.89 19 16.4 19H12.46C12.06 19 11.82 18.78 11.7 18.66C11.59 18.53 11.41 18.26 11.47 17.86L11.61 16.86C11.68 16.37 12.11 16 12.6 16H16.54ZM16.54 14H12.6C11.11 14 9.84002 15.1 9.63002 16.58L9.49002 17.58C9.23002 19.39 10.63 21 12.46 21H16.4C17.89 21 19.16 19.9 19.37 18.42L19.51 17.42C19.77 15.61 18.37 14 16.54 14Z" fill="currentColor"/>
</svg>
