<svg width="24" height="24" viewBox="0 0 24 24" fill="none" xmlns="http://www.w3.org/2000/svg">
<g clip-path="url(#clip0_5397_8826)">
<path d="M12 3.47998C15.58 3.47998 18.5 6.37998 18.5 9.94998C18.5 12.74 16.77 16.03 13.35 19.73C12.97 20.14 12.49 20.37 12 20.37C11.51 20.37 11.03 20.14 10.65 19.73C7.24 16.03 5.5 12.74 5.5 9.94998C5.5 6.37998 8.42 3.47998 12 3.47998ZM12 1.97998C7.58 1.97998 4 5.54998 4 9.94998C4 13.99 7 17.99 9.54 20.75C10.23 21.5 11.11 21.87 12 21.87C12.89 21.87 13.76 21.5 14.46 20.75C17 18 20 14 20 9.94998C20 5.54998 16.42 1.97998 12 1.97998Z" fill="#96A2AC"/>
<path d="M12 8.5C12.83 8.5 13.5 9.17 13.5 10C13.5 10.83 12.83 11.5 12 11.5C11.17 11.5 10.5 10.83 10.5 10C10.5 9.17 11.17 8.5 12 8.5ZM12 7C10.34 7 9 8.34 9 10C9 11.66 10.34 13 12 13C13.66 13 15 11.66 15 10C15 8.34 13.66 7 12 7Z" fill="#96A2AC"/>
</g>
<defs>
<clipPath id="clip0_5397_8826">
<rect width="24" height="24" fill="white"/>
</clipPath>
</defs>
</svg>
