<svg width="24" height="24" viewBox="0 0 24 24" fill="none" xmlns="http://www.w3.org/2000/svg">
<g clip-path="url(#clip0_2237_15827)">
<path d="M12 20.8797C11.37 20.8797 10.76 20.5897 10.28 20.0797C6.78 16.2897 5 12.8797 5 9.95975C5 6.11975 8.14 2.98975 12 2.98975C15.86 2.98975 19 6.11975 19 9.95975C19 12.8797 17.22 16.2897 13.72 20.0797C13.24 20.5997 12.63 20.8797 12 20.8797ZM12 5.99975C9.79 5.99975 8 7.78975 8 9.99975C8 12.2097 9.79 13.9997 12 13.9997C14.21 13.9997 16 12.2097 16 9.99975C16 7.78975 14.21 5.99975 12 5.99975Z" fill="white"/>
<path d="M12 3.97998C15.31 3.97998 18 6.65998 18 9.94998C18 12.61 16.31 15.79 12.99 19.39C12.7 19.7 12.36 19.87 12 19.87C11.64 19.87 11.3 19.7 11.01 19.39C7.68 15.79 6 12.61 6 9.94998C6 6.65998 8.69 3.97998 12 3.97998ZM12 15C14.76 15 17 12.76 17 9.99998C17 7.23998 14.76 4.99998 12 4.99998C9.24 4.99998 7 7.23998 7 9.99998C7 12.76 9.24 15 12 15ZM12 1.97998C7.58 1.97998 4 5.54998 4 9.94998C4 13.99 7 17.99 9.54 20.75C10.23 21.5 11.11 21.87 12 21.87C12.89 21.87 13.76 21.5 14.46 20.75C17 18 20 14 20 9.94998C20 5.54998 16.42 1.97998 12 1.97998ZM12 13C10.34 13 9 11.66 9 9.99998C9 8.33998 10.34 6.99998 12 6.99998C13.66 6.99998 15 8.33998 15 9.99998C15 11.66 13.66 13 12 13Z" fill="white"/>
</g>
<defs>
<clipPath id="clip0_2237_15827">
<rect width="24" height="24" fill="white"/>
</clipPath>
</defs>
</svg>
