<svg width="20" height="20" viewBox="0 0 20 20" fill="none" xmlns="http://www.w3.org/2000/svg">
<g clip-path="url(#clip0_2368_24577)">
<path d="M10 16.9629C9.6 16.9629 9.2 16.7729 8.89 16.4429C6.31 13.6329 5 11.1229 5 8.97289C5 6.21289 7.24 3.96289 10 3.96289C12.76 3.96289 15 6.21289 15 8.97289C15 11.1129 13.69 13.6229 11.11 16.4429C10.8 16.7829 10.41 16.9629 10 16.9629ZM10 5.74289C8.21 5.74289 6.75 7.20289 6.75 9.00289C6.75 10.8029 8.21 12.2629 10 12.2629C11.79 12.2629 13.25 10.8029 13.25 9.00289C13.25 7.20289 11.79 5.74289 10 5.74289Z" fill="#C3C6CC"/>
<path d="M13.25 11.7429C12.64 12.9829 11.67 14.3329 10.37 15.7629C10.29 15.8529 10.15 15.9629 10 15.9629C9.85 15.9629 9.71 15.8529 9.63 15.7629C8.32 14.3329 7.35 12.9829 6.75 11.7429C7.53 12.6729 8.7 13.2629 10 13.2629C11.3 13.2629 12.47 12.6729 13.25 11.7429ZM10 2.96289C6.69 2.96289 4 5.65289 4 8.97289C4 12.0229 6.25 15.0429 8.16 17.1129C8.68 17.6729 9.34 17.9629 10 17.9629C10.66 17.9629 11.32 17.6829 11.84 17.1129C13.75 15.0329 16 12.0229 16 8.97289C16 5.65289 13.31 2.96289 10 2.96289ZM10 11.2729C8.76 11.2729 7.75 10.2629 7.75 9.01289C7.75 7.76289 8.76 6.75289 10 6.75289C11.24 6.75289 12.25 7.76289 12.25 9.01289C12.25 10.2629 11.24 11.2729 10 11.2729Z" fill="#C3C6CC"/>
</g>
<defs>
<clipPath id="clip0_2368_24577">
<rect width="20" height="20" fill="white" transform="translate(0 0.422852)"/>
</clipPath>
</defs>
</svg>
