<svg width="24" height="24" viewBox="0 0 24 24" fill="none" xmlns="http://www.w3.org/2000/svg">
<g clip-path="url(#clip0_586_10697)">
<path d="M12.0001 3.47998C15.5201 3.47998 18.3801 6.37998 18.3801 9.94998C18.3801 11.73 16.4901 15.35 13.2101 19.87C12.9301 20.26 12.4901 20.48 12.0001 20.48C11.5101 20.48 11.0801 20.26 10.7901 19.87C7.50012 15.35 5.62012 11.74 5.62012 9.94998C5.62012 6.37998 8.48012 3.47998 12.0001 3.47998ZM12.0001 1.97998C7.65012 1.97998 4.12012 5.54998 4.12012 9.94998C4.12012 12.73 7.26012 17.56 9.58012 20.75C10.1801 21.57 11.0901 21.98 12.0001 21.98C12.9101 21.98 13.8201 21.57 14.4201 20.75C16.7401 17.57 19.8801 12.73 19.8801 9.94998C19.8801 5.54998 16.3501 1.97998 12.0001 1.97998Z" fill="#96A2AC"/>
<path d="M12 8.5C12.83 8.5 13.5 9.17 13.5 10C13.5 10.83 12.83 11.5 12 11.5C11.17 11.5 10.5 10.83 10.5 10C10.5 9.17 11.17 8.5 12 8.5ZM12 7C10.34 7 9 8.34 9 10C9 11.66 10.34 13 12 13C13.66 13 15 11.66 15 10C15 8.34 13.66 7 12 7Z" fill="#96A2AC"/>
</g>
<defs>
<clipPath id="clip0_586_10697">
<rect width="24" height="24" fill="white"/>
</clipPath>
</defs>
</svg>
