<svg xmlns="http://www.w3.org/2000/svg" width="36" height="36" viewBox="0 0 33 34" fill="currentColor">
  <path d="M30.4999 24.65C30.8099 24.18 30.9999 23.61 30.9999 23C30.9999 22.15 30.6399 21.38 30.0699 20.83C30.6599 19.72 30.9999 18.46 30.9999 17.12V16.88C30.9999 15.86 30.7999 14.89 30.4399 13.99C31.2399 13.97 31.9999 13.57 32.4799 12.9C32.9899 12.19 33.1299 11.26 32.8499 10.43C32.4399 9.20999 31.5799 8.23999 30.4899 7.63999C30.7999 7.16999 30.9899 6.59999 30.9899 5.98999C30.9899 4.33999 29.6399 2.98999 27.9899 2.98999C26.3399 2.98999 24.9899 4.33999 24.9899 5.98999C24.9899 6.59999 25.1799 7.16999 25.4899 7.63999C24.8599 7.97999 24.3299 8.45999 23.8999 9.02999C23.6399 8.99999 23.3799 8.98999 23.1199 8.98999H21.9699C21.9499 8.79999 21.9099 8.60999 21.8499 8.42999C21.4399 7.20999 20.5799 6.23999 19.4899 5.63999C19.7999 5.16999 19.9899 4.59999 19.9899 3.98999C19.9899 2.33999 18.6399 0.98999 16.9899 0.98999C15.3399 0.98999 13.9899 2.33999 13.9899 3.98999C13.9899 4.59999 14.1799 5.16999 14.4899 5.63999C13.3999 6.23999 12.5399 7.20999 12.1299 8.42999C12.0699 8.60999 12.0299 8.79999 12.0099 8.98999H10.8599C10.5999 8.98999 10.3299 8.99999 10.0799 9.02999C9.64994 8.45999 9.10994 7.97999 8.48994 7.63999C8.79994 7.16999 8.98994 6.59999 8.98994 5.98999C8.98994 4.33999 7.63994 2.98999 5.98994 2.98999C4.33994 2.98999 2.98994 4.33999 2.98994 5.98999C2.98994 6.59999 3.17994 7.16999 3.48994 7.63999C2.39994 8.23999 1.53994 9.20999 1.12994 10.43C0.849937 11.26 0.989937 12.19 1.49994 12.9C1.97994 13.57 2.73994 13.96 3.53994 13.99C3.18994 14.89 2.97994 15.86 2.97994 16.88V17.12C2.97994 18.46 3.31994 19.73 3.90994 20.83C3.33994 21.38 2.97994 22.14 2.97994 23C2.97994 23.61 3.16994 24.18 3.47994 24.65C2.38994 25.25 1.52994 26.22 1.11994 27.44C0.839937 28.27 0.979937 29.2 1.48994 29.91C1.97994 30.6 2.76994 31.01 3.59994 31.01H8.34994C9.17994 31.01 9.96994 30.6 10.4599 29.91C10.9699 29.2 11.1099 28.27 10.8299 27.44C10.4199 26.22 9.55994 25.25 8.46994 24.65C8.46994 24.65 8.46994 24.64 8.46994 24.63C9.21994 24.87 10.0099 25 10.8399 25H13.9599C13.9599 25.61 14.1499 26.18 14.4599 26.65C13.3699 27.25 12.5099 28.22 12.0999 29.44C11.8199 30.27 11.9599 31.2 12.4699 31.91C12.9599 32.6 13.7499 33.01 14.5799 33.01H19.3299C20.1599 33.01 20.9499 32.6 21.4399 31.91C21.9499 31.2 22.0899 30.27 21.8099 29.44C21.3999 28.22 20.5399 27.25 19.4499 26.65C19.7599 26.18 19.9499 25.61 19.9499 25H23.0699C23.8999 25 24.6899 24.87 25.4399 24.63C25.4399 24.63 25.4399 24.64 25.4399 24.65C24.3499 25.25 23.4899 26.22 23.0799 27.44C22.7999 28.27 22.9399 29.2 23.4499 29.91C23.9399 30.6 24.7299 31.01 25.5599 31.01H30.3099C31.1399 31.01 31.9299 30.6 32.4199 29.91C32.9299 29.2 33.0699 28.27 32.7899 27.44C32.3799 26.22 31.5199 25.25 30.4299 24.65H30.4999ZM27.9999 4.99999C28.5499 4.99999 28.9999 5.44999 28.9999 5.99999C28.9999 6.54999 28.5499 6.99999 27.9999 6.99999C27.4499 6.99999 26.9999 6.54999 26.9999 5.99999C26.9999 5.44999 27.4499 4.99999 27.9999 4.99999ZM27.9999 8.99999C29.3799 8.99999 30.5599 9.86999 30.9599 11.07C31.1099 11.52 30.7999 12 30.3699 12H29.2899C28.4599 10.95 27.3799 10.12 26.1299 9.59999C26.6499 9.21999 27.2999 8.99999 27.9999 8.99999ZM16.9999 2.99999C17.5499 2.99999 17.9999 3.44999 17.9999 3.99999C17.9999 4.54999 17.5499 4.99999 16.9999 4.99999C16.4499 4.99999 15.9999 4.54999 15.9999 3.99999C15.9999 3.44999 16.4499 2.99999 16.9999 2.99999ZM16.9999 6.99999C18.3499 6.99999 19.4999 7.83999 19.9299 8.99999H14.0699C14.4999 7.83999 15.6499 6.99999 16.9999 6.99999ZM5.99994 4.99999C6.54994 4.99999 6.99994 5.44999 6.99994 5.99999C6.99994 6.54999 6.54994 6.99999 5.99994 6.99999C5.44994 6.99999 4.99994 6.54999 4.99994 5.99999C4.99994 5.44999 5.44994 4.99999 5.99994 4.99999ZM3.62994 12C3.19994 12 2.88994 11.52 3.03994 11.07C3.44994 9.86999 4.61994 8.99999 5.99994 8.99999C6.69994 8.99999 7.34994 9.21999 7.86994 9.59999C6.61994 10.12 5.53994 10.95 4.70994 12H3.62994ZM8.95994 28.07C9.10994 28.52 8.79994 29 8.36994 29H3.61994C3.18994 29 2.87994 28.52 3.02994 28.07C3.43994 26.87 4.60994 26 5.98994 26C7.36994 26 8.54994 26.87 8.94994 28.07H8.95994ZM4.99994 23C4.99994 22.82 5.05994 22.66 5.14994 22.51C5.31994 22.21 5.62994 22 5.99994 22C6.00994 22 6.02994 22 6.03994 22C6.48994 22.02 6.84994 22.33 6.94994 22.76C6.96994 22.84 6.99994 22.91 6.99994 22.99C6.99994 23.3 6.85994 23.56 6.63994 23.74C6.46994 23.89 6.24994 23.99 5.99994 23.99C5.44994 23.99 4.99994 23.54 4.99994 22.99V23ZM19.9599 30.07C20.1099 30.52 19.7999 31 19.3699 31H14.6199C14.1899 31 13.8799 30.52 14.0299 30.07C14.4399 28.87 15.6099 28 16.9899 28C18.3699 28 19.5499 28.87 19.9499 30.07H19.9599ZM15.9999 25C15.9999 24.45 16.4499 24 16.9999 24C17.5499 24 17.9999 24.45 17.9999 25C17.9999 25.55 17.5499 26 16.9999 26C16.4499 26 15.9999 25.55 15.9999 25ZM25.0299 22.67C24.4299 22.88 23.7899 23 23.1199 23H19.2199C18.6699 22.39 17.8799 22 16.9999 22C16.1199 22 15.3299 22.39 14.7799 23H10.8799C10.2099 23 9.56994 22.88 8.96994 22.67C8.80994 21.17 7.54994 20 5.99994 20C5.91994 20 5.84994 20.02 5.76994 20.02C5.27994 19.16 4.99994 18.17 4.99994 17.12V16.88C4.99994 15.83 5.27994 14.85 5.75994 14C6.20994 13.2 6.83994 12.51 7.59994 12C8.01994 11.71 8.48994 11.49 8.97994 11.32C9.57994 11.12 10.2099 11 10.8699 11H23.1099C23.7699 11 24.4099 11.12 24.9999 11.32C25.4899 11.49 25.9599 11.72 26.3799 12C27.1399 12.51 27.7699 13.2 28.2199 14C28.6999 14.85 28.9799 15.83 28.9799 16.88V17.12C28.9799 18.18 28.6999 19.16 28.2099 20.02C28.1299 20.02 28.0599 20 27.9799 20C26.4399 20 25.1799 21.17 25.0099 22.67H25.0299ZM28.9999 23C28.9999 23.55 28.5499 24 27.9999 24C27.7499 24 27.5299 23.9 27.3599 23.75C27.1399 23.57 26.9999 23.3 26.9999 23C26.9999 22.92 27.0299 22.84 27.0499 22.77C27.1499 22.35 27.5099 22.03 27.9599 22.01C27.9699 22.01 27.9899 22.01 27.9999 22.01C28.3699 22.01 28.6799 22.22 28.8499 22.52C28.9299 22.67 28.9999 22.83 28.9999 23.01V23ZM30.3699 29H25.6199C25.1899 29 24.8799 28.52 25.0299 28.07C25.4399 26.87 26.6099 26 27.9899 26C29.3699 26 30.5499 26.87 30.9499 28.07C31.0999 28.52 30.7899 29 30.3599 29H30.3699Z" fill="current"/>
</svg>