<svg width="52" height="52" viewBox="0 0 36 36" fill="none" xmlns="http://www.w3.org/2000/svg">
<path d="M18 36C27.9411 36 36 27.9411 36 18C36 8.05887 27.9411 0 18 0C8.05887 0 0 8.05887 0 18C0 27.9411 8.05887 36 18 36Z" fill="#E9EBED"/>
<path d="M18 16.7143C20.1302 16.7143 21.8571 14.9874 21.8571 12.8571C21.8571 10.7269 20.1302 9 18 9C15.8697 9 14.1428 10.7269 14.1428 12.8571C14.1428 14.9874 15.8697 16.7143 18 16.7143Z" fill="white"/>
<path d="M14.1429 18H21.8571C24.6986 18 27 20.3014 27 23.1429C27 25.2771 25.2771 27 23.1429 27H12.8571C10.7229 27 9 25.2771 9 23.1429C9 20.3014 11.3014 18 14.1429 18Z" fill="white"/>
</svg>
